<svg width="33" height="33" viewBox="0 0 33 33" fill="none" xmlns="http://www.w3.org/2000/svg">
<g id="brand-linkedin" clip-path="url(#clip0_6_1304)">
<path id="Vector" d="M24.75 5.5H8.25C6.73122 5.5 5.5 6.73122 5.5 8.25V24.75C5.5 26.2688 6.73122 27.5 8.25 27.5H24.75C26.2688 27.5 27.5 26.2688 27.5 24.75V8.25C27.5 6.73122 26.2688 5.5 24.75 5.5Z" stroke="#00CFB5" stroke-width="2" stroke-linecap="round" stroke-linejoin="round"/>
<path id="Vector_2" d="M11 15.125V22" stroke="#00CFB5" stroke-width="2" stroke-linecap="round" stroke-linejoin="round"/>
<path id="Vector_3" d="M11 11V11.0129" stroke="#00CFB5" stroke-width="2" stroke-linecap="round" stroke-linejoin="round"/>
<path id="Vector_4" d="M16.5 22V15.125" stroke="#00CFB5" stroke-width="2" stroke-linecap="round" stroke-linejoin="round"/>
<path id="Vector_5" d="M22 22V17.875C22 17.1457 21.7103 16.4462 21.1945 15.9305C20.6788 15.4147 19.9793 15.125 19.25 15.125C18.5207 15.125 17.8212 15.4147 17.3055 15.9305C16.7897 16.4462 16.5 17.1457 16.5 17.875" stroke="#00CFB5" stroke-width="2" stroke-linecap="round" stroke-linejoin="round"/>
</g>
<defs>
<clipPath id="clip0_6_1304">
<rect width="33" height="33" fill="white"/>
</clipPath>
</defs>
</svg>
