<svg width="67" height="156" viewBox="0 0 67 156" fill="none" xmlns="http://www.w3.org/2000/svg">
<g id="icon_enisa.ac9e39e" clip-path="url(#clip0_6_1235)">
<g id="Home">
<g id="Empresas">
<g id="Footer">
<g id="ico-enisa2">
<path id="Path" fill-rule="evenodd" clip-rule="evenodd" d="M5 132H4.3692V127.636L2.69017 132H2.21707L0.519481 127.636V132H0V127H0.927644L2.48609 131.005L4.07236 127H5V132Z" fill="#231F20"/>
<path id="Path_2" fill-rule="evenodd" clip-rule="evenodd" d="M7.8499 132H7.1499V127H7.8499V132Z" fill="#231F20"/>
<path id="Path_3" fill-rule="evenodd" clip-rule="evenodd" d="M13 131.955H12.3414L9.54237 127.6V127.977C9.54237 128.102 9.54237 128.201 9.54237 128.29V132H9V127H9.83293L12.4479 131.077V127H12.9806L13 131.955Z" fill="#231F20"/>
<path id="Path_4" fill-rule="evenodd" clip-rule="evenodd" d="M14.8499 132H14.1499V127H14.8499V132Z" fill="#231F20"/>
<path id="Path_5" fill-rule="evenodd" clip-rule="evenodd" d="M16 130.63L16.586 130.51C16.7789 131.133 17.4217 131.543 18.1208 131.49C18.4528 131.509 18.7819 131.421 19.0509 131.24C19.2568 131.082 19.3705 130.843 19.3579 130.596C19.3675 130.408 19.2815 130.227 19.1253 130.106C18.9688 129.979 18.7801 129.89 18.5765 129.849L17.5348 129.608C17.3032 129.562 17.0805 129.484 16.8743 129.376C16.6915 129.277 16.5405 129.135 16.4372 128.964C16.3157 128.768 16.2546 128.545 16.2604 128.319C16.2478 127.944 16.4313 127.586 16.7534 127.357C17.1172 127.113 17.5596 126.989 18.0091 127.005C18.8546 126.945 19.6303 127.439 19.8694 128.191L19.2834 128.345C19.221 128.082 19.0467 127.853 18.7998 127.709C18.5553 127.573 18.2761 127.499 17.9905 127.495C17.7196 127.491 17.4536 127.562 17.2278 127.701C17.0112 127.83 16.8841 128.055 16.8929 128.294C16.8929 128.646 17.172 128.886 17.7394 129.015L18.6695 129.221C19.5997 129.419 19.9997 129.866 19.9997 130.545C20.0088 130.941 19.8285 131.321 19.5067 131.584C19.1069 131.878 18.6031 132.025 18.0928 131.996C17.1367 132.044 16.2703 131.479 16 130.63Z" fill="#231F20"/>
<path id="Path_6" fill-rule="evenodd" clip-rule="evenodd" d="M22.7692 132H22.2308V127.552H21V127H24V127.552H22.7692V132Z" fill="#231F20"/>
<path id="Path_7" fill-rule="evenodd" clip-rule="evenodd" d="M28 131.453V132H25V127H27.9335V127.556H25.5817V129.142H27.4432V129.652H25.5817V131.444L28 131.453Z" fill="#231F20"/>
<path id="Shape" d="M33 132H32.2718L31.2743 129.842H29.6484V132H29V127.004H31.1945C31.6838 126.971 32.1651 127.131 32.5112 127.443C32.7864 127.702 32.943 128.044 32.9501 128.401C32.9498 128.674 32.8633 128.941 32.7007 129.171C32.5198 129.427 32.2386 129.612 31.9127 129.69L33 132ZM29.6484 129.314H31.1446C31.4601 129.338 31.7718 129.24 32.0025 129.046C32.1916 128.864 32.2952 128.623 32.2918 128.374C32.3045 128.138 32.1939 127.909 31.9925 127.756C31.7748 127.609 31.5071 127.533 31.2344 127.542H29.6484V129.314Z" fill="#231F20"/>
<path id="Path_8" fill-rule="evenodd" clip-rule="evenodd" d="M34.8499 132H34.1499V127H34.8499V132Z" fill="#231F20"/>
<path id="Shape_2" d="M37.9913 131.999C37.4113 132.014 36.8621 131.742 36.5258 131.275C36.1655 130.756 35.9821 130.137 36.0025 129.508C35.9756 128.864 36.1692 128.229 36.552 127.707C36.8987 127.261 37.4354 127 38.0043 127C38.5733 127 39.11 127.261 39.4567 127.707C39.8338 128.219 40.0244 128.841 39.9975 129.474C40.0115 130.107 39.8289 130.73 39.4741 131.258C39.1383 131.737 38.5805 132.016 37.9913 131.999ZM37.9913 131.508C38.4081 131.514 38.7941 131.292 38.9944 130.931C39.2504 130.479 39.3742 129.965 39.352 129.448C39.384 128.938 39.2528 128.432 38.9769 128C38.7605 127.671 38.3881 127.476 37.9913 127.483C37.5817 127.478 37.2016 127.693 36.9969 128.043C36.7348 128.487 36.6076 128.995 36.6305 129.508C36.6085 130.017 36.739 130.521 37.0056 130.956C37.209 131.308 37.59 131.523 38 131.517L37.9913 131.508Z" fill="#231F20"/>
<path id="Shape_3" d="M0 139.973V135.002H1.72007C2.36445 134.972 2.98651 135.236 3.40354 135.715C3.81102 136.222 4.02162 136.853 3.99824 137.497C4.02111 138.139 3.81412 138.768 3.41269 139.278C3.0633 139.738 2.50859 140.006 1.92135 140L0 139.973ZM0.640451 139.439H1.67432C2.16755 139.463 2.63954 139.241 2.92778 138.851C3.23197 138.423 3.38308 137.909 3.35779 137.39C3.36347 136.919 3.21966 136.459 2.94607 136.071C2.65905 135.67 2.17528 135.446 1.67432 135.483H0.640451V139.439Z" fill="#231F20"/>
<path id="Path_9" fill-rule="evenodd" clip-rule="evenodd" d="M9 139.444V140H6V135H8.93352V135.547H6.59834V137.133H8.45152V137.643H6.59834V139.435L9 139.444Z" fill="#231F20"/>
<path id="Path_10" fill-rule="evenodd" clip-rule="evenodd" d="M12.8499 140H12.1499V135H12.8499V140Z" fill="#231F20"/>
<path id="Path_11" fill-rule="evenodd" clip-rule="evenodd" d="M18 140H17.3414L14.5424 135.636V135.968C14.5424 136.093 14.5424 136.201 14.5424 136.281V140H14V135H14.8426L17.4576 139.068V135H17.9903L18 140Z" fill="#231F20"/>
<path id="Shape_4" d="M19 139.973V135.002H20.7201C21.3644 134.972 21.9865 135.236 22.4035 135.715C22.811 136.222 23.0216 136.853 22.9982 137.497C23.0211 138.139 22.8141 138.768 22.4127 139.278C22.0633 139.738 21.5086 140.006 20.9214 140L19 139.973ZM19.6405 139.439H20.6743C21.1608 139.471 21.6314 139.263 21.9278 138.886C22.232 138.459 22.3831 137.945 22.3578 137.425C22.3635 136.955 22.2197 136.495 21.9461 136.107C21.6591 135.705 21.1753 135.482 20.6743 135.519H19.6405V139.439Z" fill="#231F20"/>
<path id="Path_12" fill-rule="evenodd" clip-rule="evenodd" d="M26.5343 135H26.9931V138.195C27.0349 138.702 26.8853 139.205 26.5809 139.581C26.2725 139.866 25.8823 140.013 25.4844 139.994C25.0742 140.034 24.6679 139.878 24.3645 139.564C24.096 139.175 23.9682 138.686 24.0067 138.195V135H24.5433V138.195C24.5278 138.471 24.5704 138.748 24.6678 139.002C24.7446 139.16 24.8687 139.281 25.0177 139.344C25.1774 139.422 25.3496 139.46 25.5232 139.458C25.8081 139.487 26.0903 139.378 26.3009 139.16C26.4936 138.888 26.5855 138.542 26.5576 138.195L26.5343 135Z" fill="#231F20"/>
<path id="Path_13" fill-rule="evenodd" clip-rule="evenodd" d="M28.0368 138.634L28.6161 138.513C28.8068 139.137 29.4421 139.547 30.1332 139.493C30.4603 139.516 30.7856 139.431 31.0527 139.253C31.254 139.092 31.3658 138.855 31.3561 138.608C31.3643 138.418 31.2798 138.234 31.1262 138.109C30.9671 137.988 30.7821 137.9 30.5837 137.851L29.5539 137.619C29.328 137.564 29.1091 137.486 28.9011 137.387C28.722 137.282 28.5735 137.137 28.4689 136.966C28.3533 136.768 28.2932 136.546 28.2942 136.321C28.2817 135.948 28.4633 135.592 28.7816 135.367C29.1379 135.115 29.5768 134.987 30.0229 135.005C30.8596 134.942 31.6285 135.438 31.8618 136.192L31.2826 136.355C31.2259 136.09 31.0524 135.859 30.8044 135.719C30.5662 135.574 30.2885 135.497 30.0045 135.496C29.7356 135.494 29.4727 135.569 29.2505 135.711C29.0365 135.836 28.9103 136.059 28.9195 136.295C28.9195 136.656 29.2045 136.897 29.7562 137.017L30.6757 137.232C31.5952 137.421 31.9998 137.869 31.9998 138.556C32.0076 138.952 31.8255 139.331 31.5032 139.588C30.9257 139.98 30.1867 140.101 29.5014 139.914C28.8162 139.727 28.2619 139.255 28 138.634H28.0368Z" fill="#231F20"/>
<path id="Path_14" fill-rule="evenodd" clip-rule="evenodd" d="M34.7385 140H34.2V135.544H33V135H36V135.544H34.7692L34.7385 140Z" fill="#231F20"/>
<path id="Shape_5" d="M41 140H40.2663L39.2613 137.834H37.6533V140H37V135.005H39.2111C39.7076 134.968 40.1974 135.128 40.5477 135.444C40.8181 135.702 40.972 136.04 40.9799 136.393C40.9794 136.664 40.8961 136.93 40.7387 137.163C40.5555 137.421 40.2676 137.607 39.9347 137.682L41 140ZM37.6231 137.315H39.0905C39.4083 137.338 39.7224 137.241 39.9548 137.046C40.1481 136.866 40.2529 136.624 40.2462 136.375C40.259 136.141 40.1473 135.915 39.9447 135.766C39.7288 135.612 39.4575 135.532 39.1809 135.542H37.6231V137.315Z" fill="#231F20"/>
<path id="Path_15" fill-rule="evenodd" clip-rule="evenodd" d="M42.8499 140H42.1499V135H42.8499V140Z" fill="#231F20"/>
<path id="Shape_6" d="M48 140H47.3531L46.8337 138.539H44.9112L44.4556 140H44L45.6492 135H46.369L48 140ZM46.7335 138.065L45.9408 135.663L45.1572 138.065H46.7335Z" fill="#231F20"/>
<path id="Path_16" fill-rule="evenodd" clip-rule="evenodd" d="M48.9749 139V139.838L48.3749 141H48.0249L48.5049 139.939H48.0849V139H48.9749Z" fill="#231F20"/>
<path id="Path_17" fill-rule="evenodd" clip-rule="evenodd" d="M3.41067 146.279L4 146.408C3.71454 147.466 3.07917 148 2.09388 148C1.4815 148.007 0.905135 147.73 0.5561 147.26C0.173877 146.727 -0.0193866 146.095 0.00360267 145.453C-0.0302157 144.815 0.174891 144.185 0.583725 143.672C0.958558 143.23 1.53644 142.981 2.13993 143.001C3.08608 142.996 3.88225 143.662 3.98158 144.541L3.37384 144.653C3.15284 143.887 2.72926 143.509 2.12151 143.509C1.69159 143.496 1.28733 143.7 1.06256 144.042C0.771768 144.493 0.627782 145.013 0.648183 145.539C0.622153 146.046 0.763614 146.547 1.05335 146.976C1.26299 147.312 1.65025 147.516 2.06626 147.509C2.72005 147.484 3.16205 147.088 3.41067 146.279Z" fill="#231F20"/>
<path id="Shape_7" d="M6.98895 147.999C6.40978 148.017 5.86109 147.745 5.53282 147.276C5.17932 146.771 4.99536 146.169 5.00651 145.556C4.9619 144.898 5.14759 144.246 5.53282 143.706C5.87131 143.251 6.41513 142.988 6.98895 143.001C7.56117 142.986 8.10468 143.246 8.44508 143.697C8.82871 144.206 9.02367 144.829 8.9977 145.461C9.01439 146.092 8.8271 146.713 8.46262 147.233C8.14131 147.723 7.58276 148.014 6.98895 147.999ZM6.98895 147.509C7.40424 147.526 7.7967 147.322 8.01526 146.975C8.27142 146.524 8.39585 146.012 8.3749 145.496C8.40708 144.987 8.27511 144.481 7.99771 144.05C7.78009 143.722 7.40552 143.527 7.00649 143.534C6.59465 143.53 6.21241 143.743 6.0065 144.093C5.742 144.536 5.61402 145.044 5.63808 145.556C5.61853 146.054 5.74649 146.547 6.0065 146.975C6.22277 147.311 6.60134 147.513 7.00649 147.509H6.98895Z" fill="#231F20"/>
<path id="Path_18" fill-rule="evenodd" clip-rule="evenodd" d="M15 148H14.3599V143.636L12.6809 148H12.2356L10.538 143.636V148H10V143H10.9276L12.5046 147.041L14.026 143.045H14.9536L15 148Z" fill="#231F20"/>
<path id="Path_19" fill-rule="evenodd" clip-rule="evenodd" d="M20 147.453V148H17V143H19.9093V143.547H17.5769V145.142H19.4231V145.652H17.5769V147.444L20 147.453Z" fill="#231F20"/>
<path id="Shape_8" d="M25 148H24.2663L23.2613 145.834H21.6533V148H21V143.005H23.2111C23.7076 142.968 24.1974 143.128 24.5477 143.444C24.8205 143.704 24.9745 144.046 24.9799 144.402C24.9797 144.67 24.8962 144.934 24.7387 145.163C24.5509 145.419 24.2654 145.607 23.9347 145.691L25 148ZM21.6231 145.315H23.0905C23.4103 145.34 23.7262 145.238 23.9548 145.037C24.1505 144.862 24.256 144.622 24.2462 144.375C24.2623 144.138 24.1502 143.908 23.9447 143.757C23.7264 143.607 23.4568 143.528 23.1809 143.534H21.6231V145.315Z" fill="#231F20"/>
<path id="Path_20" fill-rule="evenodd" clip-rule="evenodd" d="M28.4107 146.279L29 146.408C28.7145 147.466 28.0792 147.999 27.0939 147.999C26.4816 148.017 25.9032 147.737 25.5653 147.259C25.1804 146.727 24.9839 146.095 25.0036 145.453C24.9698 144.814 25.1749 144.185 25.5837 143.672C25.9595 143.231 26.5367 142.982 27.1399 143.001C28.0861 142.996 28.8822 143.662 28.9816 144.541L28.3738 144.653C28.1528 143.887 27.7385 143.509 27.1215 143.509C26.692 143.498 26.2887 143.701 26.0626 144.042C25.7883 144.497 25.6604 145.017 25.6942 145.539C25.6656 146.034 25.7972 146.525 26.0718 146.95C26.2858 147.285 26.6756 147.489 27.0939 147.483C27.7385 147.483 28.1713 147.087 28.4107 146.279Z" fill="#231F20"/>
<path id="Path_21" fill-rule="evenodd" clip-rule="evenodd" d="M30.8499 148H30.1499V143H30.8499V148Z" fill="#231F20"/>
<path id="Shape_9" d="M33.9915 147.999C33.4115 148.013 32.8622 147.74 32.5259 147.269C32.1743 146.758 31.9914 146.151 32.0025 145.531C31.9757 144.879 32.1692 144.237 32.552 143.707C32.9008 143.261 33.4368 143 34.0046 143C34.5723 143 35.1083 143.261 35.4571 143.707C35.8318 144.224 36.0222 144.851 35.9979 145.488C36.013 146.124 35.8302 146.749 35.4745 147.278C35.1328 147.75 34.5759 148.021 33.9915 147.999ZM33.9915 147.504C34.4073 147.506 34.7915 147.283 34.9947 146.921C35.2495 146.466 35.3732 145.949 35.3524 145.427C35.3844 144.914 35.2531 144.403 34.9773 143.968C34.7608 143.636 34.3883 143.439 33.9915 143.446C33.5819 143.442 33.2017 143.658 32.997 144.011C32.7339 144.458 32.6066 144.971 32.6306 145.488C32.6061 145.998 32.7368 146.504 33.0057 146.939C33.2105 147.292 33.5906 147.508 34.0002 147.504H33.9915Z" fill="#231F20"/>
<path id="Path_22" fill-rule="evenodd" clip-rule="evenodd" d="M44 143L42.3205 145.894V148H41.6885V145.894L40 143H40.7314L42.0767 145.294L43.4402 143H44Z" fill="#231F20"/>
<path id="Path_23" fill-rule="evenodd" clip-rule="evenodd" d="M1.76923 156H1.23077V151.552H0V151H3V151.552H1.76923V156Z" fill="#231F20"/>
<path id="Path_24" fill-rule="evenodd" clip-rule="evenodd" d="M7.54108 151H7.99198V154.213C8.03756 154.713 7.8873 155.21 7.57995 155.577C7.27624 155.868 6.8836 156.018 6.48381 155.994C6.07377 156.033 5.66767 155.879 5.36434 155.568C5.09601 155.184 4.96822 154.699 5.00673 154.213V151H5.55091V154.213C5.53291 154.486 5.57286 154.76 5.66752 155.012C5.75019 155.166 5.87587 155.285 6.02513 155.351C6.18289 155.424 6.35186 155.463 6.52268 155.464C6.80707 155.489 7.08807 155.382 7.30009 155.169C7.49123 154.898 7.58297 154.557 7.55663 154.213L7.54108 151Z" fill="#231F20"/>
<path id="Shape_10" d="M13 156H12.2736L11.2786 153.837H9.69652V156H9V151.004H11.1891C11.6799 150.971 12.1626 151.131 12.5124 151.442C12.7833 151.702 12.9359 152.043 12.9403 152.398C12.9384 152.669 12.8559 152.934 12.7015 153.167C12.5172 153.423 12.2334 153.607 11.9055 153.685L13 156ZM9.65672 153.319H11.1095C11.4238 153.34 11.7338 153.243 11.9652 153.051C12.1502 152.868 12.2499 152.628 12.2438 152.381C12.255 152.145 12.1449 151.917 11.9453 151.764C11.7289 151.615 11.4613 151.539 11.1891 151.549H9.69652L9.65672 153.319Z" fill="#231F20"/>
<path id="Path_25" fill-rule="evenodd" clip-rule="evenodd" d="M14.8499 156H14.1499V151H14.8499V156Z" fill="#231F20"/>
<path id="Path_26" fill-rule="evenodd" clip-rule="evenodd" d="M16 154.629L16.5792 154.509C16.763 155.132 17.3974 155.544 18.0871 155.487C18.4141 155.508 18.7388 155.423 19.0066 155.247C19.215 155.088 19.3309 154.846 19.3192 154.595C19.3237 154.406 19.2356 154.226 19.0801 154.105C18.9254 153.978 18.7388 153.889 18.5377 153.848L17.5079 153.607C17.2841 153.559 17.0678 153.484 16.8643 153.384C16.6831 153.282 16.5341 153.137 16.4321 152.963C16.3121 152.768 16.2517 152.545 16.2574 152.32C16.2396 151.948 16.4183 151.592 16.7356 151.367C17.0954 151.115 17.5371 150.988 17.986 151.006C18.8236 150.939 19.5946 151.436 19.8249 152.191L19.2456 152.354C19.1903 152.086 19.0167 151.852 18.7675 151.71C18.5267 151.572 18.2502 151.498 17.9676 151.495C17.701 151.49 17.4397 151.565 17.2229 151.71C17.0088 151.835 16.8827 152.058 16.8919 152.294C16.8919 152.649 17.1677 152.889 17.7194 153.015L18.6848 153.221C19.5582 153.418 19.9996 153.865 19.9996 154.543C20.0102 154.941 19.8278 155.323 19.5031 155.582C19.1116 155.876 18.6164 156.023 18.1147 155.994C17.1519 156.066 16.2679 155.495 16 154.629Z" fill="#231F20"/>
<path id="Path_27" fill-rule="evenodd" clip-rule="evenodd" d="M26 156H25.3692V151.626L23.6716 156H23.2356L21.5566 151.626V155.991H21V151H21.9276L23.4861 154.998L25.0167 151H25.9443L26 156Z" fill="#231F20"/>
<path id="Shape_11" d="M28.9911 155.998C28.4112 156.013 27.8619 155.739 27.5256 155.268C27.173 154.757 26.99 154.149 27.0022 153.53C26.9767 152.88 27.1702 152.24 27.5518 151.713C27.8985 151.263 28.4352 151 29.0042 151C29.5732 151 30.1099 151.263 30.4566 151.713C30.8338 152.229 31.0244 152.857 30.9975 153.495C31.0115 154.134 30.8289 154.762 30.4741 155.294C30.1285 155.761 29.5724 156.025 28.9911 155.998ZM28.9911 155.503C29.408 155.509 29.794 155.285 29.9943 154.92C30.2492 154.467 30.373 153.953 30.352 153.434C30.3783 152.919 30.2508 152.408 29.9856 151.965C29.7641 151.635 29.3899 151.438 28.9911 151.444C28.5816 151.439 28.2015 151.655 27.9967 152.008C27.7339 152.459 27.6067 152.975 27.6303 153.495C27.6069 154.005 27.7376 154.511 28.0054 154.946C28.2111 155.298 28.5916 155.511 28.9999 155.503H28.9911Z" fill="#231F20"/>
<path id="Path_28" fill-rule="evenodd" clip-rule="evenodd" d="M1.61047 5H1V0H4V0.554562H1.61047V2.1288H3.5814V2.6297H1.61047V5Z" fill="#231F20"/>
<path id="Path_29" fill-rule="evenodd" clip-rule="evenodd" d="M4.8499 5H4.1499V0H4.8499V5Z" fill="#231F20"/>
<path id="Path_30" fill-rule="evenodd" clip-rule="evenodd" d="M10.9903 5H10.3204L7.52427 0.644007V0.974955C7.52427 1.10018 7.52427 1.19857 7.52427 1.28801V5H7V0H7.84466L10.466 4.06977V0H11L10.9903 5Z" fill="#231F20"/>
<path id="Shape_12" d="M15 5H14.3499L13.8442 3.53309H11.9752L11.5237 5H11L12.6343 0H13.3476L15 5ZM13.7088 3.06798L12.9323 0.670841L12.1287 3.06798H13.7088Z" fill="#231F20"/>
<path id="Path_31" fill-rule="evenodd" clip-rule="evenodd" d="M20 5H19.3414L16.5424 0.644007V0.974955C16.5424 1.10018 16.5424 1.19857 16.5424 1.28801V5H16V0H16.8426L19.4576 4.06977V3.72093C19.4576 3.58676 19.4576 3.47048 19.4576 3.36315V0H20V5Z" fill="#231F20"/>
<path id="Path_32" fill-rule="evenodd" clip-rule="evenodd" d="M24.411 3.28626L25 3.40669C24.7147 4.46477 24.0797 4.9981 23.095 4.9981C22.4919 5.0251 21.9158 4.76232 21.5674 4.30132C21.1787 3.77067 20.9819 3.1376 21.006 2.49485C20.9613 1.84187 21.1668 1.19534 21.5858 0.671174C21.9535 0.239759 22.5142 -0.00804164 23.1042 0.000199232C24.0498 -0.00468531 24.8455 0.660992 24.9448 1.54L24.3374 1.66043C24.1718 0.860424 23.7576 0.507732 23.1042 0.507732C22.6746 0.494867 22.2706 0.69847 22.0459 1.04107C21.7747 1.51248 21.6564 2.04758 21.7054 2.58087C21.6886 3.06501 21.8229 3.54325 22.0919 3.95723C22.3069 4.28778 22.6904 4.48986 23.1042 4.49057C23.7668 4.49057 24.1994 4.08627 24.411 3.28626Z" fill="#231F20"/>
<path id="Path_33" fill-rule="evenodd" clip-rule="evenodd" d="M26.8499 5H26.1499V0H26.8499V5Z" fill="#231F20"/>
<path id="Shape_13" d="M32 5H31.3528L30.8494 3.53309H28.9888L28.5393 5H28L29.6449 0H30.3551L32 5ZM30.6966 3.06798L29.9416 0.670841L29.1595 3.06798H30.6966Z" fill="#231F20"/>
<path id="Shape_14" d="M33 4.96444V0.00255775H34.7107C35.3574 -0.0292656 35.9815 0.237314 36.394 0.721543C36.8098 1.22306 37.0243 1.8537 36.9978 2.49682C37.0184 3.13623 36.8117 3.76306 36.4123 4.27209C36.0649 4.73339 35.51 5.00428 34.9211 4.99995L33 4.96444ZM33.6404 4.43186H34.6741C35.158 4.46401 35.626 4.25703 35.9183 3.88153C36.2263 3.45702 36.3778 2.94416 36.3483 2.4258C36.3526 1.95869 36.2124 1.50106 35.9458 1.1121C35.6575 0.713465 35.1747 0.491017 34.6741 0.526263H33.6404V4.43186Z" fill="#231F20"/>
<path id="Shape_15" d="M41 5H40.3651L39.8571 3.53309H37.9796L37.5261 5H37L38.6417 0H39.3583L41 5ZM39.7211 3.06798L38.941 0.670841L38.161 3.06798H39.7211Z" fill="#231F20"/>
<path id="Shape_16" d="M44.551 5H44V0.00523922H45.5742C45.9754 -0.0324454 46.3706 0.134567 46.6524 0.460933C46.8756 0.743198 46.999 1.10918 46.9988 1.48848C47.015 1.90244 46.8713 2.30385 46.6052 2.5875C46.3376 2.87271 45.9803 3.02401 45.6135 3.00746H44.551V5ZM44.551 2.45348H45.5584C45.7917 2.46512 46.0191 2.36833 46.1881 2.18542C46.3526 2.00337 46.4389 1.74878 46.4242 1.48848C46.4329 1.23683 46.3569 0.990859 46.2117 0.800469C46.0513 0.613675 45.8271 0.515757 45.5978 0.532414H44.551V2.45348Z" fill="#231F20"/>
<path id="Shape_17" d="M49.9887 4.99889C49.4152 5.01925 48.8685 4.75806 48.5274 4.3008C48.1758 3.79445 47.9933 3.19161 48.0055 2.57712C47.9641 1.90965 48.1577 1.24863 48.5535 0.706921C48.8992 0.261215 49.4344 0 50.0017 0C50.5691 0 51.1042 0.261215 51.45 0.706921C51.8291 1.21745 52.0223 1.8403 51.9979 2.4737C52.0088 3.10806 51.8237 3.73055 51.4674 4.25771C51.1325 4.73645 50.5763 5.01525 49.9887 4.99889ZM49.9887 4.50764C50.4017 4.51233 50.7834 4.29004 50.9803 3.93021C51.2384 3.48264 51.3621 2.97134 51.3369 2.45646C51.3669 1.94549 51.2395 1.43755 50.9716 0.999947C50.7507 0.672357 50.3776 0.477756 49.98 0.482842C49.5742 0.479746 49.1984 0.693951 48.9971 1.04304C48.7262 1.48608 48.5959 1.99951 48.6231 2.51679C48.6029 3.02248 48.7329 3.52291 48.9971 3.95606C49.2052 4.31007 49.5929 4.52202 50.0061 4.50764H49.9887Z" fill="#231F20"/>
<path id="Shape_18" d="M58 5H57.2637L56.2687 2.83725H54.6567V5H54V0.00422572H56.1891C56.6799 -0.0286108 57.1626 0.131104 57.5124 0.442138C57.7792 0.70386 57.9313 1.04363 57.9403 1.3984C57.9384 1.66912 57.8559 1.93447 57.7015 2.16698C57.5172 2.42268 57.2334 2.60749 56.9055 2.68532L58 5ZM54.6567 2.3189H56.0995C56.4143 2.3436 56.7258 2.246 56.9552 2.0508C57.1439 1.86906 57.2472 1.62898 57.2438 1.38052C57.243 1.15712 57.134 0.945085 56.9453 0.799617C56.7289 0.650836 56.4613 0.574934 56.1891 0.58513H54.6567V2.3189Z" fill="#231F20"/>
<path id="Shape_19" d="M59.92 1V1.88136H59V1H59.92ZM59.92 4.10896V5H59V4.10896H59.92Z" fill="#231F20"/>
<path id="Path_34" fill-rule="evenodd" clip-rule="evenodd" d="M1 9H67V123L34.0489 103.827L1 122.767V9Z" fill="#231F20"/>
<path id="Shape_20" d="M35.9639 22.4031C43.509 16.8775 46.325 21.4538 45.7976 26.7287C44.5907 39.0426 34.605 43.7353 24.1813 46.2608C26.4073 33.723 32.3701 25.0271 35.9639 22.3942M52.8421 56.6045C52.6608 56.4028 52.3578 56.3682 52.1358 56.5239C47.254 59.34 41.8961 61.2313 36.3304 62.1032C36.3304 62.1032 35.9639 62.1838 36.1516 62.3898C37.6714 63.1331 42.5167 62.8107 44.9036 62.2913C39.8348 66.2944 35.6599 67.0198 32.8082 67.0198C26.9079 67.0198 23.4036 62.542 23.4036 55.082C23.4158 52.4828 23.6159 49.8878 24.0025 47.3175C40.6304 42.9562 52.8689 38.3082 52.8689 27.3108C52.8689 22.018 49.2125 19 42.9637 19C30.5375 19 18.4957 32.4334 15.7154 48.0609C15.0896 48.2221 8.50107 49.5923 8.33121 49.6281C8.10039 49.7011 7.96161 49.9366 8.00938 50.1744C8.00938 50.4699 8.28651 50.5684 8.6888 50.4968C8.6888 50.4968 14.9466 49.2788 15.5366 49.1534C13.2481 63.5988 20.5071 71.8379 27.5337 71.8379C32.6383 71.8379 38.2614 69.7154 45.9495 63.151C44.9215 65.4615 43.4822 71.2916 44.1616 71.9633C44.3046 72.1066 44.4387 71.7842 44.4387 71.7842C46.3334 66.4978 49.1852 61.6068 52.851 57.3567C53.0497 57.1489 53.0497 56.8212 52.851 56.6134" fill="white"/>
<path id="Path_35" fill-rule="evenodd" clip-rule="evenodd" d="M11.3799 88.4999C11.3799 88.5662 11.4336 88.6199 11.4999 88.6199C11.5662 88.6199 11.6199 88.5662 11.6199 88.4999C11.6199 88.4336 11.5662 88.3799 11.4999 88.3799C11.4336 88.3799 11.3799 88.4336 11.3799 88.4999Z" fill="white"/>
<path id="Path_36" fill-rule="evenodd" clip-rule="evenodd" d="M35.6255 88.5044C35.0663 87.9658 34.7171 87.251 34.6389 86.4848C34.7286 85.6268 35.14 84.8325 35.7929 84.2571C36.4538 83.5231 37.3799 83.0721 38.3739 83.0002C39.2138 82.9879 39.9209 83.6157 39.9947 84.4391C40.0193 84.6476 39.9575 84.8571 39.8233 85.0202C39.689 85.1833 39.4936 85.2863 39.2812 85.3059C38.9779 85.271 38.7145 85.0841 38.5853 84.8118L38.2946 84.3091C38.0774 83.9677 37.7269 83.7295 37.3256 83.6503C36.6489 83.7396 36.0805 84.1952 35.8545 84.8291C35.7629 85.0069 35.7118 85.2021 35.7048 85.4012C35.8545 86.1131 36.2164 86.765 36.7442 87.2736L37.678 88.3224C38.3405 88.9612 38.7364 89.8207 38.7879 90.7321C38.7879 92.7171 37.1671 94 34.5773 94C33.6964 94 33.0005 93.6533 33.0005 92.9165C32.993 92.7051 33.0751 92.5002 33.227 92.3506C33.379 92.2011 33.5873 92.1204 33.8021 92.1277C34.1016 92.1277 34.5596 92.5264 34.8239 92.6911C35.3095 93.0201 35.8746 93.2174 36.4623 93.2632C36.8383 93.2749 37.2033 93.1372 37.475 92.8812C37.7468 92.6253 37.9025 92.2725 37.907 91.9023C37.907 91.2696 37.4401 90.6541 36.6121 89.6746L35.5991 88.5044H35.6255Z" fill="white"/>
<path id="Path_37" fill-rule="evenodd" clip-rule="evenodd" d="M28 90.9314C27.9958 90.8758 27.951 90.8316 27.8946 90.8274C27.8691 90.8181 27.8411 90.8181 27.8156 90.8274L27.5258 91.1742C26.358 92.5091 25.7697 93.0032 25.4624 93.0032C25.1551 93.0032 25.2604 92.301 25.3746 91.8589L26.9375 86.0339C27.0693 85.5384 27.1401 85.0291 27.1483 84.5169C27.1483 83.5721 26.7531 83 26.0858 83C25.0497 83 23.1443 84.7337 20.4398 88.1056L20.0096 88.6084L20.8877 84.2309C20.8877 84.2309 20.8877 84.0749 20.9667 83.8061C20.9667 83.7021 20.9667 83.5461 20.9667 83.4941C20.9739 83.3699 20.9307 83.248 20.8467 83.1553C20.7626 83.0626 20.6447 83.0067 20.5189 83C19.5881 83 17.4544 85.2624 17.0066 85.9992C16.9978 86.0215 16.9978 86.0463 17.0066 86.0686C17.0066 86.126 17.0538 86.1726 17.112 86.1726C17.112 86.1726 17.1559 86.1726 17.1822 86.1726C17.1822 86.1726 18.3764 84.699 18.7979 84.699C18.9998 84.699 19.1052 84.9243 19.0349 85.2884L17.3315 93.5579C17.3202 93.6268 17.3202 93.6971 17.3315 93.766C17.3315 93.948 17.4105 94 17.7266 94H18.1481H18.2886C18.631 94 18.7627 94 18.8154 93.922C18.8681 93.844 18.9208 93.844 18.9735 93.5319L19.8515 89.2845C21.0633 87.7415 23.9433 84.2049 24.9707 84.2049C25.2429 84.2049 25.4273 84.4649 25.4273 84.8897C25.4253 85.1189 25.3898 85.3466 25.3219 85.5658L23.6184 92.119C23.4428 92.8645 23.3726 94 24.2858 94C25.0497 94 26.3756 92.9511 27.7102 91.2782L27.9473 90.9661C27.9547 90.9466 27.9547 90.925 27.9473 90.9054" fill="white"/>
<path id="Path_38" fill-rule="evenodd" clip-rule="evenodd" d="M32.9674 91.3698C32.9719 91.3497 32.9719 91.3288 32.9674 91.3088C32.9674 91.2511 32.9235 91.2043 32.8695 91.2043C32.8398 91.2049 32.8123 91.2212 32.7961 91.2478L31.9803 92.2755C31.76 92.5542 31.4174 92.8068 31.1074 92.6849C30.985 92.6849 30.8463 92.441 30.9197 92.0752L32.3392 84.4719C32.4039 84.2045 32.4368 83.9294 32.4371 83.6532C32.4371 83.2613 32.2413 83 31.9395 83C31.2379 83 30.2508 83.9929 29.0027 85.6128C28.9991 85.63 28.9991 85.6479 29.0027 85.6651C29.0027 85.7228 29.0465 85.7696 29.1005 85.7696C29.1217 85.7776 29.1447 85.7776 29.1658 85.7696C29.7205 85.0554 30.2263 84.5677 30.5282 84.5677C30.6085 84.5748 30.6817 84.62 30.7275 84.6908C30.7734 84.7617 30.787 84.8507 30.7647 84.9335L29.3861 92.1188C29.333 92.4529 29.3003 92.7904 29.2882 93.1291C29.2882 93.7039 29.5329 94 29.9571 94C31.2379 94 32.6247 91.8401 33 91.3262L32.9674 91.3698Z" fill="white"/>
<path id="Shape_21" d="M46.8442 89.9779L46.5894 90.212C44.6101 92.2837 43.6588 93.0985 43.2765 93.0985C42.8943 93.0985 42.529 91.8763 42.529 90.8014C42.529 88.5477 43.3105 86.0426 44.797 85.0457C45.7932 84.5517 46.8925 84.3136 47.9994 84.3522L46.8442 89.9779ZM49.9956 91.4429C50.0015 91.426 50.0015 91.4077 49.9956 91.3909C49.9956 91.3334 49.95 91.2868 49.8937 91.2868C49.8742 91.2821 49.8538 91.2821 49.8342 91.2868C49.7663 91.3649 48.7979 92.4571 48.3732 92.4571C48.2118 92.4571 48.1099 92.301 48.1099 92.0583C48.1546 91.6026 48.2312 91.1506 48.3392 90.7061L49.8597 83C49.5454 83 49.4435 83 49.2906 83C48.0181 83.0817 46.7806 83.4582 45.672 84.1009C42.9792 85.6958 41 88.7384 41 91.3042C41 92.7171 41.6881 94 42.4865 94C43.0557 94 44.4403 92.8471 46.343 90.8621L46.8017 90.3333C46.6146 91.1421 46.4952 91.9657 46.4449 92.7951C46.4449 93.5319 46.7253 94 47.1585 94C47.838 94 48.7215 92.9338 49.8257 91.6249L49.9786 91.4515L49.9956 91.4429Z" fill="white"/>
<path id="Shape_22" d="M12.3466 84.7455C13.9373 83.5926 14.5229 84.5461 14.418 85.6123C14.1646 88.2128 12.0582 89.1489 9.86437 89.6777C10.1072 87.793 10.9813 86.0438 12.3466 84.7108V84.7455ZM8.09011 90.2758C7.6094 93.2837 9.13894 95 10.616 95C13.4479 95 15.5368 91.9314 15.5368 91.9314C15.5789 91.8878 15.5789 91.819 15.5368 91.7754C15.4929 91.7422 15.432 91.7422 15.3882 91.7754C15.3882 91.7754 13.9548 94.1158 11.7697 94.1158C10.5286 94.1158 9.75075 93.0756 9.75075 91.5154C9.75278 90.9754 9.79661 90.4364 9.88185 89.9031C13.3779 89.0363 16 88.0221 16 85.7337C16 84.6328 15.2309 84 13.9198 84C11.2978 84 8.76311 86.7998 8.18625 90.0678L8.14255 90.2931L8.09011 90.2758Z" fill="white"/>
<path id="Path_39" fill-rule="evenodd" clip-rule="evenodd" d="M32.6791 81.9724C32.2512 81.9724 32 81.6687 32 81.135C32 80.0307 32.6233 79 33.293 79C33.7209 79 34 79.3589 34 79.9202V80.0031C33.9163 81.1994 33.3767 82 32.6791 82" fill="white"/>
</g>
</g>
</g>
</g>
</g>
<defs>
<clipPath id="clip0_6_1235">
<rect width="67" height="156" fill="white"/>
</clipPath>
</defs>
</svg>
