<svg width="156" height="70" viewBox="0 0 156 70" fill="none" xmlns="http://www.w3.org/2000/svg">
<g id="54%">
<g id="54%_2">
<path d="M35.2565 5.94056C35.7967 6.11642 36.1764 6.58503 36.3956 7.34636C36.6836 8.11284 36.7945 8.9338 36.7283 9.80922C36.6621 10.6846 36.4315 11.4462 36.0366 12.0939C35.6417 12.7415 35.0684 13.0034 34.3167 12.8794C33.8402 12.776 33.0196 12.6469 31.8551 12.492C30.6957 12.2698 29.3961 12.071 27.9564 11.8956C26.5218 11.6528 25.0158 11.4385 23.4384 11.2528C21.9299 11.0722 20.5246 10.8993 19.2225 10.7341C17.9203 10.569 16.8195 10.4866 15.92 10.487C15.0944 10.4252 14.6791 10.428 14.674 10.4954C14.6638 10.63 14.5912 11.1325 14.4562 12.0028C14.39 12.8782 14.2742 13.9531 14.1086 15.2274C14.0119 16.5069 13.9075 17.8873 13.7955 19.3688C13.6835 20.8503 13.5791 22.2308 13.4824 23.5103C13.3907 24.7224 13.3118 25.7662 13.2456 26.6416C13.2482 27.5222 13.2814 27.9987 13.3451 28.0712C13.4088 28.1437 14.065 28.1589 15.3136 28.1169C16.5621 28.0749 18.1178 28.0897 19.9805 28.1614C21.8432 28.233 23.9047 28.4211 26.165 28.7257C28.4252 29.0303 30.5644 29.5628 32.5826 30.3233C34.6008 31.0838 36.3872 32.1656 37.9416 33.5686C39.5012 34.9043 40.5461 36.6416 41.0763 38.7807C41.8588 42.1576 41.7749 45.0972 40.8246 47.5995C39.9431 50.1069 38.4679 52.2313 36.3989 53.9727C34.3299 55.7141 31.8392 57.0853 28.9267 58.0864C26.0193 59.0201 22.9284 59.6353 19.6541 59.9321C16.4536 60.1667 13.2072 60.093 9.91497 59.7113C6.6278 59.2621 3.63875 58.5306 0.947821 57.5165C0.545199 57.351 0.337491 56.8952 0.324697 56.1494C0.380704 55.4086 0.574313 54.6782 0.905523 53.958C1.31063 53.1757 1.77435 52.5331 2.29668 52.0305C2.88782 51.5329 3.48281 51.442 4.08165 51.7577C5.68705 52.4873 7.58292 53.0355 9.76927 53.4023C12.0295 53.7068 14.305 53.8094 16.5958 53.7099C18.9554 53.6156 21.2271 53.3115 23.4108 52.7977C25.6685 52.2217 27.5974 51.4179 29.1975 50.3864C30.8716 49.2927 32.1137 47.9635 32.9239 46.3988C33.8029 44.8393 34.0462 42.9951 33.6536 40.8664C33.3426 39.4887 32.5195 38.479 31.1842 37.8373C29.9177 37.2008 28.2499 36.839 26.1808 36.7519C24.1168 36.5974 21.7597 36.6581 19.1097 36.9338C16.4596 37.2096 13.6987 37.5786 10.8269 38.041C10.409 38.0774 9.68154 38.0907 8.64444 38.0808C7.68123 38.0087 6.65431 37.8642 5.56368 37.6471C4.54185 37.4352 3.63341 37.0964 2.83835 36.6305C2.11209 36.1699 1.77951 35.5355 1.8406 34.7274C1.9017 33.9193 1.9959 32.6735 2.12318 30.99C2.31927 29.3117 2.49369 27.4624 2.64644 25.4422C2.86798 23.4271 3.06022 21.3421 3.22315 19.1872C3.39117 16.965 3.54646 14.9111 3.68903 13.0256C3.90039 11.1452 4.05699 9.53162 4.15882 8.18481C4.33454 6.77581 4.43513 5.90296 4.46059 5.56626C4.63122 4.2246 5.32171 3.32817 6.53205 2.87697C7.81629 2.36357 9.00627 2.18173 10.102 2.33144C10.79 2.38292 11.8539 2.49639 13.2936 2.67184C14.7333 2.84729 16.3081 3.06671 18.0179 3.33009C19.8017 3.53128 21.6172 3.76872 23.4647 4.0424C25.3809 4.32123 27.1252 4.58718 28.6974 4.84027C30.3435 5.03117 31.7463 5.23772 32.9057 5.45991C34.134 5.68726 34.9175 5.84748 35.2565 5.94056Z" fill="#3C475B" fill-opacity="0.15"/>
<path d="M68.739 7.53171C69.2078 6.82185 70.1799 6.31896 71.6553 6.02303C73.2045 5.6649 74.8098 5.48028 76.4712 5.46916C78.1326 5.45803 79.6093 5.60238 80.9013 5.90222C82.262 6.2072 82.9539 6.6653 82.9768 7.27651L82.1307 40.4305L85.972 40.4132C86.8664 40.4801 87.4946 40.8657 87.8565 41.57C88.2234 42.207 88.3445 42.8932 88.2197 43.6288C88.1637 44.3696 87.9383 45.0638 87.5433 45.7114C87.1535 46.2918 86.649 46.5588 86.0298 46.5124L81.9744 46.6153C81.944 48.8478 81.8651 50.8058 81.7378 52.4894C81.6793 54.178 81.6412 55.5973 81.6235 56.7472C81.5904 58.0992 81.5727 59.2491 81.5702 60.197L84.3719 60.2035C84.7898 60.1671 85.1504 60.4311 85.4537 60.9955C85.762 61.4927 85.9621 62.0494 86.0539 62.6658C86.1456 63.2821 86.1024 63.8545 85.924 64.3829C85.7457 64.9114 85.3813 65.155 84.8309 65.1138L65.819 63.9959C65.5438 63.9754 65.3208 63.7216 65.15 63.2348C65.0481 62.7531 65.0175 62.2429 65.0582 61.7042C65.0989 61.1655 65.2403 60.6682 65.4824 60.2122C65.7244 59.7563 66.0862 59.5463 66.5678 59.5824L69.6639 59.814L70.156 46.442C66.9122 46.3348 63.9066 46.2792 61.1393 46.2753C59.9646 46.2551 58.7899 46.2349 57.6152 46.2147C56.4405 46.1946 55.369 46.1821 54.4007 46.1774C53.4324 46.1726 52.5698 46.142 51.813 46.0853C51.125 46.0338 50.6434 45.9978 50.3682 45.9772C49.749 45.9309 49.2954 45.5245 49.0074 44.758C48.7245 43.9242 48.5524 42.997 48.4912 41.9766C48.43 40.9562 48.4668 40.0109 48.6018 39.1406C48.7419 38.203 48.8909 37.6047 49.0489 37.3456C49.4438 36.6979 50.1521 35.5658 51.1738 33.9492C52.1955 32.3327 53.3726 30.4907 54.7052 28.4233C56.1065 26.3611 57.5499 24.2004 59.0353 21.9413C60.5896 19.6874 62.0304 17.5604 63.3578 15.5604C64.6853 13.5603 65.8178 11.8505 66.7555 10.4307C67.767 8.94884 68.4282 7.9825 68.739 7.53171ZM55.5813 40.1708L70.9391 40.2026C71.0891 35.4733 71.2035 31.2154 71.2822 27.4289C71.3356 25.8076 71.3864 24.2199 71.4347 22.666C71.4881 21.0447 71.5288 19.5917 71.5568 18.3071C71.6586 16.9603 71.7082 15.8466 71.7056 14.966C71.7769 14.0232 71.8227 13.4172 71.8431 13.1478C71.6851 13.4069 71.3297 13.9898 70.7768 14.8965C70.2927 15.8084 69.6557 16.912 68.8659 18.2073C68.1448 19.5078 67.2735 20.9663 66.2518 22.5829C65.2989 24.2046 64.346 25.8264 63.3931 27.4481C61.0975 31.2719 58.4935 35.5128 55.5813 40.1708Z" fill="#3C475B" fill-opacity="0.15"/>
<path d="M102.932 18.8263C104.486 18.4008 106.052 18.281 107.629 18.4667C109.276 18.6576 110.793 19.1775 112.182 20.0264C113.571 20.8752 114.723 22.1127 115.637 23.7387C116.557 25.2974 117.068 27.2319 117.171 29.542C117.293 31.5828 116.767 33.5074 115.592 35.3157C114.418 37.124 112.89 38.5673 111.01 39.6456C109.198 40.729 107.113 41.3178 104.753 41.4122C102.467 41.4443 100.243 40.6684 98.0791 39.0843C96.5043 37.9507 95.3409 36.4076 94.5891 34.4551C93.906 32.5078 93.7122 30.4956 94.0077 28.4183C94.3031 26.3411 95.1757 24.4086 96.6255 22.6209C98.0753 20.8331 100.177 19.5683 102.932 18.8263ZM104.511 24.0235C103.301 24.4748 102.436 25.392 101.916 26.7752C101.47 28.0963 101.403 29.4457 101.713 30.8234C102.098 32.1389 102.845 33.2444 103.954 34.14C105.067 34.9683 106.615 35.0841 108.598 34.4875C110.363 34.0102 111.437 33.0747 111.82 31.6812C112.271 30.2928 112.2 28.9331 111.609 27.6021C111.087 26.2763 110.163 25.2253 108.838 24.4489C107.518 23.6052 106.075 23.4634 104.511 24.0235ZM131.45 16.389C132.352 15.4407 133.319 15.0051 134.351 15.0823C135.388 15.0922 136.301 15.3637 137.091 15.8969C137.95 16.4352 138.553 17.1575 138.899 18.0638C139.32 18.9079 139.333 19.6538 138.938 20.3015C137.526 22.4984 135.794 25.2808 133.74 28.6486C131.691 31.9491 129.477 35.6097 127.098 39.6304C124.792 43.5888 122.402 47.7442 119.928 52.0964C117.523 56.4537 115.231 60.6841 113.053 64.7876C112.653 65.5026 112.032 65.9302 111.191 66.0704C110.35 66.2107 109.525 66.1489 108.715 65.8851C107.909 65.554 107.254 65.0648 106.75 64.4175C106.319 63.7081 106.314 62.8612 106.734 61.8768C109.088 56.3644 111.53 51.0617 114.06 45.9687C116.659 40.8809 119.08 36.3216 121.322 32.2906C123.569 28.1923 125.593 24.7545 127.395 21.9773C129.196 19.2001 130.548 17.3373 131.45 16.389ZM138.962 41.9403C140.544 42.0587 141.959 42.5709 143.205 43.4767C144.456 44.3153 145.446 45.4052 146.175 46.7465C146.909 48.0204 147.321 49.4394 147.41 51.0037C147.504 52.5006 147.22 53.9693 146.558 55.4096C145.653 57.3058 144.261 58.7931 142.38 59.8713C140.569 60.9548 138.653 61.5902 136.632 61.7776C134.611 61.965 132.698 61.6525 130.891 60.8401C129.158 59.9655 127.95 58.5545 127.267 56.6072C126.574 54.7946 126.399 52.9869 126.743 51.1842C127.161 49.3192 127.907 47.6821 128.983 46.2727C130.058 44.8632 131.457 43.7489 133.179 42.9297C134.97 42.1157 136.898 41.7858 138.962 41.9403ZM134.242 53.5738C135.06 54.6508 136.086 55.2694 137.319 55.4294C138.627 55.5272 139.785 55.3091 140.794 54.7751C141.808 54.1738 142.493 53.3447 142.85 52.2878C143.281 51.1688 143.026 49.9646 142.085 48.6752C141.204 47.5257 140.144 46.9046 138.905 46.812C137.667 46.7193 136.54 46.9736 135.526 47.575C134.581 48.1814 133.893 49.0442 133.462 50.1632C133.101 51.2874 133.361 52.4243 134.242 53.5738Z" fill="#3C475B" fill-opacity="0.15"/>
</g>
<g id="54%_3">
<mask id="path-2-outside-1_35_1545" maskUnits="userSpaceOnUse" x="5.52881" y="2.76636" width="151" height="64" fill="black">
<rect fill="white" x="5.52881" y="2.76636" width="151" height="64"/>
<path d="M38.6801 8.39275C39.2321 8.52781 39.6461 8.96676 39.922 9.70959C40.267 10.4524 40.4395 11.2628 40.4395 12.1407C40.4395 13.0186 40.267 13.7952 39.922 14.4705C39.5771 15.1458 39.0251 15.4497 38.2661 15.3822C37.7832 15.3146 36.9552 15.2471 35.7823 15.1796C34.6094 15.0445 33.2985 14.9432 31.8496 14.8757C30.4007 14.7406 28.8828 14.6393 27.2959 14.5718C25.778 14.5043 24.3636 14.4367 23.0527 14.3692C21.7418 14.3017 20.6379 14.3017 19.741 14.3692C18.913 14.3692 18.499 14.403 18.499 14.4705C18.499 14.6056 18.4645 15.112 18.3955 15.9899C18.3955 16.8678 18.361 17.9483 18.2921 19.2314C18.2921 20.5145 18.2921 21.8989 18.2921 23.3845C18.2921 24.8702 18.2921 26.2546 18.2921 27.5377C18.2921 28.7532 18.2921 29.7999 18.2921 30.6778C18.361 31.5557 18.43 32.0284 18.499 32.096C18.568 32.1635 19.2235 32.1297 20.4654 31.9947C21.7073 31.8596 23.2597 31.7583 25.1226 31.6908C26.9854 31.6233 29.0553 31.657 31.3321 31.7921C33.609 31.9271 35.7823 32.2986 37.8522 32.9063C39.922 33.5141 41.7849 34.4595 43.4408 35.7426C45.0967 36.9582 46.2696 38.6127 46.9595 40.7061C47.9945 44.0151 48.1325 46.9527 47.3735 49.5188C46.6836 52.085 45.3726 54.3135 43.4408 56.2044C41.5089 58.0952 39.1286 59.6484 36.2998 60.864C33.471 62.012 30.4352 62.8561 27.1924 63.3964C24.0187 63.8691 20.7759 64.0379 17.4641 63.9029C14.1523 63.7003 11.1166 63.1938 8.35675 62.3834C7.94278 62.2484 7.7013 61.8094 7.6323 61.0666C7.6323 60.3237 7.77029 59.5809 8.04627 58.8381C8.39125 58.0277 8.80522 57.3524 9.28818 56.8121C9.84015 56.2719 10.4266 56.1368 11.0476 56.407C12.7034 57.0147 14.6353 57.4199 16.8432 57.6225C19.12 57.7576 21.3968 57.69 23.6737 57.4199C26.0195 57.1498 28.2619 56.6771 30.4007 56.0018C32.6085 55.2589 34.4714 54.3135 35.9893 53.1655C37.5762 51.9499 38.7146 50.5318 39.4046 48.9111C40.1635 47.2903 40.267 45.4333 39.715 43.3398C39.3011 41.9892 38.4041 41.0438 37.0242 40.5035C35.7133 39.9633 34.0229 39.7269 31.9531 39.7944C29.8832 39.7944 27.5374 40.0308 24.9156 40.5035C22.2938 40.9762 19.5685 41.5502 16.7397 42.2256C16.3257 42.2931 15.6012 42.3606 14.5663 42.4281C13.6004 42.4281 12.5655 42.3606 11.4615 42.2256C10.4266 42.0905 9.49517 41.8204 8.66723 41.4152C7.90828 41.01 7.52881 40.4022 7.52881 39.5919C7.52881 38.7815 7.52881 37.5322 7.52881 35.8439C7.5978 34.1556 7.6323 32.2986 7.6323 30.2726C7.7013 28.2467 7.73579 26.1533 7.73579 23.9923C7.73579 21.7638 7.73579 19.7041 7.73579 17.8133C7.80479 15.9224 7.83929 14.3017 7.83929 12.9511C7.90828 11.5329 7.94278 10.655 7.94278 10.3174C8.01177 8.96676 8.63273 8.02133 9.80565 7.48108C11.0476 6.87331 12.2205 6.60319 13.3244 6.67072C14.0144 6.67072 15.0838 6.70448 16.5327 6.77202C17.9816 6.83955 19.5685 6.94084 21.2933 7.0759C23.0872 7.14343 24.9156 7.24473 26.7785 7.37979C28.7103 7.51485 30.4697 7.64991 32.0566 7.78497C33.7125 7.8525 35.1269 7.9538 36.2998 8.08886C37.5417 8.22392 38.3351 8.32522 38.6801 8.39275Z"/>
<path d="M72.1883 7.48108C72.6023 6.73825 73.5337 6.16424 74.9826 5.75905C76.5005 5.28634 78.0874 4.98246 79.7433 4.8474C81.3992 4.71233 82.8826 4.7461 84.1935 4.94869C85.5734 5.15128 86.2978 5.55646 86.3668 6.16424L88.0227 39.288L91.8519 38.9841C92.7489 38.9841 93.4043 39.3217 93.8183 39.997C94.2323 40.6048 94.4048 41.2801 94.3358 42.023C94.3358 42.7658 94.1633 43.4749 93.8183 44.1502C93.4733 44.7579 92.9903 45.0618 92.3694 45.0618L88.3332 45.467C88.4712 47.6955 88.5402 49.6539 88.5402 51.3422C88.6092 53.0304 88.6782 54.4486 88.7472 55.5966C88.8161 56.9472 88.8851 58.0952 88.9541 59.0407L91.7484 58.8381C92.1624 58.7705 92.5419 59.0069 92.8869 59.5471C93.2318 60.0198 93.4733 60.5601 93.6113 61.1679C93.7493 61.7756 93.7493 62.3496 93.6113 62.8899C93.4733 63.4301 93.1283 63.7003 92.5764 63.7003L73.5337 64.0041C73.2577 64.0041 73.0163 63.7678 72.8093 63.2951C72.6713 62.8224 72.6023 62.3159 72.6023 61.7756C72.6023 61.2354 72.7058 60.7289 72.9128 60.2562C73.1197 59.7835 73.4647 59.5471 73.9477 59.5471H77.0525L76.535 46.1761C73.2922 46.3111 70.2909 46.48 67.5311 46.6826C66.3582 46.7501 65.1853 46.8176 64.0124 46.8852C62.8395 46.9527 61.77 47.0202 60.8041 47.0877C59.8382 47.1553 58.9757 47.189 58.2168 47.189C57.5268 47.189 57.0439 47.189 56.7679 47.189C56.1469 47.189 55.664 46.8176 55.319 46.0748C54.974 45.2644 54.7325 44.3528 54.5945 43.3398C54.4566 42.3268 54.4221 41.3814 54.4911 40.5035C54.5601 39.5581 54.6635 38.9503 54.8015 38.6802C55.1465 38.0049 55.7675 36.8231 56.6644 35.1348C57.5613 33.4466 58.5963 31.522 59.7692 29.361C61.0111 27.2 62.2875 24.9377 63.5984 22.5742C64.9783 20.2106 66.2547 17.9821 67.4276 15.8886C68.6006 13.7952 69.601 12.0056 70.4289 10.52C71.3259 8.96676 71.9123 7.9538 72.1883 7.48108ZM61.5286 41.01L76.8455 39.8957C76.6385 35.1686 76.4315 30.9142 76.2245 27.1325C76.1555 25.5117 76.0865 23.9248 76.0175 22.3716C75.9485 20.7508 75.8796 19.2989 75.8106 18.0158C75.8106 16.6652 75.7761 15.551 75.7071 14.6731C75.7071 13.7277 75.7071 13.1199 75.7071 12.8498C75.5691 13.1199 75.2586 13.7277 74.7756 14.6731C74.3617 15.6185 73.8097 16.7665 73.1197 18.1171C72.4988 19.4678 71.7398 20.9872 70.8429 22.6755C70.015 24.3637 69.187 26.052 68.3591 27.7402C66.3582 31.7246 64.0814 36.1478 61.5286 41.01Z"/>
<path d="M107.137 16.1925C108.654 15.6523 110.207 15.4159 111.794 15.4835C113.45 15.551 115.002 15.9562 116.451 16.699C117.9 17.4418 119.142 18.5899 120.177 20.1431C121.212 21.6287 121.867 23.5196 122.143 25.8156C122.419 27.8415 122.039 29.7999 121.005 31.6908C119.97 33.5816 118.555 35.1348 116.761 36.3504C115.036 37.5659 113.001 38.3088 110.655 38.5789C108.378 38.7815 106.102 38.1737 103.825 36.7556C102.169 35.7426 100.892 34.2907 99.9955 32.3999C99.1676 30.509 98.8226 28.5168 98.9606 26.4234C99.0986 24.33 99.823 22.3378 101.134 20.4469C102.445 18.5561 104.446 17.138 107.137 16.1925ZM109.103 21.2573C107.93 21.7976 107.137 22.7768 106.723 24.1949C106.378 25.5455 106.412 26.8961 106.826 28.2467C107.309 29.5298 108.137 30.5765 109.31 31.3869C110.483 32.1297 112.035 32.1297 113.967 31.3869C115.692 30.7791 116.692 29.7662 116.968 28.348C117.313 26.9299 117.141 25.5793 116.451 24.2962C115.83 23.0131 114.829 22.0339 113.45 21.3586C112.07 20.6158 110.621 20.582 109.103 21.2573ZM135.39 11.6342C136.218 10.6213 137.149 10.1148 138.184 10.1148C139.219 10.0472 140.151 10.2498 140.979 10.7225C141.876 11.1953 142.531 11.8706 142.945 12.7485C143.428 13.5588 143.497 14.3017 143.152 14.977C141.91 17.273 140.392 20.1768 138.598 23.6884C136.804 27.1325 134.873 30.9479 132.803 35.1348C130.802 39.2542 128.732 43.5762 126.593 48.1007C124.523 52.6253 122.557 57.0147 120.694 61.2692C120.349 62.012 119.763 62.4847 118.935 62.6873C118.107 62.8899 117.279 62.8899 116.451 62.6873C115.623 62.4172 114.933 61.9782 114.381 61.3705C113.898 60.6952 113.829 59.851 114.174 58.8381C116.106 53.1655 118.141 47.6955 120.28 42.4281C122.488 37.1608 124.558 32.4336 126.49 28.2467C128.422 23.9923 130.181 20.4132 131.768 17.5094C133.355 14.6056 134.562 12.6472 135.39 11.6342ZM144.808 36.553C146.395 36.553 147.844 36.9582 149.155 37.7685C150.465 38.5114 151.535 39.5243 152.363 40.8074C153.191 42.023 153.708 43.4073 153.915 44.9605C154.122 46.4462 153.95 47.9319 153.398 49.4176C152.639 51.3759 151.362 52.9629 149.569 54.1785C147.844 55.394 145.981 56.1706 143.98 56.5083C141.979 56.8459 140.047 56.6771 138.184 56.0018C136.39 55.2589 135.08 53.9421 134.252 52.0512C133.424 50.2954 133.113 48.5059 133.32 46.6826C133.596 44.7917 134.217 43.1034 135.183 41.6178C136.149 40.1321 137.46 38.9166 139.116 37.9711C140.841 37.0257 142.738 36.553 144.808 36.553ZM140.979 48.5059C141.876 49.5188 142.945 50.0591 144.187 50.1266C145.498 50.1266 146.636 49.8227 147.602 49.215C148.568 48.5397 149.189 47.6618 149.465 46.5813C149.81 45.4332 149.465 44.2515 148.43 43.0359C147.464 41.9554 146.36 41.4152 145.118 41.4152C143.876 41.4152 142.773 41.7528 141.807 42.4281C140.91 43.1034 140.289 44.0151 139.944 45.1631C139.668 46.3111 140.013 47.4254 140.979 48.5059Z"/>
</mask>
<path d="M38.6801 8.39275C39.2321 8.52781 39.6461 8.96676 39.922 9.70959C40.267 10.4524 40.4395 11.2628 40.4395 12.1407C40.4395 13.0186 40.267 13.7952 39.922 14.4705C39.5771 15.1458 39.0251 15.4497 38.2661 15.3822C37.7832 15.3146 36.9552 15.2471 35.7823 15.1796C34.6094 15.0445 33.2985 14.9432 31.8496 14.8757C30.4007 14.7406 28.8828 14.6393 27.2959 14.5718C25.778 14.5043 24.3636 14.4367 23.0527 14.3692C21.7418 14.3017 20.6379 14.3017 19.741 14.3692C18.913 14.3692 18.499 14.403 18.499 14.4705C18.499 14.6056 18.4645 15.112 18.3955 15.9899C18.3955 16.8678 18.361 17.9483 18.2921 19.2314C18.2921 20.5145 18.2921 21.8989 18.2921 23.3845C18.2921 24.8702 18.2921 26.2546 18.2921 27.5377C18.2921 28.7532 18.2921 29.7999 18.2921 30.6778C18.361 31.5557 18.43 32.0284 18.499 32.096C18.568 32.1635 19.2235 32.1297 20.4654 31.9947C21.7073 31.8596 23.2597 31.7583 25.1226 31.6908C26.9854 31.6233 29.0553 31.657 31.3321 31.7921C33.609 31.9271 35.7823 32.2986 37.8522 32.9063C39.922 33.5141 41.7849 34.4595 43.4408 35.7426C45.0967 36.9582 46.2696 38.6127 46.9595 40.7061C47.9945 44.0151 48.1325 46.9527 47.3735 49.5188C46.6836 52.085 45.3726 54.3135 43.4408 56.2044C41.5089 58.0952 39.1286 59.6484 36.2998 60.864C33.471 62.012 30.4352 62.8561 27.1924 63.3964C24.0187 63.8691 20.7759 64.0379 17.4641 63.9029C14.1523 63.7003 11.1166 63.1938 8.35675 62.3834C7.94278 62.2484 7.7013 61.8094 7.6323 61.0666C7.6323 60.3237 7.77029 59.5809 8.04627 58.8381C8.39125 58.0277 8.80522 57.3524 9.28818 56.8121C9.84015 56.2719 10.4266 56.1368 11.0476 56.407C12.7034 57.0147 14.6353 57.4199 16.8432 57.6225C19.12 57.7576 21.3968 57.69 23.6737 57.4199C26.0195 57.1498 28.2619 56.6771 30.4007 56.0018C32.6085 55.2589 34.4714 54.3135 35.9893 53.1655C37.5762 51.9499 38.7146 50.5318 39.4046 48.9111C40.1635 47.2903 40.267 45.4333 39.715 43.3398C39.3011 41.9892 38.4041 41.0438 37.0242 40.5035C35.7133 39.9633 34.0229 39.7269 31.9531 39.7944C29.8832 39.7944 27.5374 40.0308 24.9156 40.5035C22.2938 40.9762 19.5685 41.5502 16.7397 42.2256C16.3257 42.2931 15.6012 42.3606 14.5663 42.4281C13.6004 42.4281 12.5655 42.3606 11.4615 42.2256C10.4266 42.0905 9.49517 41.8204 8.66723 41.4152C7.90828 41.01 7.52881 40.4022 7.52881 39.5919C7.52881 38.7815 7.52881 37.5322 7.52881 35.8439C7.5978 34.1556 7.6323 32.2986 7.6323 30.2726C7.7013 28.2467 7.73579 26.1533 7.73579 23.9923C7.73579 21.7638 7.73579 19.7041 7.73579 17.8133C7.80479 15.9224 7.83929 14.3017 7.83929 12.9511C7.90828 11.5329 7.94278 10.655 7.94278 10.3174C8.01177 8.96676 8.63273 8.02133 9.80565 7.48108C11.0476 6.87331 12.2205 6.60319 13.3244 6.67072C14.0144 6.67072 15.0838 6.70448 16.5327 6.77202C17.9816 6.83955 19.5685 6.94084 21.2933 7.0759C23.0872 7.14343 24.9156 7.24473 26.7785 7.37979C28.7103 7.51485 30.4697 7.64991 32.0566 7.78497C33.7125 7.8525 35.1269 7.9538 36.2998 8.08886C37.5417 8.22392 38.3351 8.32522 38.6801 8.39275Z" stroke="#3C475B" stroke-width="4" mask="url(#path-2-outside-1_35_1545)"/>
<path d="M72.1883 7.48108C72.6023 6.73825 73.5337 6.16424 74.9826 5.75905C76.5005 5.28634 78.0874 4.98246 79.7433 4.8474C81.3992 4.71233 82.8826 4.7461 84.1935 4.94869C85.5734 5.15128 86.2978 5.55646 86.3668 6.16424L88.0227 39.288L91.8519 38.9841C92.7489 38.9841 93.4043 39.3217 93.8183 39.997C94.2323 40.6048 94.4048 41.2801 94.3358 42.023C94.3358 42.7658 94.1633 43.4749 93.8183 44.1502C93.4733 44.7579 92.9903 45.0618 92.3694 45.0618L88.3332 45.467C88.4712 47.6955 88.5402 49.6539 88.5402 51.3422C88.6092 53.0304 88.6782 54.4486 88.7472 55.5966C88.8161 56.9472 88.8851 58.0952 88.9541 59.0407L91.7484 58.8381C92.1624 58.7705 92.5419 59.0069 92.8869 59.5471C93.2318 60.0198 93.4733 60.5601 93.6113 61.1679C93.7493 61.7756 93.7493 62.3496 93.6113 62.8899C93.4733 63.4301 93.1283 63.7003 92.5764 63.7003L73.5337 64.0041C73.2577 64.0041 73.0163 63.7678 72.8093 63.2951C72.6713 62.8224 72.6023 62.3159 72.6023 61.7756C72.6023 61.2354 72.7058 60.7289 72.9128 60.2562C73.1197 59.7835 73.4647 59.5471 73.9477 59.5471H77.0525L76.535 46.1761C73.2922 46.3111 70.2909 46.48 67.5311 46.6826C66.3582 46.7501 65.1853 46.8176 64.0124 46.8852C62.8395 46.9527 61.77 47.0202 60.8041 47.0877C59.8382 47.1553 58.9757 47.189 58.2168 47.189C57.5268 47.189 57.0439 47.189 56.7679 47.189C56.1469 47.189 55.664 46.8176 55.319 46.0748C54.974 45.2644 54.7325 44.3528 54.5945 43.3398C54.4566 42.3268 54.4221 41.3814 54.4911 40.5035C54.5601 39.5581 54.6635 38.9503 54.8015 38.6802C55.1465 38.0049 55.7675 36.8231 56.6644 35.1348C57.5613 33.4466 58.5963 31.522 59.7692 29.361C61.0111 27.2 62.2875 24.9377 63.5984 22.5742C64.9783 20.2106 66.2547 17.9821 67.4276 15.8886C68.6006 13.7952 69.601 12.0056 70.4289 10.52C71.3259 8.96676 71.9123 7.9538 72.1883 7.48108ZM61.5286 41.01L76.8455 39.8957C76.6385 35.1686 76.4315 30.9142 76.2245 27.1325C76.1555 25.5117 76.0865 23.9248 76.0175 22.3716C75.9485 20.7508 75.8796 19.2989 75.8106 18.0158C75.8106 16.6652 75.7761 15.551 75.7071 14.6731C75.7071 13.7277 75.7071 13.1199 75.7071 12.8498C75.5691 13.1199 75.2586 13.7277 74.7756 14.6731C74.3617 15.6185 73.8097 16.7665 73.1197 18.1171C72.4988 19.4678 71.7398 20.9872 70.8429 22.6755C70.015 24.3637 69.187 26.052 68.3591 27.7402C66.3582 31.7246 64.0814 36.1478 61.5286 41.01Z" stroke="#3C475B" stroke-width="4" mask="url(#path-2-outside-1_35_1545)"/>
<path d="M107.137 16.1925C108.654 15.6523 110.207 15.4159 111.794 15.4835C113.45 15.551 115.002 15.9562 116.451 16.699C117.9 17.4418 119.142 18.5899 120.177 20.1431C121.212 21.6287 121.867 23.5196 122.143 25.8156C122.419 27.8415 122.039 29.7999 121.005 31.6908C119.97 33.5816 118.555 35.1348 116.761 36.3504C115.036 37.5659 113.001 38.3088 110.655 38.5789C108.378 38.7815 106.102 38.1737 103.825 36.7556C102.169 35.7426 100.892 34.2907 99.9955 32.3999C99.1676 30.509 98.8226 28.5168 98.9606 26.4234C99.0986 24.33 99.823 22.3378 101.134 20.4469C102.445 18.5561 104.446 17.138 107.137 16.1925ZM109.103 21.2573C107.93 21.7976 107.137 22.7768 106.723 24.1949C106.378 25.5455 106.412 26.8961 106.826 28.2467C107.309 29.5298 108.137 30.5765 109.31 31.3869C110.483 32.1297 112.035 32.1297 113.967 31.3869C115.692 30.7791 116.692 29.7662 116.968 28.348C117.313 26.9299 117.141 25.5793 116.451 24.2962C115.83 23.0131 114.829 22.0339 113.45 21.3586C112.07 20.6158 110.621 20.582 109.103 21.2573ZM135.39 11.6342C136.218 10.6213 137.149 10.1148 138.184 10.1148C139.219 10.0472 140.151 10.2498 140.979 10.7225C141.876 11.1953 142.531 11.8706 142.945 12.7485C143.428 13.5588 143.497 14.3017 143.152 14.977C141.91 17.273 140.392 20.1768 138.598 23.6884C136.804 27.1325 134.873 30.9479 132.803 35.1348C130.802 39.2542 128.732 43.5762 126.593 48.1007C124.523 52.6253 122.557 57.0147 120.694 61.2692C120.349 62.012 119.763 62.4847 118.935 62.6873C118.107 62.8899 117.279 62.8899 116.451 62.6873C115.623 62.4172 114.933 61.9782 114.381 61.3705C113.898 60.6952 113.829 59.851 114.174 58.8381C116.106 53.1655 118.141 47.6955 120.28 42.4281C122.488 37.1608 124.558 32.4336 126.49 28.2467C128.422 23.9923 130.181 20.4132 131.768 17.5094C133.355 14.6056 134.562 12.6472 135.39 11.6342ZM144.808 36.553C146.395 36.553 147.844 36.9582 149.155 37.7685C150.465 38.5114 151.535 39.5243 152.363 40.8074C153.191 42.023 153.708 43.4073 153.915 44.9605C154.122 46.4462 153.95 47.9319 153.398 49.4176C152.639 51.3759 151.362 52.9629 149.569 54.1785C147.844 55.394 145.981 56.1706 143.98 56.5083C141.979 56.8459 140.047 56.6771 138.184 56.0018C136.39 55.2589 135.08 53.9421 134.252 52.0512C133.424 50.2954 133.113 48.5059 133.32 46.6826C133.596 44.7917 134.217 43.1034 135.183 41.6178C136.149 40.1321 137.46 38.9166 139.116 37.9711C140.841 37.0257 142.738 36.553 144.808 36.553ZM140.979 48.5059C141.876 49.5188 142.945 50.0591 144.187 50.1266C145.498 50.1266 146.636 49.8227 147.602 49.215C148.568 48.5397 149.189 47.6618 149.465 46.5813C149.81 45.4332 149.465 44.2515 148.43 43.0359C147.464 41.9554 146.36 41.4152 145.118 41.4152C143.876 41.4152 142.773 41.7528 141.807 42.4281C140.91 43.1034 140.289 44.0151 139.944 45.1631C139.668 46.3111 140.013 47.4254 140.979 48.5059Z" stroke="#3C475B" stroke-width="4" mask="url(#path-2-outside-1_35_1545)"/>
</g>
</g>
</svg>
