<svg width="150" height="61" viewBox="0 0 150 61" fill="none" xmlns="http://www.w3.org/2000/svg">
<g id="80%">
<g id="80%_2">
<path d="M24.2636 7.32646C27.423 6.69306 30.3297 6.59805 32.9837 7.04143C35.6376 7.42147 37.9124 8.18156 39.8081 9.32168C41.7038 10.4618 43.1571 11.887 44.1682 13.5971C45.2424 15.3073 45.7163 17.1442 45.5899 19.1077C45.4635 20.4379 44.9896 21.673 44.1682 22.8131C43.4099 23.8899 42.5884 24.84 41.7038 25.6635C40.6296 26.6136 39.429 27.4687 38.102 28.2287C39.6185 28.2287 41.1667 28.3554 42.7464 28.6088C44.3261 28.7988 45.7795 29.1788 47.1065 29.7489C48.4334 30.2556 49.6024 30.9524 50.6135 31.8391C51.6245 32.7259 52.3828 33.866 52.8883 35.2595C53.7097 37.5397 53.6465 39.82 52.6987 42.1002C51.8141 44.3172 50.3607 46.4391 48.3387 48.4659C46.3798 50.4928 43.947 52.3614 41.0403 54.0715C38.1968 55.7184 35.1953 57.1119 32.0358 58.252C28.8764 59.3288 25.7169 60.0889 22.5575 60.5322C19.398 60.9756 16.4913 60.9756 13.8374 60.5322C11.2466 60.0255 9.06658 59.0438 7.29728 57.5869C5.52799 56.0668 4.42217 53.9132 3.97985 51.1262C3.60072 48.3393 3.79028 45.869 4.54855 43.7154C5.30682 41.4985 6.19147 39.63 7.2025 38.1098C8.27671 36.5896 9.28774 35.4179 10.2356 34.5944C11.1834 33.771 11.6573 33.3593 11.6573 33.3593C11.6573 33.3593 11.4046 33.2009 10.8991 32.8842C10.3936 32.5675 9.79325 32.0925 9.09817 31.4591C8.46628 30.7623 7.83439 29.9389 7.2025 28.9888C6.6338 27.9754 6.25466 26.8036 6.06509 25.4734C5.74915 23.6366 5.93871 21.7997 6.6338 19.9628C7.39207 18.0626 8.56107 16.2891 10.1408 14.6423C11.7205 12.9321 13.6794 11.4436 16.0174 10.1768C18.4186 8.90997 21.1673 7.95987 24.2636 7.32646ZM25.2114 12.172C23.5053 12.552 22.1151 13.1538 21.0409 13.9772C20.0299 14.7373 19.2716 15.624 18.7661 16.6375C18.2606 17.6509 17.9447 18.7277 17.8183 19.8678C17.6919 20.9446 17.6919 21.9581 17.8183 22.9082C17.9447 24.4917 18.5134 25.6635 19.5244 26.4235C20.5986 27.1203 21.894 27.532 23.4105 27.6587C24.9271 27.7854 26.5384 27.627 28.2445 27.1836C29.9506 26.7402 31.5619 26.1385 33.0785 25.3784C34.6582 24.555 35.9852 23.6049 37.0594 22.5281C38.1968 21.4513 38.9235 20.3112 39.2394 19.1077C39.4922 17.9676 39.3342 16.8908 38.7655 15.8774C38.26 14.8006 37.3753 13.9138 36.1115 13.2171C34.8478 12.457 33.268 11.982 31.3724 11.792C29.5399 11.5386 27.4862 11.6653 25.2114 12.172ZM46.5378 38.6799C46.1586 37.033 45.0212 35.8296 43.1255 35.0695C41.2299 34.3094 39.0182 33.961 36.4907 34.0244C33.9631 34.0244 31.3092 34.3727 28.5288 35.0695C25.7485 35.7662 23.2841 36.7797 21.1357 38.1098C18.9873 39.3766 17.3444 40.9285 16.207 42.7653C15.1327 44.6022 14.9748 46.6607 15.733 48.941C16.3649 50.9045 17.6287 52.2347 19.5244 52.9314C21.4201 53.5648 23.5685 53.7865 25.9697 53.5965C28.3709 53.3431 30.8668 52.7414 33.4576 51.7913C36.0484 50.8412 38.3864 49.6694 40.4716 48.2759C42.5568 46.8191 44.1682 45.2673 45.3056 43.6204C46.5062 41.9102 46.9169 40.2634 46.5378 38.6799Z" fill="#3C475B" fill-opacity="0.15"/>
<path d="M74.8152 7.32646C77.5323 7.19978 80.0599 7.95987 82.3979 9.60671C84.7359 11.1902 86.7895 13.3121 88.5588 15.9724C90.3281 18.6327 91.7815 21.673 92.9189 25.0934C94.1195 28.4504 94.8777 31.8075 95.1937 35.1645C95.5728 38.5215 95.5412 41.6569 95.0989 44.5705C94.6566 47.4842 93.8035 50.0494 92.5397 52.2663C91.3391 54.4833 89.6646 56.3518 87.5162 57.872C85.3678 59.3288 82.777 60.2789 79.7439 60.7223C73.8041 61.6724 68.907 60.1839 65.0524 56.2568C61.1979 52.3297 58.8599 46.3757 58.0384 38.3948C57.5329 33.2643 57.6277 28.7988 58.3228 24.9984C59.0179 21.1346 60.1237 17.936 61.6402 15.4023C63.2199 12.8054 65.1472 10.8735 67.422 9.60671C69.6968 8.27657 72.1612 7.51648 74.8152 7.32646ZM75.1943 13.5971C73.7409 13.7872 72.5088 14.6739 71.4977 16.2574C70.4867 17.7776 69.6968 19.7095 69.1281 22.0531C68.6226 24.3967 68.3383 27.0253 68.2751 29.9389C68.2119 32.7892 68.4015 35.6079 68.8438 38.3948C69.7284 44.0321 71.1818 48.2126 73.2038 50.9362C75.2891 53.6598 77.6903 54.7683 80.4074 54.2616C82.0503 54.0082 83.5037 53.3115 84.7675 52.1713C86.0944 50.9679 87.1371 49.4794 87.8953 47.7059C88.7168 45.9323 89.2223 43.9054 89.4119 41.6252C89.6646 39.3449 89.6014 36.938 89.2223 34.4044C88.7168 31.4908 88.0533 28.7038 87.2318 26.0435C86.4104 23.3832 85.3994 21.103 84.1988 19.2028C83.0614 17.2392 81.7344 15.7507 80.2178 14.7373C78.7013 13.7238 77.0268 13.3438 75.1943 13.5971Z" fill="#3C475B" fill-opacity="0.15"/>
<path d="M107.08 16.2574C108.47 15.7507 109.892 15.529 111.345 15.5924C112.862 15.6557 114.284 16.0357 115.611 16.7325C116.938 17.4292 118.075 18.506 119.023 19.9628C119.971 21.3563 120.571 23.1298 120.824 25.2834C121.077 27.1836 120.729 29.0205 119.781 30.794C118.833 32.5675 117.538 34.0244 115.895 35.1645C114.315 36.3046 112.451 37.0014 110.303 37.2547C108.218 37.4447 106.132 36.8747 104.047 35.5445C102.531 34.5944 101.362 33.2326 100.54 31.4591C99.7818 29.6856 99.4659 27.817 99.5922 25.8535C99.7186 23.8899 100.382 22.0214 101.583 20.2479C102.783 18.4743 104.616 17.1442 107.08 16.2574ZM108.881 21.0079C107.807 21.5147 107.08 22.4331 106.701 23.7633C106.385 25.0301 106.417 26.2969 106.796 27.5637C107.238 28.7671 107.996 29.7489 109.071 30.509C110.145 31.2057 111.567 31.2057 113.336 30.509C114.916 29.9389 115.832 28.9888 116.085 27.6587C116.401 26.3285 116.243 25.0617 115.611 23.8583C115.042 22.6548 114.126 21.7364 112.862 21.103C111.598 20.4062 110.271 20.3745 108.881 21.0079ZM132.956 11.982C133.714 11.0319 134.567 10.5568 135.515 10.5568C136.463 10.4935 137.316 10.6835 138.074 11.1269C138.896 11.5703 139.496 12.2037 139.875 13.0271C140.318 13.7872 140.381 14.4839 140.065 15.1173C138.927 17.2709 137.537 19.9945 135.894 23.2882C134.251 26.5186 132.482 30.0973 130.587 34.0244C128.754 37.8881 126.858 41.9419 124.899 46.1857C123.004 50.4295 121.203 54.5466 119.497 58.537C119.181 59.2338 118.644 59.6772 117.885 59.8672C117.127 60.0572 116.369 60.0572 115.611 59.8672C114.852 59.6138 114.221 59.2021 113.715 58.632C113.273 57.9986 113.209 57.2069 113.525 56.2568C115.295 50.9362 117.159 45.8056 119.118 40.8651C121.14 35.9246 123.035 31.4908 124.805 27.5637C126.574 23.5732 128.185 20.2162 129.639 17.4926C131.092 14.7689 132.198 12.9321 132.956 11.982ZM141.581 35.3545C143.035 35.3545 144.362 35.7346 145.562 36.4946C146.763 37.1914 147.742 38.1415 148.501 39.3449C149.259 40.4851 149.733 41.7835 149.922 43.2404C150.112 44.6339 149.954 46.0273 149.448 47.4208C148.753 49.2577 147.584 50.7462 145.941 51.8863C144.362 53.0264 142.656 53.7548 140.823 54.0715C138.991 54.3882 137.221 54.2299 135.515 53.5965C133.872 52.8998 132.672 51.6646 131.913 49.8911C131.155 48.2442 130.871 46.5657 131.06 44.8555C131.313 43.082 131.882 41.4985 132.767 40.105C133.651 38.7115 134.852 37.5714 136.368 36.6847C137.948 35.7979 139.686 35.3545 141.581 35.3545ZM138.074 46.5657C138.896 47.5158 139.875 48.0226 141.013 48.0859C142.213 48.0859 143.256 47.8009 144.141 47.2308C145.025 46.5974 145.594 45.774 145.847 44.7605C146.163 43.6837 145.847 42.5753 144.899 41.4352C144.014 40.4217 143.003 39.915 141.866 39.915C140.728 39.915 139.717 40.2317 138.833 40.8651C138.011 41.4985 137.443 42.3536 137.127 43.4304C136.874 44.5072 137.19 45.5523 138.074 46.5657Z" fill="#3C475B" fill-opacity="0.15"/>
</g>
<g id="80%_3">
<mask id="path-2-outside-1_35_1546" maskUnits="userSpaceOnUse" x="0" y="0" width="144" height="56" fill="black">
<rect fill="white" width="144" height="56"/>
<path d="M21.5541 2.53432C24.5717 1.92876 27.3479 1.83792 29.8827 2.26182C32.4175 2.62515 34.5901 3.35182 36.4007 4.44183C38.2113 5.53184 39.5994 6.89435 40.565 8.52937C41.591 10.1644 42.0436 11.9205 41.9229 13.7977C41.8022 15.0694 41.3496 16.2503 40.565 17.3403C39.8408 18.3697 39.0562 19.2781 38.2113 20.0653C37.1853 20.9736 36.0386 21.7911 34.7712 22.5178C36.2197 22.5178 37.6983 22.6389 39.2071 22.8811C40.7159 23.0628 42.104 23.4262 43.3714 23.9712C44.6388 24.4556 45.7553 25.1217 46.7209 25.9695C47.6866 26.8173 48.4108 27.9073 48.8936 29.2395C49.6782 31.4195 49.6178 33.5996 48.7125 35.7796C47.8676 37.899 46.4795 39.9277 44.5482 41.8655C42.6773 43.8033 40.3538 45.5897 37.5776 47.2247C34.8617 48.7991 31.995 50.1314 28.9774 51.2214C25.9598 52.2508 22.9422 52.9775 19.9246 53.4014C16.907 53.8253 14.1308 53.8253 11.596 53.4014C9.12155 52.9169 7.0394 51.9783 5.34954 50.5855C3.65968 49.1322 2.60352 47.0733 2.18106 44.4088C1.81894 41.7444 2 39.3827 2.72423 37.3238C3.44845 35.2043 4.29338 33.4179 5.25901 31.9646C6.285 30.5112 7.25063 29.3909 8.15592 28.6037C9.0612 27.8165 9.51384 27.4229 9.51384 27.4229C9.51384 27.4229 9.27243 27.2715 8.78961 26.9687C8.3068 26.6659 7.73345 26.2117 7.06958 25.6062C6.46606 24.9401 5.86254 24.1528 5.25901 23.2445C4.71584 22.2756 4.35373 21.1553 4.17268 19.8836C3.87092 18.1275 4.05197 16.3714 4.71584 14.6152C5.44007 12.7986 6.55658 11.103 8.06539 9.52854C9.57419 7.89353 11.4451 6.47046 13.6781 5.25934C15.9715 4.04822 18.5968 3.13988 21.5541 2.53432ZM22.4594 7.16685C20.8299 7.53019 19.5021 8.10548 18.4761 8.8927C17.5105 9.61937 16.7863 10.4672 16.3035 11.4361C15.8206 12.405 15.5189 13.4344 15.3982 14.5244C15.2775 15.5539 15.2775 16.5228 15.3982 17.4311C15.5189 18.945 16.062 20.0653 17.0277 20.792C18.0537 21.4581 19.2909 21.8517 20.7393 21.9728C22.1878 22.0939 23.7268 21.9425 25.3563 21.5186C26.9858 21.0947 28.5248 20.5195 29.9732 19.7928C31.482 19.0056 32.7494 18.0972 33.7754 17.0678C34.8617 16.0383 35.5558 14.9483 35.8575 13.7977C36.0989 12.7077 35.9481 11.6783 35.4049 10.7094C34.9221 9.67993 34.0771 8.83215 32.8701 8.16603C31.6631 7.43936 30.1543 6.98519 28.3437 6.80352C26.5935 6.5613 24.632 6.68241 22.4594 7.16685ZM42.8282 32.5096C42.4661 30.9351 41.3798 29.7845 39.5692 29.0579C37.7586 28.3312 35.6463 27.9981 33.2322 28.0587C30.8181 28.0587 28.2833 28.3917 25.6279 29.0579C22.9724 29.724 20.6186 30.6929 18.5667 31.9646C16.5147 33.1757 14.9455 34.6593 13.8592 36.4154C12.8332 38.1715 12.6823 40.1396 13.4066 42.3196C14.0101 44.1969 15.2171 45.4685 17.0277 46.1347C18.8382 46.7402 20.8902 46.9522 23.1836 46.7705C25.477 46.5283 27.8609 45.953 30.3353 45.0447C32.8098 44.1363 35.0428 43.016 37.0344 41.6838C39.026 40.291 40.565 38.8074 41.6513 37.2329C42.798 35.5979 43.1903 34.0235 42.8282 32.5096Z"/>
<path d="M69.836 2.53432C72.4312 2.41321 74.8452 3.13988 77.0783 4.71434C79.3113 6.22824 81.2727 8.25686 82.9626 10.8002C84.6525 13.3436 86.0406 16.2503 87.1269 19.5203C88.2736 22.7298 88.9978 25.9392 89.2996 29.1487C89.6617 32.3582 89.6315 35.3557 89.209 38.1413C88.7866 40.9268 87.9718 43.3794 86.7648 45.4988C85.6181 47.6183 84.0188 49.4047 81.9668 50.858C79.9148 52.2508 77.4404 53.1592 74.5435 53.5831C68.8704 54.4914 64.1931 53.0683 60.5116 49.3139C56.8301 45.5594 54.5971 39.8671 53.8125 32.2371C53.3297 27.332 53.4202 23.0628 54.0841 19.4295C54.748 15.7355 55.8041 12.6775 57.2526 10.2552C58.7614 7.77242 60.6021 5.92546 62.7748 4.71434C64.9475 3.44266 67.3012 2.71599 69.836 2.53432ZM70.1981 8.52937C68.81 8.71103 67.6332 9.55882 66.6675 11.0727C65.7019 12.5261 64.9475 14.373 64.4043 16.6136C63.9215 18.8542 63.6499 21.3672 63.5896 24.1528C63.5292 26.8778 63.7103 29.5726 64.1327 32.2371C64.9777 37.6265 66.3658 41.6232 68.297 44.2272C70.2887 46.8311 72.582 47.8908 75.1772 47.4063C76.7463 47.1641 78.1344 46.498 79.3415 45.408C80.6089 44.2574 81.6047 42.8344 82.3289 41.1388C83.1135 39.4432 83.5963 37.5054 83.7773 35.3254C84.0188 33.1454 83.9584 30.8443 83.5963 28.422C83.1135 25.6364 82.4798 22.972 81.6952 20.4286C80.9106 17.8853 79.945 15.7053 78.7983 13.8886C77.712 12.0113 76.4446 10.5883 74.9961 9.61938C73.5477 8.65048 71.9483 8.28714 70.1981 8.52937Z"/>
<path d="M100.652 11.0727C101.98 10.5883 103.338 10.3763 104.726 10.4369C106.175 10.4974 107.533 10.8608 108.8 11.5269C110.067 12.193 111.154 13.2225 112.059 14.6152C112.964 15.9475 113.538 17.643 113.779 19.702C114.02 21.5186 113.688 23.2748 112.783 24.9703C111.878 26.6659 110.641 28.0587 109.071 29.1487C107.563 30.2387 105.782 30.9048 103.73 31.147C101.739 31.3287 99.7471 30.7837 97.7555 29.512C96.307 28.6037 95.1905 27.3017 94.4059 25.6062C93.6817 23.9106 93.3799 22.1242 93.5006 20.247C93.6213 18.3697 94.255 16.5833 95.4017 14.8878C96.5484 13.1922 98.2986 11.9205 100.652 11.0727ZM102.372 15.6144C101.346 16.0989 100.652 16.9769 100.29 18.2486C99.9885 19.4597 100.019 20.6709 100.381 21.882C100.803 23.0325 101.527 23.9712 102.553 24.6978C103.579 25.3639 104.937 25.3639 106.627 24.6978C108.136 24.1528 109.011 23.2445 109.253 21.9728C109.554 20.7011 109.403 19.49 108.8 18.3394C108.257 17.1889 107.382 16.3108 106.175 15.7053C104.968 15.0391 103.7 15.0089 102.372 15.6144ZM125.367 6.98519C126.091 6.07685 126.906 5.62268 127.811 5.62268C128.716 5.56212 129.531 5.74379 130.255 6.16768C131.04 6.59157 131.613 7.19713 131.975 7.98436C132.398 8.71103 132.458 9.37715 132.156 9.98271C131.07 12.0416 129.742 14.6455 128.173 17.7944C126.604 20.8828 124.914 24.3042 123.103 28.0587C121.353 31.7526 119.543 35.6282 117.672 39.6854C115.861 43.7427 114.141 47.6788 112.512 51.4939C112.21 52.16 111.697 52.5839 110.973 52.7656C110.248 52.9472 109.524 52.9472 108.8 52.7656C108.076 52.5233 107.472 52.1297 106.989 51.5847C106.567 50.9791 106.507 50.2222 106.808 49.3139C108.498 44.2271 110.279 39.3221 112.149 34.5987C114.081 29.8754 115.891 25.6364 117.581 21.882C119.271 18.0669 120.81 14.8575 122.198 12.2536C123.586 9.64965 124.642 7.89353 125.367 6.98519ZM133.605 29.3304C134.993 29.3304 136.26 29.6937 137.407 30.4204C138.554 31.0865 139.489 31.9948 140.213 33.1454C140.937 34.2354 141.39 35.4768 141.571 36.8696C141.752 38.2018 141.601 39.5341 141.118 40.8663C140.455 42.6224 139.338 44.0455 137.769 45.1355C136.26 46.2255 134.631 46.9219 132.88 47.2247C131.13 47.5275 129.44 47.3761 127.811 46.7705C126.242 46.1044 125.095 44.9235 124.371 43.228C123.647 41.6535 123.375 40.0488 123.556 38.4138C123.797 36.7182 124.341 35.2043 125.186 33.8721C126.03 32.5398 127.177 31.4498 128.626 30.602C130.134 29.7543 131.794 29.3304 133.605 29.3304ZM130.255 40.0488C131.04 40.9571 131.975 41.4416 133.061 41.5021C134.208 41.5021 135.204 41.2296 136.049 40.6846C136.894 40.0791 137.437 39.2918 137.678 38.3229C137.98 37.2935 137.678 36.2338 136.773 35.1437C135.928 34.1749 134.963 33.6904 133.876 33.6904C132.79 33.6904 131.824 33.9932 130.979 34.5987C130.195 35.2043 129.652 36.0218 129.35 37.0513C129.108 38.0807 129.41 39.0799 130.255 40.0488Z"/>
</mask>
<path d="M21.5541 2.53432C24.5717 1.92876 27.3479 1.83792 29.8827 2.26182C32.4175 2.62515 34.5901 3.35182 36.4007 4.44183C38.2113 5.53184 39.5994 6.89435 40.565 8.52937C41.591 10.1644 42.0436 11.9205 41.9229 13.7977C41.8022 15.0694 41.3496 16.2503 40.565 17.3403C39.8408 18.3697 39.0562 19.2781 38.2113 20.0653C37.1853 20.9736 36.0386 21.7911 34.7712 22.5178C36.2197 22.5178 37.6983 22.6389 39.2071 22.8811C40.7159 23.0628 42.104 23.4262 43.3714 23.9712C44.6388 24.4556 45.7553 25.1217 46.7209 25.9695C47.6866 26.8173 48.4108 27.9073 48.8936 29.2395C49.6782 31.4195 49.6178 33.5996 48.7125 35.7796C47.8676 37.899 46.4795 39.9277 44.5482 41.8655C42.6773 43.8033 40.3538 45.5897 37.5776 47.2247C34.8617 48.7991 31.995 50.1314 28.9774 51.2214C25.9598 52.2508 22.9422 52.9775 19.9246 53.4014C16.907 53.8253 14.1308 53.8253 11.596 53.4014C9.12155 52.9169 7.0394 51.9783 5.34954 50.5855C3.65968 49.1322 2.60352 47.0733 2.18106 44.4088C1.81894 41.7444 2 39.3827 2.72423 37.3238C3.44845 35.2043 4.29338 33.4179 5.25901 31.9646C6.285 30.5112 7.25063 29.3909 8.15592 28.6037C9.0612 27.8165 9.51384 27.4229 9.51384 27.4229C9.51384 27.4229 9.27243 27.2715 8.78961 26.9687C8.3068 26.6659 7.73345 26.2117 7.06958 25.6062C6.46606 24.9401 5.86254 24.1528 5.25901 23.2445C4.71584 22.2756 4.35373 21.1553 4.17268 19.8836C3.87092 18.1275 4.05197 16.3714 4.71584 14.6152C5.44007 12.7986 6.55658 11.103 8.06539 9.52854C9.57419 7.89353 11.4451 6.47046 13.6781 5.25934C15.9715 4.04822 18.5968 3.13988 21.5541 2.53432ZM22.4594 7.16685C20.8299 7.53019 19.5021 8.10548 18.4761 8.8927C17.5105 9.61937 16.7863 10.4672 16.3035 11.4361C15.8206 12.405 15.5189 13.4344 15.3982 14.5244C15.2775 15.5539 15.2775 16.5228 15.3982 17.4311C15.5189 18.945 16.062 20.0653 17.0277 20.792C18.0537 21.4581 19.2909 21.8517 20.7393 21.9728C22.1878 22.0939 23.7268 21.9425 25.3563 21.5186C26.9858 21.0947 28.5248 20.5195 29.9732 19.7928C31.482 19.0056 32.7494 18.0972 33.7754 17.0678C34.8617 16.0383 35.5558 14.9483 35.8575 13.7977C36.0989 12.7077 35.9481 11.6783 35.4049 10.7094C34.9221 9.67993 34.0771 8.83215 32.8701 8.16603C31.6631 7.43936 30.1543 6.98519 28.3437 6.80352C26.5935 6.5613 24.632 6.68241 22.4594 7.16685ZM42.8282 32.5096C42.4661 30.9351 41.3798 29.7845 39.5692 29.0579C37.7586 28.3312 35.6463 27.9981 33.2322 28.0587C30.8181 28.0587 28.2833 28.3917 25.6279 29.0579C22.9724 29.724 20.6186 30.6929 18.5667 31.9646C16.5147 33.1757 14.9455 34.6593 13.8592 36.4154C12.8332 38.1715 12.6823 40.1396 13.4066 42.3196C14.0101 44.1969 15.2171 45.4685 17.0277 46.1347C18.8382 46.7402 20.8902 46.9522 23.1836 46.7705C25.477 46.5283 27.8609 45.953 30.3353 45.0447C32.8098 44.1363 35.0428 43.016 37.0344 41.6838C39.026 40.291 40.565 38.8074 41.6513 37.2329C42.798 35.5979 43.1903 34.0235 42.8282 32.5096Z" stroke="#3C475B" stroke-width="4" mask="url(#path-2-outside-1_35_1546)"/>
<path d="M69.836 2.53432C72.4312 2.41321 74.8452 3.13988 77.0783 4.71434C79.3113 6.22824 81.2727 8.25686 82.9626 10.8002C84.6525 13.3436 86.0406 16.2503 87.1269 19.5203C88.2736 22.7298 88.9978 25.9392 89.2996 29.1487C89.6617 32.3582 89.6315 35.3557 89.209 38.1413C88.7866 40.9268 87.9718 43.3794 86.7648 45.4988C85.6181 47.6183 84.0188 49.4047 81.9668 50.858C79.9148 52.2508 77.4404 53.1592 74.5435 53.5831C68.8704 54.4914 64.1931 53.0683 60.5116 49.3139C56.8301 45.5594 54.5971 39.8671 53.8125 32.2371C53.3297 27.332 53.4202 23.0628 54.0841 19.4295C54.748 15.7355 55.8041 12.6775 57.2526 10.2552C58.7614 7.77242 60.6021 5.92546 62.7748 4.71434C64.9475 3.44266 67.3012 2.71599 69.836 2.53432ZM70.1981 8.52937C68.81 8.71103 67.6332 9.55882 66.6675 11.0727C65.7019 12.5261 64.9475 14.373 64.4043 16.6136C63.9215 18.8542 63.6499 21.3672 63.5896 24.1528C63.5292 26.8778 63.7103 29.5726 64.1327 32.2371C64.9777 37.6265 66.3658 41.6232 68.297 44.2272C70.2887 46.8311 72.582 47.8908 75.1772 47.4063C76.7463 47.1641 78.1344 46.498 79.3415 45.408C80.6089 44.2574 81.6047 42.8344 82.3289 41.1388C83.1135 39.4432 83.5963 37.5054 83.7773 35.3254C84.0188 33.1454 83.9584 30.8443 83.5963 28.422C83.1135 25.6364 82.4798 22.972 81.6952 20.4286C80.9106 17.8853 79.945 15.7053 78.7983 13.8886C77.712 12.0113 76.4446 10.5883 74.9961 9.61938C73.5477 8.65048 71.9483 8.28714 70.1981 8.52937Z" stroke="#3C475B" stroke-width="4" mask="url(#path-2-outside-1_35_1546)"/>
<path d="M100.652 11.0727C101.98 10.5883 103.338 10.3763 104.726 10.4369C106.175 10.4974 107.533 10.8608 108.8 11.5269C110.067 12.193 111.154 13.2225 112.059 14.6152C112.964 15.9475 113.538 17.643 113.779 19.702C114.02 21.5186 113.688 23.2748 112.783 24.9703C111.878 26.6659 110.641 28.0587 109.071 29.1487C107.563 30.2387 105.782 30.9048 103.73 31.147C101.739 31.3287 99.7471 30.7837 97.7555 29.512C96.307 28.6037 95.1905 27.3017 94.4059 25.6062C93.6817 23.9106 93.3799 22.1242 93.5006 20.247C93.6213 18.3697 94.255 16.5833 95.4017 14.8878C96.5484 13.1922 98.2986 11.9205 100.652 11.0727ZM102.372 15.6144C101.346 16.0989 100.652 16.9769 100.29 18.2486C99.9885 19.4597 100.019 20.6709 100.381 21.882C100.803 23.0325 101.527 23.9712 102.553 24.6978C103.579 25.3639 104.937 25.3639 106.627 24.6978C108.136 24.1528 109.011 23.2445 109.253 21.9728C109.554 20.7011 109.403 19.49 108.8 18.3394C108.257 17.1889 107.382 16.3108 106.175 15.7053C104.968 15.0391 103.7 15.0089 102.372 15.6144ZM125.367 6.98519C126.091 6.07685 126.906 5.62268 127.811 5.62268C128.716 5.56212 129.531 5.74379 130.255 6.16768C131.04 6.59157 131.613 7.19713 131.975 7.98436C132.398 8.71103 132.458 9.37715 132.156 9.98271C131.07 12.0416 129.742 14.6455 128.173 17.7944C126.604 20.8828 124.914 24.3042 123.103 28.0587C121.353 31.7526 119.543 35.6282 117.672 39.6854C115.861 43.7427 114.141 47.6788 112.512 51.4939C112.21 52.16 111.697 52.5839 110.973 52.7656C110.248 52.9472 109.524 52.9472 108.8 52.7656C108.076 52.5233 107.472 52.1297 106.989 51.5847C106.567 50.9791 106.507 50.2222 106.808 49.3139C108.498 44.2271 110.279 39.3221 112.149 34.5987C114.081 29.8754 115.891 25.6364 117.581 21.882C119.271 18.0669 120.81 14.8575 122.198 12.2536C123.586 9.64965 124.642 7.89353 125.367 6.98519ZM133.605 29.3304C134.993 29.3304 136.26 29.6937 137.407 30.4204C138.554 31.0865 139.489 31.9948 140.213 33.1454C140.937 34.2354 141.39 35.4768 141.571 36.8696C141.752 38.2018 141.601 39.5341 141.118 40.8663C140.455 42.6224 139.338 44.0455 137.769 45.1355C136.26 46.2255 134.631 46.9219 132.88 47.2247C131.13 47.5275 129.44 47.3761 127.811 46.7705C126.242 46.1044 125.095 44.9235 124.371 43.228C123.647 41.6535 123.375 40.0488 123.556 38.4138C123.797 36.7182 124.341 35.2043 125.186 33.8721C126.03 32.5398 127.177 31.4498 128.626 30.602C130.134 29.7543 131.794 29.3304 133.605 29.3304ZM130.255 40.0488C131.04 40.9571 131.975 41.4416 133.061 41.5021C134.208 41.5021 135.204 41.2296 136.049 40.6846C136.894 40.0791 137.437 39.2918 137.678 38.3229C137.98 37.2935 137.678 36.2338 136.773 35.1437C135.928 34.1749 134.963 33.6904 133.876 33.6904C132.79 33.6904 131.824 33.9932 130.979 34.5987C130.195 35.2043 129.652 36.0218 129.35 37.0513C129.108 38.0807 129.41 39.0799 130.255 40.0488Z" stroke="#3C475B" stroke-width="4" mask="url(#path-2-outside-1_35_1546)"/>
</g>
</g>
</svg>
