<svg width="33" height="33" viewBox="0 0 33 33" fill="none" xmlns="http://www.w3.org/2000/svg">
<g id="brand-instagram" clip-path="url(#clip0_6_1303)">
<path id="Vector" d="M22 5.5H11C7.96243 5.5 5.5 7.96243 5.5 11V22C5.5 25.0376 7.96243 27.5 11 27.5H22C25.0376 27.5 27.5 25.0376 27.5 22V11C27.5 7.96243 25.0376 5.5 22 5.5Z" stroke="#00CFB5" stroke-width="2" stroke-linecap="round" stroke-linejoin="round"/>
<path id="Vector_2" d="M16.5 20.625C18.7782 20.625 20.625 18.7782 20.625 16.5C20.625 14.2218 18.7782 12.375 16.5 12.375C14.2218 12.375 12.375 14.2218 12.375 16.5C12.375 18.7782 14.2218 20.625 16.5 20.625Z" stroke="#00CFB5" stroke-width="2" stroke-linecap="round" stroke-linejoin="round"/>
<path id="Vector_3" d="M22.6875 10.3125V10.3135" stroke="#00CFB5" stroke-width="2" stroke-linecap="round" stroke-linejoin="round"/>
</g>
<defs>
<clipPath id="clip0_6_1303">
<rect width="33" height="33" fill="white"/>
</clipPath>
</defs>
</svg>
