<svg width="113" height="88" viewBox="0 0 113 88" fill="none" xmlns="http://www.w3.org/2000/svg">
<g id="icon_salad" clip-path="url(#clip0_6_3588)">
<g id="Home">
<g id="Como-funciona">
<g id="Group">
<g id="Icon-men&#195;&#186;">
<path id="Fill-1" fill-rule="evenodd" clip-rule="evenodd" d="M40.7786 45.4778C30.8546 24.8068 43.9846 26.8528 43.9846 26.8528C47.8006 12.5008 57.9846 24.8068 57.9846 24.8068C57.9846 24.8068 60.3206 22.2718 62.6106 21.8138C64.9006 21.3558 67.4955 23.3408 67.0375 24.8068C66.5795 26.2728 65.2055 49.8998 65.2055 49.8998C61.6945 49.8948 43.9846 49.8998 43.9846 49.8998L40.7786 45.4778Z" fill="#F2F3F5"/>
<path id="Fill-3" fill-rule="evenodd" clip-rule="evenodd" d="M72.1203 49.8997C72.1203 49.8997 67.5853 22.8827 72.1203 16.3177C76.6553 9.75369 83.9833 16.3177 83.9833 16.3177C83.9833 16.3177 88.8693 8.07369 95.5873 11.8907C102.304 15.7077 99.0983 23.4937 99.0983 23.4937C99.0983 23.4937 106.912 21.6617 108.119 28.9897C109.327 36.3177 93.4493 49.8997 93.4493 49.8997H72.1203Z" fill="#F2F3F5"/>
<path id="Stroke-5" d="M41.0748 45.4272C41.0748 45.4272 31.5218 48.1562 33.3538 49.6832C35.1858 51.2092 69.9938 55.1792 92.8948 51.8212C92.8948 51.8212 117.694 49.5542 110.605 46.0192C106.036 43.7412 104.066 45.6832 104.066 45.6832" stroke="#3F444C" stroke-width="1.54" stroke-linecap="round" stroke-linejoin="round"/>
<path id="Stroke-7" d="M33.104 53.1321C33.104 53.1321 35.186 74.7211 57.17 81.1331C57.17 81.1331 70.605 81.7751 81.292 81.4701" stroke="#3F444C" stroke-width="1.54" stroke-linecap="round" stroke-linejoin="round"/>
<path id="Stroke-9" d="M111.792 47.605C111.792 47.605 110.605 74.721 89.5362 80.522V86.324H57.1982L57.1702 81.133" stroke="#3F444C" stroke-width="1.54" stroke-linecap="round" stroke-linejoin="round"/>
<path id="Stroke-11" d="M45.2882 51.7455C45.2882 51.7455 35.9492 40.5225 39.9182 35.4845C39.9182 35.4845 42.0562 32.5835 46.3302 33.3475C46.3302 33.3475 45.2622 24.4925 50.6052 23.7295C55.9492 22.9655 59.6132 29.6835 59.6132 29.6835C59.6132 29.6835 64.3462 25.7135 67.7042 27.5455C71.0622 29.3775 71.2162 32.2785 71.2162 32.2785" stroke="#3F444C" stroke-width="1.54" stroke-linecap="round" stroke-linejoin="round"/>
<path id="Stroke-13" d="M73.05 53.1273C73.05 53.1273 69.536 45.5003 70.605 37.1333C71.674 28.7673 74.422 18.9963 78.544 17.3163C82.666 15.6373 85.567 21.4393 85.567 21.4393C85.567 21.4393 90.452 13.1953 98.238 17.0123C106.025 20.8283 100.833 28.6143 100.833 28.6143C100.833 28.6143 106.787 28.6143 108.161 31.5153C109.535 34.4163 106.176 46.7443 98.543 51.1713" stroke="#3F444C" stroke-width="1.54" stroke-linecap="round" stroke-linejoin="round"/>
<path id="Stroke-15" d="M90.7569 27.8516C90.7569 27.8516 83.2229 43.7446 81.3909 52.6666" stroke="#3F444C" stroke-width="1.54" stroke-linecap="round" stroke-linejoin="round"/>
<path id="Stroke-17" d="M100.07 38.0801C100.07 38.0801 87.7125 41.1341 81.9065 50.5991" stroke="#3F444C" stroke-width="1.54" stroke-linecap="round" stroke-linejoin="round"/>
<path id="Stroke-19" d="M51.6741 32.7366C51.6741 32.7366 58.5161 44.8716 61.7371 52.9256" stroke="#3F444C" stroke-width="1.54" stroke-linecap="round" stroke-linejoin="round"/>
<path id="Stroke-21" d="M63.5822 37.1335C63.5822 37.9275 61.0472 44.6835 58.3452 45.4265" stroke="#3F444C" stroke-width="1.54" stroke-linecap="round" stroke-linejoin="round"/>
<path id="Stroke-23" d="M46.4269 76.1898L44.6749 86.3238H16.2569C14.9829 80.8208 0.294854 -0.213239 1.08785 1.07076H55.0759L53.1449 16.0028" stroke="#3F444C" stroke-width="1.54" stroke-linecap="round" stroke-linejoin="round"/>
<path id="Stroke-25" d="M7.73682 40.2588C7.73682 40.2588 14.5688 32.7008 21.9258 33.2008C24.5188 33.3778 39.1158 37.1338 39.1158 37.1338" stroke="#3F444C" stroke-width="1.54" stroke-linecap="round" stroke-linejoin="round"/>
</g>
</g>
</g>
</g>
</g>
<defs>
<clipPath id="clip0_6_3588">
<rect width="113" height="88" fill="white"/>
</clipPath>
</defs>
</svg>
