<svg width="145" height="79" viewBox="0 0 145 79" fill="none" xmlns="http://www.w3.org/2000/svg">
<g id="N-61%">
<g id="61%">
<path d="M2.73533 15.7455C2.80617 14.7669 3.44896 14.0434 4.6637 13.5751C5.87844 13.1068 7.22034 12.8532 8.6894 12.8144C10.2316 12.7698 11.645 12.9599 12.9294 13.3844C14.208 13.7346 14.9187 14.3533 15.0615 15.2405C15.2044 16.1277 15.1684 17.5527 14.9535 19.5156C14.7329 21.4041 14.5163 23.8162 14.3038 26.752C14.1644 29.6822 14.0993 33.0931 14.1086 36.9849C14.1853 40.7966 14.5162 45.0378 15.1015 49.7083C16.5392 48.3245 18.1598 46.9265 19.9634 45.5144C21.7669 44.1022 23.6668 42.982 25.6631 42.1538C27.6536 41.2511 29.7155 40.7921 31.8489 40.7767C33.9822 40.7612 36.1283 41.3811 38.2872 42.6362C40.683 44.0976 42.4244 46.1336 43.5114 48.7443C44.5926 51.2805 44.9903 54.0194 44.7046 56.9609C44.4921 59.8967 43.545 62.8519 41.8634 65.8266C40.2492 68.7212 37.8656 71.1888 34.7126 73.2294C32.678 74.5098 30.3246 75.4779 27.6524 76.1339C24.9744 76.7155 22.2528 76.739 19.4877 76.2045C16.79 75.5899 14.2229 74.2915 11.7865 72.3093C9.34424 70.2527 7.37524 67.1864 5.87947 63.1102C4.95042 60.6371 4.21764 57.8493 3.68112 54.7469C3.13879 51.5701 2.73989 48.3447 2.48441 45.0709C2.22893 41.797 2.08609 38.5518 2.05591 35.3354C2.02572 32.1189 2.05244 29.1601 2.13606 26.4588C2.21968 23.7575 2.29866 21.4683 2.37299 19.5912C2.52048 17.7084 2.64126 16.4265 2.73533 15.7455ZM17.5298 62.4329C18.4298 64.5341 19.7456 66.3036 21.4771 67.7416C23.276 69.0994 25.5597 69.5963 28.3283 69.2323C30.5116 68.9136 32.4202 67.905 34.0541 66.2066C35.6881 64.5081 36.8599 62.546 37.5695 60.3203C38.2732 58.0201 38.4254 55.7253 38.0259 53.4357C37.6938 51.066 36.6224 49.1278 34.812 47.6211C33.4753 46.5269 31.8791 46.3511 30.0233 47.0936C28.2406 47.8304 26.4592 49.0537 24.6789 50.7635C22.9659 52.3932 21.4225 54.3092 20.0487 56.5115C18.748 58.7082 17.9084 60.682 17.5298 62.4329Z" fill="#3C475B" fill-opacity="0.15"/>
<path d="M46.7555 22.7803C47.2153 22.071 47.8773 21.1215 48.7413 19.9317C49.6727 18.662 50.6041 17.3922 51.5354 16.1224C52.5342 14.7725 53.4685 13.54 54.3383 12.4246C55.2081 11.3093 55.8085 10.5143 56.1395 10.0395C56.4705 9.56479 57.2155 9.2077 58.3745 8.96827C59.6008 8.64877 60.8754 8.47526 62.1981 8.44772C63.5208 8.42018 64.706 8.51558 65.7535 8.73392C66.801 8.95225 67.3509 9.39625 67.4031 10.0659C67.4321 10.4379 67.5163 11.5168 67.6557 13.3026C67.8682 15.0826 68.0819 17.3492 68.2967 20.1022C68.5789 22.7752 68.8901 25.8202 69.2304 29.2372C69.5648 32.5798 69.9051 35.9968 70.2512 39.4882C71.0362 47.6616 71.9333 56.7993 72.9424 66.9016C73.6741 66.8449 74.4028 66.7511 75.1286 66.6201C75.7139 66.5748 76.2626 66.5323 76.7748 66.4926C77.3543 66.3729 77.7538 66.3046 77.9733 66.2876C78.6317 66.2366 79.1305 66.4974 79.4696 67.07C79.8819 67.6369 80.1536 68.2896 80.2849 69.028C80.4161 69.7664 80.3981 70.4789 80.2309 71.1656C80.131 71.7721 79.901 72.1268 79.541 72.2295C79.3273 72.3209 78.6718 72.4091 77.5743 72.494C76.4827 72.6534 75.1716 72.8297 73.641 73.0231C72.1103 73.2164 70.47 73.4183 68.7199 73.6286C66.9698 73.8389 65.2928 74.0436 63.6891 74.2426C62.0853 74.4416 60.6249 74.5921 59.308 74.694C58.07 74.8647 57.2316 74.967 56.7926 75.001C56.061 75.0576 55.4919 74.8397 55.0854 74.3472C54.758 73.9234 54.571 73.4139 54.5245 72.8186C54.4781 72.2234 54.5443 71.6568 54.7231 71.119C54.9751 70.5755 55.3177 70.2496 55.7509 70.1412C56.1783 69.9584 56.648 69.8472 57.1601 69.8075C57.7396 69.6878 58.2797 69.5337 58.7802 69.3453C59.3597 69.2256 59.9729 69.0658 60.6197 68.866L58.5782 20.0685L51.1731 27.0419C50.6226 27.5337 50.0094 27.6934 49.3336 27.5212C48.7308 27.3433 48.1531 27.0137 47.6003 26.5325C47.1149 25.9712 46.7729 25.3614 46.5743 24.7031C46.3699 23.9704 46.4303 23.3294 46.7555 22.7803Z" fill="#3C475B" fill-opacity="0.15"/>
<path d="M89.0903 18.1558C90.6534 17.4359 92.2793 17.0481 93.9678 16.9922C95.7295 16.9307 97.4106 17.2497 99.0108 17.9492C100.611 18.6488 102.027 19.8117 103.258 21.4381C104.483 22.9901 105.341 25.0196 105.831 27.5268C106.297 29.7363 106.063 31.9253 105.129 34.0936C104.194 36.2619 102.827 38.0893 101.03 39.5759C99.3052 41.0568 97.2107 42.0423 94.7464 42.5325C92.3495 42.9426 89.8828 42.4599 87.3465 41.0842C85.5035 40.1041 84.0252 38.6091 82.9115 36.5994C81.8709 34.584 81.3338 32.4173 81.3002 30.0994C81.2665 27.7815 81.8634 25.527 83.0909 23.3361C84.3184 21.1451 86.3182 19.4183 89.0903 18.1558ZM91.6109 23.5748C90.4136 24.2663 89.6564 25.4103 89.3394 27.0069C89.0897 28.5233 89.2424 30.0086 89.7975 31.4627C90.42 32.8368 91.3879 33.9221 92.7014 34.7187C94.009 35.4409 95.6552 35.3135 97.6399 34.3364C99.4167 33.5252 100.39 32.327 100.561 30.7418C100.805 29.1509 100.506 27.677 99.6641 26.3199C98.8953 24.9572 97.7502 23.9604 96.2289 23.3296C94.7018 22.6244 93.1624 22.7061 91.6109 23.5748ZM118.659 10.8141C119.449 9.63008 120.394 8.99558 121.491 8.91063C122.583 8.75127 123.588 8.89803 124.506 9.35091C125.498 9.79813 126.251 10.4884 126.766 11.4217C127.348 12.2749 127.485 13.0877 127.177 13.8601C126.057 16.4918 124.697 19.8159 123.097 23.8323C121.491 27.7742 119.77 32.1367 117.936 36.9198C116.168 41.6228 114.345 46.5547 112.466 51.7155C110.66 56.8706 108.952 61.8684 107.343 66.7089C107.041 67.5557 106.459 68.1247 105.599 68.4159C104.738 68.707 103.86 68.775 102.965 68.6197C102.064 68.3901 101.294 67.9631 100.657 67.3387C100.087 66.6343 99.9409 65.7099 100.22 64.5655C101.78 58.1568 103.468 51.9628 105.284 45.9836C107.172 39.9987 108.96 34.6204 110.649 29.8486C112.332 25.0025 113.89 20.9145 115.323 17.5848C116.756 14.2551 117.868 11.9982 118.659 10.8141ZM130.788 37.4969C132.471 37.3666 134.042 37.6941 135.502 38.4794C136.956 39.1903 138.177 40.2186 139.165 41.5643C140.147 42.8357 140.815 44.3185 141.168 46.0129C141.516 47.6328 141.46 49.2839 141.003 50.9661C140.366 53.1862 139.149 55.0395 137.352 56.5261C135.627 58.007 133.718 59.0156 131.626 59.5518C129.533 60.0881 127.47 60.0607 125.436 59.4695C123.47 58.7983 121.967 57.455 120.927 55.4396C119.898 53.573 119.414 51.6267 119.477 49.6008C119.607 47.4948 120.121 45.5836 121.017 43.8674C121.914 42.1512 123.199 40.7043 124.874 39.5267C126.622 38.3434 128.593 37.6668 130.788 37.4969ZM127.755 50.9811C128.793 52.0236 129.974 52.531 131.297 52.5035C132.687 52.3959 133.868 51.9676 134.84 51.2187C135.806 50.3953 136.389 49.3771 136.589 48.1639C136.856 46.8707 136.388 45.5969 135.186 44.3425C134.069 43.2313 132.852 42.7267 131.535 42.8286C130.218 42.9306 129.077 43.3932 128.11 44.2166C127.217 45.0343 126.637 46.0897 126.37 47.3829C126.176 48.6705 126.638 49.8699 127.755 50.9811Z" fill="#3C475B" fill-opacity="0.15"/>
</g>
<g id="61%_2">
<mask id="path-2-outside-1_35_1544" maskUnits="userSpaceOnUse" x="2.5415" y="0" width="143" height="70" fill="black">
<rect fill="white" x="2.5415" width="143" height="70"/>
<path d="M7.07324 4.71468C7.22 3.74448 7.91715 3.07281 9.16467 2.69966C10.4122 2.32651 11.7698 2.17725 13.2375 2.25187C14.7785 2.32651 16.1728 2.62503 17.4203 3.14744C18.6678 3.59523 19.3283 4.2669 19.4017 5.16246C19.4751 6.05803 19.3283 7.47601 18.9614 9.4164C18.5945 11.2822 18.1908 13.6703 17.7505 16.5809C17.3836 19.4915 17.0534 22.8872 16.7599 26.768C16.5397 30.5741 16.5397 34.8281 16.7599 39.5298C18.3009 38.2611 20.0254 36.9924 21.9334 35.7236C23.8414 34.4549 25.8227 33.4847 27.8775 32.813C29.9322 32.0667 32.0237 31.7682 34.1518 31.9175C36.2799 32.0667 38.3713 32.8504 40.4261 34.2683C42.701 35.9102 44.2787 38.0745 45.1593 40.7612C46.0399 43.3733 46.2234 46.1346 45.7097 49.0452C45.2694 51.9558 44.0952 54.829 42.1873 57.665C40.3527 60.4263 37.7843 62.7025 34.482 64.4937C32.3539 65.6131 29.9322 66.3967 27.217 66.8445C24.5018 67.2177 21.7866 67.0311 19.0715 66.2848C16.4296 65.4639 13.9713 63.9713 11.6964 61.807C9.42151 59.5681 7.697 56.359 6.52286 52.1797C5.78902 49.6422 5.27534 46.8063 4.98181 43.6718C4.68827 40.4627 4.5415 37.2162 4.5415 33.9325C4.5415 30.6488 4.65158 27.4023 4.87173 24.1932C5.09188 20.9841 5.34872 18.0362 5.64226 15.3495C5.93579 12.6628 6.19263 10.3866 6.41279 8.52084C6.70632 6.65507 6.92647 5.38636 7.07324 4.71468ZM18.1909 52.4035C18.9247 54.5678 20.0988 56.4336 21.7133 58.0008C23.4011 59.4934 25.6393 60.1651 28.4279 60.0158C30.6294 59.8666 32.6107 59.0083 34.3719 57.4411C36.1331 55.8739 37.454 54.0081 38.3346 51.8438C39.2152 49.6049 39.5455 47.3287 39.3253 45.0151C39.1786 42.627 38.2613 40.6119 36.5734 38.9701C35.3259 37.776 33.7482 37.4774 31.8402 38.0745C30.0056 38.6715 28.1343 39.7537 26.2264 41.3209C24.3918 42.8135 22.7039 44.6047 21.1629 46.6943C19.6952 48.784 18.7045 50.687 18.1909 52.4035Z"/>
<path d="M50.4137 15.1256C50.9274 14.454 51.6612 13.5584 52.6152 12.4389C53.6426 11.2448 54.6699 10.0508 55.6973 8.85667C56.7981 7.58796 57.8254 6.43119 58.7794 5.38636C59.7334 4.34153 60.3939 3.59523 60.7608 3.14744C61.1277 2.69966 61.8982 2.40114 63.0724 2.25187C64.3199 2.02799 65.6041 1.95336 66.925 2.02799C68.2459 2.10262 69.42 2.28919 70.4474 2.58771C71.4748 2.88624 71.9885 3.37133 71.9885 4.04301C71.9885 4.41616 71.9885 5.4983 71.9885 7.28943C72.0618 9.08056 72.0985 11.3568 72.0985 14.1181C72.1719 16.8048 72.2453 19.8647 72.3187 23.2977C72.3921 26.656 72.4655 30.089 72.5388 33.5967C72.6856 41.806 72.8691 50.9856 73.0892 61.1353C73.8231 61.1353 74.5569 61.098 75.2907 61.0234C75.8778 61.0234 76.4282 61.0234 76.9419 61.0234C77.5289 60.9487 77.9325 60.9114 78.1527 60.9114C78.8131 60.9114 79.2901 61.2099 79.5837 61.807C79.9506 62.404 80.1707 63.0757 80.2441 63.822C80.3175 64.5683 80.2441 65.2773 80.024 65.949C79.8772 66.546 79.6204 66.8818 79.2534 66.9565C79.0333 67.0311 78.3728 67.0684 77.2721 67.0684C76.1713 67.1431 74.8504 67.2177 73.3094 67.2923C71.7683 67.3669 70.1172 67.4416 68.356 67.5162C66.5948 67.5908 64.9069 67.6655 63.2925 67.7401C61.6781 67.8147 60.2104 67.852 58.8895 67.852C57.642 67.9267 56.7981 67.964 56.3578 67.964C55.6239 67.964 55.0735 67.7028 54.7066 67.1804C54.4131 66.7326 54.2663 66.2102 54.2663 65.6131C54.2663 65.0161 54.3764 64.4564 54.5966 63.9339C54.8901 63.4115 55.257 63.113 55.6973 63.0384C56.1376 62.8891 56.6146 62.8145 57.1283 62.8145C57.7154 62.7399 58.2657 62.6279 58.7794 62.4786C59.3665 62.404 59.9902 62.2921 60.6507 62.1428L62.4119 13.3345L54.4865 19.7154C53.8994 20.1632 53.2756 20.2751 52.6152 20.0512C52.0281 19.8273 51.4778 19.4542 50.9641 18.9318C50.5238 18.3347 50.2302 17.7004 50.0835 17.0287C49.9367 16.2824 50.0468 15.648 50.4137 15.1256Z"/>
<path d="M92.981 13.7823C94.5955 13.1852 96.2466 12.924 97.9344 12.9987C99.6956 13.0733 101.347 13.5211 102.888 14.342C104.429 15.1629 105.75 16.4317 106.851 18.1482C107.951 19.79 108.648 21.8797 108.942 24.4171C109.235 26.656 108.832 28.8203 107.731 30.91C106.63 32.9996 105.126 34.7161 103.218 36.0595C101.383 37.4028 99.2186 38.2238 96.7236 38.5223C94.3019 38.7462 91.8803 38.0745 89.4586 36.5073C87.6974 35.3878 86.3398 33.7832 85.3858 31.6936C84.5052 29.6039 84.1383 27.4023 84.2851 25.0888C84.4319 22.7753 85.2024 20.5737 86.5967 18.484C87.991 16.3943 90.1191 14.8271 92.981 13.7823ZM95.0725 19.3796C93.825 19.9766 92.981 21.0588 92.5407 22.626C92.1738 24.1186 92.2105 25.6112 92.6508 27.1038C93.1645 28.5218 94.0451 29.6786 95.2926 30.5741C96.5401 31.3951 98.1913 31.3951 100.246 30.5741C102.081 29.9025 103.145 28.783 103.438 27.2158C103.805 25.6485 103.622 24.1559 102.888 22.7379C102.227 21.32 101.163 20.2378 99.6956 19.4915C98.228 18.6706 96.6869 18.6333 95.0725 19.3796ZM123.032 8.74473C123.912 7.62527 124.903 7.06554 126.004 7.06554C127.104 6.99091 128.095 7.2148 128.976 7.73721C129.93 8.25963 130.627 9.00593 131.067 9.97613C131.581 10.8717 131.654 11.6926 131.287 12.4389C129.966 14.9764 128.352 18.1855 126.444 22.0663C124.536 25.8724 122.481 30.089 120.28 34.7161C118.152 39.2686 115.95 44.0449 113.675 49.0452C111.474 54.0454 109.382 58.8964 107.401 63.5981C107.034 64.419 106.41 64.9415 105.53 65.1653C104.649 65.3892 103.768 65.3892 102.888 65.1653C102.007 64.8668 101.273 64.3817 100.686 63.7101C100.173 62.9637 100.099 62.0309 100.466 60.9114C102.521 54.6425 104.686 48.5974 106.961 42.7762C109.309 36.955 111.51 31.7309 113.565 27.1038C115.62 22.4021 117.491 18.4467 119.179 15.2376C120.867 12.0285 122.151 9.86418 123.032 8.74473ZM133.048 36.2834C134.736 36.2834 136.277 36.7311 137.672 37.6267C139.066 38.4476 140.203 39.5671 141.084 40.9851C141.965 42.3284 142.515 43.8584 142.735 45.5749C142.955 47.2167 142.772 48.8586 142.185 50.5005C141.378 52.6647 140.02 54.4186 138.112 55.7619C136.277 57.1053 134.296 57.9635 132.168 58.3367C130.04 58.7098 127.985 58.5232 126.004 57.7769C124.096 56.956 122.701 55.5007 121.821 53.411C120.94 51.4707 120.61 49.493 120.83 47.4779C121.124 45.3883 121.784 43.5225 122.811 41.8806C123.839 40.2388 125.233 38.8954 126.994 37.8506C128.829 36.8058 130.847 36.2834 133.048 36.2834ZM128.976 49.493C129.93 50.6124 131.067 51.2095 132.388 51.2841C133.782 51.2841 134.993 50.9482 136.021 50.2766C137.048 49.5303 137.708 48.5601 138.002 47.366C138.369 46.0973 138.002 44.7912 136.901 43.4479C135.874 42.2538 134.7 41.6568 133.379 41.6568C132.058 41.6568 130.884 42.0299 129.856 42.7762C128.902 43.5225 128.242 44.53 127.875 45.7987C127.581 47.0675 127.948 48.2989 128.976 49.493Z"/>
</mask>
<path d="M7.07324 4.71468C7.22 3.74448 7.91715 3.07281 9.16467 2.69966C10.4122 2.32651 11.7698 2.17725 13.2375 2.25187C14.7785 2.32651 16.1728 2.62503 17.4203 3.14744C18.6678 3.59523 19.3283 4.2669 19.4017 5.16246C19.4751 6.05803 19.3283 7.47601 18.9614 9.4164C18.5945 11.2822 18.1908 13.6703 17.7505 16.5809C17.3836 19.4915 17.0534 22.8872 16.7599 26.768C16.5397 30.5741 16.5397 34.8281 16.7599 39.5298C18.3009 38.2611 20.0254 36.9924 21.9334 35.7236C23.8414 34.4549 25.8227 33.4847 27.8775 32.813C29.9322 32.0667 32.0237 31.7682 34.1518 31.9175C36.2799 32.0667 38.3713 32.8504 40.4261 34.2683C42.701 35.9102 44.2787 38.0745 45.1593 40.7612C46.0399 43.3733 46.2234 46.1346 45.7097 49.0452C45.2694 51.9558 44.0952 54.829 42.1873 57.665C40.3527 60.4263 37.7843 62.7025 34.482 64.4937C32.3539 65.6131 29.9322 66.3967 27.217 66.8445C24.5018 67.2177 21.7866 67.0311 19.0715 66.2848C16.4296 65.4639 13.9713 63.9713 11.6964 61.807C9.42151 59.5681 7.697 56.359 6.52286 52.1797C5.78902 49.6422 5.27534 46.8063 4.98181 43.6718C4.68827 40.4627 4.5415 37.2162 4.5415 33.9325C4.5415 30.6488 4.65158 27.4023 4.87173 24.1932C5.09188 20.9841 5.34872 18.0362 5.64226 15.3495C5.93579 12.6628 6.19263 10.3866 6.41279 8.52084C6.70632 6.65507 6.92647 5.38636 7.07324 4.71468ZM18.1909 52.4035C18.9247 54.5678 20.0988 56.4336 21.7133 58.0008C23.4011 59.4934 25.6393 60.1651 28.4279 60.0158C30.6294 59.8666 32.6107 59.0083 34.3719 57.4411C36.1331 55.8739 37.454 54.0081 38.3346 51.8438C39.2152 49.6049 39.5455 47.3287 39.3253 45.0151C39.1786 42.627 38.2613 40.6119 36.5734 38.9701C35.3259 37.776 33.7482 37.4774 31.8402 38.0745C30.0056 38.6715 28.1343 39.7537 26.2264 41.3209C24.3918 42.8135 22.7039 44.6047 21.1629 46.6943C19.6952 48.784 18.7045 50.687 18.1909 52.4035Z" stroke="#3C475B" stroke-width="4" mask="url(#path-2-outside-1_35_1544)"/>
<path d="M50.4137 15.1256C50.9274 14.454 51.6612 13.5584 52.6152 12.4389C53.6426 11.2448 54.6699 10.0508 55.6973 8.85667C56.7981 7.58796 57.8254 6.43119 58.7794 5.38636C59.7334 4.34153 60.3939 3.59523 60.7608 3.14744C61.1277 2.69966 61.8982 2.40114 63.0724 2.25187C64.3199 2.02799 65.6041 1.95336 66.925 2.02799C68.2459 2.10262 69.42 2.28919 70.4474 2.58771C71.4748 2.88624 71.9885 3.37133 71.9885 4.04301C71.9885 4.41616 71.9885 5.4983 71.9885 7.28943C72.0618 9.08056 72.0985 11.3568 72.0985 14.1181C72.1719 16.8048 72.2453 19.8647 72.3187 23.2977C72.3921 26.656 72.4655 30.089 72.5388 33.5967C72.6856 41.806 72.8691 50.9856 73.0892 61.1353C73.8231 61.1353 74.5569 61.098 75.2907 61.0234C75.8778 61.0234 76.4282 61.0234 76.9419 61.0234C77.5289 60.9487 77.9325 60.9114 78.1527 60.9114C78.8131 60.9114 79.2901 61.2099 79.5837 61.807C79.9506 62.404 80.1707 63.0757 80.2441 63.822C80.3175 64.5683 80.2441 65.2773 80.024 65.949C79.8772 66.546 79.6204 66.8818 79.2534 66.9565C79.0333 67.0311 78.3728 67.0684 77.2721 67.0684C76.1713 67.1431 74.8504 67.2177 73.3094 67.2923C71.7683 67.3669 70.1172 67.4416 68.356 67.5162C66.5948 67.5908 64.9069 67.6655 63.2925 67.7401C61.6781 67.8147 60.2104 67.852 58.8895 67.852C57.642 67.9267 56.7981 67.964 56.3578 67.964C55.6239 67.964 55.0735 67.7028 54.7066 67.1804C54.4131 66.7326 54.2663 66.2102 54.2663 65.6131C54.2663 65.0161 54.3764 64.4564 54.5966 63.9339C54.8901 63.4115 55.257 63.113 55.6973 63.0384C56.1376 62.8891 56.6146 62.8145 57.1283 62.8145C57.7154 62.7399 58.2657 62.6279 58.7794 62.4786C59.3665 62.404 59.9902 62.2921 60.6507 62.1428L62.4119 13.3345L54.4865 19.7154C53.8994 20.1632 53.2756 20.2751 52.6152 20.0512C52.0281 19.8273 51.4778 19.4542 50.9641 18.9318C50.5238 18.3347 50.2302 17.7004 50.0835 17.0287C49.9367 16.2824 50.0468 15.648 50.4137 15.1256Z" stroke="#3C475B" stroke-width="4" mask="url(#path-2-outside-1_35_1544)"/>
<path d="M92.981 13.7823C94.5955 13.1852 96.2466 12.924 97.9344 12.9987C99.6956 13.0733 101.347 13.5211 102.888 14.342C104.429 15.1629 105.75 16.4317 106.851 18.1482C107.951 19.79 108.648 21.8797 108.942 24.4171C109.235 26.656 108.832 28.8203 107.731 30.91C106.63 32.9996 105.126 34.7161 103.218 36.0595C101.383 37.4028 99.2186 38.2238 96.7236 38.5223C94.3019 38.7462 91.8803 38.0745 89.4586 36.5073C87.6974 35.3878 86.3398 33.7832 85.3858 31.6936C84.5052 29.6039 84.1383 27.4023 84.2851 25.0888C84.4319 22.7753 85.2024 20.5737 86.5967 18.484C87.991 16.3943 90.1191 14.8271 92.981 13.7823ZM95.0725 19.3796C93.825 19.9766 92.981 21.0588 92.5407 22.626C92.1738 24.1186 92.2105 25.6112 92.6508 27.1038C93.1645 28.5218 94.0451 29.6786 95.2926 30.5741C96.5401 31.3951 98.1913 31.3951 100.246 30.5741C102.081 29.9025 103.145 28.783 103.438 27.2158C103.805 25.6485 103.622 24.1559 102.888 22.7379C102.227 21.32 101.163 20.2378 99.6956 19.4915C98.228 18.6706 96.6869 18.6333 95.0725 19.3796ZM123.032 8.74473C123.912 7.62527 124.903 7.06554 126.004 7.06554C127.104 6.99091 128.095 7.2148 128.976 7.73721C129.93 8.25963 130.627 9.00593 131.067 9.97613C131.581 10.8717 131.654 11.6926 131.287 12.4389C129.966 14.9764 128.352 18.1855 126.444 22.0663C124.536 25.8724 122.481 30.089 120.28 34.7161C118.152 39.2686 115.95 44.0449 113.675 49.0452C111.474 54.0454 109.382 58.8964 107.401 63.5981C107.034 64.419 106.41 64.9415 105.53 65.1653C104.649 65.3892 103.768 65.3892 102.888 65.1653C102.007 64.8668 101.273 64.3817 100.686 63.7101C100.173 62.9637 100.099 62.0309 100.466 60.9114C102.521 54.6425 104.686 48.5974 106.961 42.7762C109.309 36.955 111.51 31.7309 113.565 27.1038C115.62 22.4021 117.491 18.4467 119.179 15.2376C120.867 12.0285 122.151 9.86418 123.032 8.74473ZM133.048 36.2834C134.736 36.2834 136.277 36.7311 137.672 37.6267C139.066 38.4476 140.203 39.5671 141.084 40.9851C141.965 42.3284 142.515 43.8584 142.735 45.5749C142.955 47.2167 142.772 48.8586 142.185 50.5005C141.378 52.6647 140.02 54.4186 138.112 55.7619C136.277 57.1053 134.296 57.9635 132.168 58.3367C130.04 58.7098 127.985 58.5232 126.004 57.7769C124.096 56.956 122.701 55.5007 121.821 53.411C120.94 51.4707 120.61 49.493 120.83 47.4779C121.124 45.3883 121.784 43.5225 122.811 41.8806C123.839 40.2388 125.233 38.8954 126.994 37.8506C128.829 36.8058 130.847 36.2834 133.048 36.2834ZM128.976 49.493C129.93 50.6124 131.067 51.2095 132.388 51.2841C133.782 51.2841 134.993 50.9482 136.021 50.2766C137.048 49.5303 137.708 48.5601 138.002 47.366C138.369 46.0973 138.002 44.7912 136.901 43.4479C135.874 42.2538 134.7 41.6568 133.379 41.6568C132.058 41.6568 130.884 42.0299 129.856 42.7762C128.902 43.5225 128.242 44.53 127.875 45.7987C127.581 47.0675 127.948 48.2989 128.976 49.493Z" stroke="#3C475B" stroke-width="4" mask="url(#path-2-outside-1_35_1544)"/>
</g>
</g>
</svg>
