<svg width="144" height="77" viewBox="0 0 144 77" fill="none" xmlns="http://www.w3.org/2000/svg">
<g id="N-67">
<g id="67%">
<path d="M5.1883 7.70231C5.39166 6.76084 6.12619 6.14438 7.39189 5.85295C8.6576 5.56152 10.0199 5.49589 11.4787 5.65607C13.0108 5.8206 14.3833 6.19569 15.5964 6.78134C16.8138 7.29391 17.4328 7.99091 17.4533 8.87235C17.4738 9.75379 17.2441 11.1338 16.7643 13.0124C16.2888 14.8179 15.746 17.1328 15.1359 19.9572C14.599 22.786 14.0701 26.092 13.5493 29.8753C13.1061 33.5899 12.856 37.756 12.7991 42.3738C14.4101 41.2227 16.204 40.0825 18.1808 38.9531C20.1577 37.8238 22.1901 36.9912 24.2781 36.4553C26.3706 35.8463 28.4732 35.678 30.5862 35.9505C32.6991 36.2229 34.7382 37.1145 36.7034 38.6251C38.8749 40.3681 40.3207 42.5813 41.0407 45.2648C41.7651 47.8753 41.7857 50.5905 41.1024 53.4105C40.4924 56.2349 39.1528 58.9793 37.0839 61.6435C35.0925 64.239 32.398 66.3159 29.0004 67.8741C26.8128 68.8442 24.3524 69.4679 21.6191 69.7454C18.8901 69.9497 16.194 69.6059 13.5309 68.7139C10.9453 67.7531 8.58209 66.1455 6.44128 63.8909C4.30485 61.5632 2.77418 58.318 1.84927 54.1552C1.26681 51.6266 0.921382 48.8187 0.812997 45.7315C0.708999 42.5712 0.75352 39.383 0.946561 36.167C1.1396 32.951 1.44019 29.7781 1.84833 26.6483C2.25647 23.5185 2.68584 20.6466 3.13644 18.0328C3.58703 15.419 3.97691 13.2049 4.30608 11.3907C4.70841 9.58089 5.00249 8.35141 5.1883 7.70231ZM13.469 55.0668C14.0734 57.23 15.1343 59.1269 16.6517 60.7576C18.2467 62.3195 20.4387 63.1102 23.2277 63.1294C25.4313 63.1139 27.4572 62.3909 29.3052 60.9605C31.1533 59.5301 32.5799 57.7812 33.5851 55.7138C34.5946 53.5734 35.0577 51.3637 34.9742 49.0848C34.9683 46.7372 34.1722 44.7094 32.586 43.0012C31.4124 41.7578 29.8569 41.3718 27.9196 41.8433C26.0554 42.3192 24.1262 43.2679 22.1318 44.6896C20.215 46.0426 18.427 47.6966 16.7677 49.6517C15.1816 51.6112 14.082 53.4162 13.469 55.0668Z" fill="#3C475B" fill-opacity="0.15"/>
<path d="M49.8053 10.6877C50.3218 10.6451 51.7207 10.5816 54.0019 10.4973C56.2831 10.413 58.8935 10.3483 61.8332 10.3032C64.7729 10.2581 67.7103 10.2496 70.6456 10.2776C73.6585 10.2368 76.1138 10.3096 78.0116 10.4959C78.6701 10.5351 79.1969 10.9332 79.592 11.6902C80.0646 12.3785 80.4144 13.2795 80.6412 14.3933C80.9456 15.4383 81.0971 16.5843 81.0957 17.8312C81.0943 19.0781 80.9509 20.2432 80.6656 21.3265C80.5661 21.7607 80.1535 23.1298 79.4278 25.4339C78.7753 27.7423 77.9801 30.5923 77.0423 33.9841C76.1045 37.3758 75.0393 41.0533 73.8469 45.0167C72.7321 48.9113 71.6626 52.662 70.6384 56.2686C69.6186 59.8021 68.6962 62.938 67.871 65.6763C67.0458 68.4145 66.4927 70.2888 66.2118 71.299C66.026 71.9481 65.38 72.3131 64.2738 72.3939C63.2407 72.4792 62.1089 72.3751 60.8783 72.0818C59.7209 71.7929 58.6476 71.3256 57.6584 70.6799C56.7424 70.0386 56.3085 69.3159 56.3567 68.5119C56.3831 68.0734 56.6296 67.0244 57.0963 65.3651C57.563 63.7058 58.127 61.6489 58.7883 59.1943C59.5228 56.744 60.3458 54.0423 61.2573 51.0891C62.1732 48.0629 63.0891 45.0366 64.005 42.0104C64.9253 38.911 65.839 35.9213 66.7461 33.0412C67.6576 30.088 68.4374 27.4938 69.0856 25.2585C69.7381 22.9501 70.2546 21.0736 70.635 19.6293C71.0885 18.1892 71.2809 17.4305 71.2121 17.353C71.079 17.1251 70.0935 17.0297 68.2556 17.067C66.4222 17.0313 64.3261 17.0899 61.9673 17.2429C59.6129 17.3229 57.293 17.4415 55.0074 17.5989C52.7993 17.6876 51.2197 17.7036 50.2686 17.647C49.3907 17.5947 48.7519 17.2267 48.3524 16.5427C48.0261 15.8631 47.8527 15.0826 47.8322 14.2012C47.8117 13.3197 47.9697 12.5223 48.3062 11.8088C48.7159 11.0996 49.2156 10.7259 49.8053 10.6877Z" fill="#3C475B" fill-opacity="0.15"/>
<path d="M93.6269 21.8778C95.2715 21.3889 96.9331 21.231 98.6114 21.4043C100.363 21.5818 101.983 22.1184 103.471 23.0138C104.959 23.9092 106.201 25.2301 107.198 26.9765C108.199 28.6498 108.771 30.7377 108.915 33.2402C109.076 35.4504 108.546 37.546 107.326 39.5273C106.105 41.5085 104.505 43.1003 102.523 44.3027C100.615 45.5095 98.4089 46.185 95.9038 46.3294C93.4762 46.405 91.1014 45.6035 88.7791 43.9249C87.089 42.724 85.8298 41.072 85.0016 38.9689C84.2465 36.8701 84.0101 34.6921 84.2924 32.435C84.5747 30.1779 85.4724 28.0675 86.9853 26.1037C88.4982 24.1399 90.7121 22.7313 93.6269 21.8778ZM95.383 27.4837C94.1041 27.9944 93.1991 29.0041 92.668 30.5129C92.2144 31.9529 92.1633 33.4169 92.5145 34.9049C92.9433 36.3241 93.7532 37.5092 94.9444 38.4603C96.1399 39.3383 97.786 39.4363 99.8828 38.7542C101.751 38.2053 102.878 37.172 103.263 35.6546C103.721 34.1414 103.626 32.6687 102.977 31.2365C102.402 29.8086 101.405 28.6856 99.9856 27.8676C98.5706 26.9765 97.0364 26.8486 95.383 27.4837ZM123.883 18.7272C124.827 17.6831 125.848 17.1937 126.945 17.259C128.047 17.2512 129.021 17.5293 129.869 18.0932C130.789 18.6614 131.44 19.4337 131.822 20.41C132.282 21.3176 132.306 22.1259 131.897 22.835C130.431 25.2417 128.632 28.2888 126.502 31.9763C124.376 35.5908 122.08 39.5984 119.613 43.9994C117.223 48.3317 114.748 52.8789 112.186 57.6409C109.697 62.4074 107.327 67.0342 105.075 71.5213C104.661 72.3035 104.008 72.7782 103.117 72.9452C102.226 73.1122 101.348 73.06 100.483 72.7884C99.6228 72.4438 98.9197 71.9252 98.3739 71.2325C97.9056 70.4712 97.8873 69.5532 98.3189 68.4786C100.736 62.4609 103.25 56.669 105.86 51.1029C108.543 45.5412 111.045 40.5555 113.366 36.1458C115.691 31.663 117.789 27.9002 119.66 24.8575C121.532 21.8148 122.939 19.7713 123.883 18.7272ZM132.251 46.292C133.934 46.3921 135.444 46.9221 136.781 47.8819C138.123 48.7686 139.191 49.9325 139.986 51.3734C140.785 52.7413 141.244 54.2723 141.362 55.9665C141.485 57.5875 141.206 59.1846 140.524 60.7578C139.592 62.8295 138.135 64.4666 136.154 65.669C134.246 66.8758 132.22 67.5988 130.077 67.838C127.933 68.0771 125.895 67.7725 123.964 66.924C122.11 66.0068 120.805 64.4988 120.05 62.4C119.286 60.4474 119.073 58.491 119.411 56.5306C119.827 54.5015 120.595 52.7134 121.716 51.1663C122.837 49.6193 124.306 48.3864 126.123 47.4676C128.013 46.5532 130.056 46.1613 132.251 46.292ZM127.414 58.9873C128.299 60.1403 129.398 60.7925 130.711 60.944C132.101 61.0267 133.328 60.7696 134.391 60.1728C135.46 59.5028 136.175 58.5918 136.538 57.4398C136.978 56.219 136.689 54.9182 135.671 53.5372C134.717 52.3068 133.581 51.6524 132.264 51.5741C130.947 51.4957 129.755 51.7915 128.687 52.4614C127.692 53.1357 126.974 54.0833 126.534 55.304C126.166 56.5292 126.46 57.7569 127.414 58.9873Z" fill="#3C475B" fill-opacity="0.15"/>
</g>
<g id="67%_2">
<mask id="path-2-outside-1_35_1543" maskUnits="userSpaceOnUse" x="3.19141" y="0" width="137" height="64" fill="black">
<rect fill="white" x="3.19141" width="137" height="64"/>
<path d="M7.55278 4.27357C7.68967 3.38465 8.3399 2.76925 9.50347 2.42736C10.667 2.08547 11.9333 1.94872 13.3022 2.01709C14.7396 2.08548 16.04 2.35899 17.2036 2.83763C18.3672 3.2479 18.9832 3.8633 19.0516 4.68384C19.1201 5.50437 18.9832 6.80355 18.641 8.58138C18.2987 10.2908 17.9223 12.4789 17.5116 15.1457C17.1694 17.8124 16.8614 20.9236 16.5876 24.4792C16.3822 27.9665 16.3822 31.8641 16.5876 36.1719C18.0249 35.0095 19.6334 33.847 21.413 32.6846C23.1926 31.5222 25.0406 30.6333 26.9571 30.0179C28.8736 29.3341 30.8243 29.0606 32.8092 29.1973C34.7941 29.3341 36.7448 30.0521 38.6613 31.3512C40.7831 32.8555 42.2547 34.8385 43.076 37.3001C43.8973 39.6933 44.0685 42.2233 43.5893 44.8901C43.1787 47.5568 42.0835 50.1894 40.304 52.7877C38.5928 55.3177 36.1972 57.4032 33.1172 59.0443C31.1323 60.07 28.8736 60.7879 26.3411 61.1982C23.8086 61.5401 21.2761 61.3692 18.7436 60.6854C16.2796 59.9332 13.9867 58.5657 11.8648 56.5827C9.74303 54.5314 8.13456 51.5911 7.03944 47.7619C6.35498 45.4371 5.87586 42.8387 5.60208 39.9669C5.3283 37.0266 5.19141 34.0522 5.19141 31.0435C5.19141 28.0349 5.29407 25.0605 5.49941 22.1202C5.70475 19.18 5.94431 16.479 6.21809 14.0174C6.49187 11.5558 6.73143 9.47029 6.93677 7.76085C7.21055 6.0514 7.41589 4.88897 7.55278 4.27357ZM17.9223 47.9671C18.6067 49.95 19.7019 51.6595 21.2077 53.0954C22.7819 54.463 24.8695 55.0784 27.4704 54.9416C29.5238 54.8049 31.3718 54.0185 33.0145 52.5826C34.6572 51.1466 35.8892 49.4372 36.7106 47.4542C37.5319 45.4029 37.8399 43.3174 37.6346 41.1977C37.4977 39.0096 36.6421 37.1634 35.0679 35.659C33.9043 34.565 32.4327 34.2915 30.6531 34.8385C28.942 35.3855 27.1966 36.377 25.4171 37.8129C23.7059 39.1805 22.1317 40.8216 20.6943 42.7362C19.3254 44.6507 18.4014 46.3944 17.9223 47.9671Z"/>
<path d="M49.3115 4.58127C49.7906 4.51289 51.0911 4.37614 53.2129 4.171C55.3347 3.96587 57.7645 3.76073 60.5023 3.5556C63.2402 3.35047 65.978 3.17952 68.7158 3.04277C71.5221 2.83763 73.815 2.76925 75.5946 2.83763C76.2106 2.83763 76.7239 3.17952 77.1346 3.8633C77.6137 4.4787 77.9902 5.29924 78.2639 6.32491C78.6062 7.2822 78.8115 8.34206 78.88 9.50448C78.9484 10.6669 78.8799 11.761 78.6746 12.7866C78.6062 13.1969 78.2982 14.4961 77.7506 16.6842C77.2715 18.8723 76.6897 21.5732 76.0052 24.7869C75.3208 28.0007 74.5337 31.488 73.6439 35.2488C72.8225 38.9412 72.0354 42.4968 71.2825 45.9157C70.5296 49.2663 69.8451 52.2407 69.2291 54.8391C68.6131 57.4374 68.2025 59.2152 67.9971 60.1725C67.8602 60.7879 67.2784 61.164 66.2518 61.3008C65.2935 61.4375 64.2326 61.4033 63.069 61.1982C61.9739 60.9931 60.9472 60.617 59.989 60.07C59.0992 59.5229 58.6543 58.8734 58.6543 58.1212C58.6543 57.7109 58.8254 56.7194 59.1676 55.1468C59.5099 53.5741 59.9205 51.6253 60.3997 49.3004C60.9472 46.9756 61.5632 44.4114 62.2477 41.6079C62.9322 38.736 63.6166 35.8642 64.3011 32.9923C64.9855 30.0521 65.67 27.2144 66.3544 24.4792C67.0389 21.6758 67.6207 19.2141 68.0998 17.0944C68.5789 14.9063 68.9554 13.1285 69.2291 11.761C69.5714 10.3934 69.7083 9.67543 69.6398 9.60705C69.5029 9.40192 68.5789 9.36772 66.8678 9.50448C65.1566 9.57286 63.2059 9.74381 61.0157 10.0173C58.8254 10.2224 56.6694 10.4618 54.5476 10.7353C52.4942 10.9404 51.0226 11.043 50.1328 11.043C49.3115 11.043 48.6955 10.7353 48.2848 10.1199C47.9426 9.50448 47.7372 8.78651 47.6688 7.96598C47.6004 7.14544 47.703 6.39328 47.9768 5.7095C48.319 5.02572 48.7639 4.64965 49.3115 4.58127Z"/>
<path d="M90.7879 12.5815C92.2937 12.0345 93.8337 11.7951 95.4079 11.8635C97.0506 11.9319 98.5907 12.3422 100.028 13.0943C101.465 13.8465 102.697 15.0089 103.724 16.5816C104.751 18.0859 105.401 20.0005 105.675 22.3253C105.949 24.3767 105.572 26.3596 104.545 28.2742C103.519 30.1888 102.116 31.7615 100.336 32.9923C98.6249 34.2231 96.6057 34.9753 94.2786 35.2488C92.0199 35.4539 89.7612 34.8385 87.5025 33.4026C85.8598 32.3769 84.5936 30.9068 83.7038 28.9922C82.8824 27.0776 82.5402 25.0605 82.6771 22.9407C82.814 20.821 83.5326 18.8039 84.8331 16.8893C86.1336 14.9747 88.1185 13.5388 90.7879 12.5815ZM92.7386 17.7098C91.575 18.2569 90.7879 19.2483 90.3772 20.6843C90.035 22.0518 90.0692 23.4194 90.4799 24.7869C90.959 26.0861 91.7803 27.146 92.9439 27.9665C94.1075 28.7187 95.6475 28.7187 97.564 27.9665C99.2751 27.3511 100.268 26.3255 100.541 24.8895C100.884 23.4536 100.712 22.086 100.028 20.7868C99.412 19.4877 98.4195 18.4962 97.0506 17.8124C95.6817 17.0602 94.2444 17.0261 92.7386 17.7098ZM118.816 7.96598C119.638 6.94031 120.562 6.42748 121.588 6.42748C122.615 6.3591 123.539 6.56423 124.36 7.04287C125.25 7.52152 125.9 8.2053 126.311 9.09421C126.79 9.91475 126.859 10.6669 126.516 11.3507C125.284 13.6755 123.779 16.6158 121.999 20.1714C120.219 23.6587 118.303 27.5221 116.25 31.7615C114.265 35.9326 112.211 40.3087 110.09 44.8901C108.036 49.4714 106.085 53.916 104.237 58.2238C103.895 58.9759 103.313 59.4546 102.492 59.6597C101.671 59.8648 100.849 59.8648 100.028 59.6597C99.2067 59.3862 98.5222 58.9417 97.9746 58.3263C97.4955 57.6426 97.4271 56.7878 97.7693 55.7622C99.6858 50.0184 101.705 44.4798 103.827 39.1463C106.017 33.8128 108.07 29.0264 109.987 24.7869C111.903 20.4791 113.649 16.8551 115.223 13.9149C116.797 10.9746 117.995 8.99164 118.816 7.96598ZM128.159 33.1974C129.733 33.1974 131.171 33.6077 132.471 34.4282C133.772 35.1804 134.833 36.2061 135.654 37.5052C136.475 38.7361 136.989 40.1378 137.194 41.7105C137.399 43.2148 137.228 44.7191 136.681 46.2234C135.928 48.2064 134.661 49.8133 132.882 51.0441C131.171 52.2749 129.323 53.0612 127.338 53.4031C125.353 53.745 123.436 53.5741 121.588 52.8903C119.809 52.1381 118.508 50.8048 117.687 48.8902C116.866 47.1124 116.558 45.3003 116.763 43.4541C117.037 41.5395 117.653 39.8301 118.611 38.3258C119.569 36.8215 120.87 35.5907 122.512 34.6334C124.224 33.6761 126.106 33.1974 128.159 33.1974ZM124.36 45.3003C125.25 46.326 126.311 46.873 127.543 46.9414C128.844 46.9414 129.973 46.6337 130.931 46.0183C131.889 45.3345 132.505 44.4456 132.779 43.3516C133.121 42.1891 132.779 40.9925 131.753 39.7617C130.794 38.6677 129.699 38.1206 128.467 38.1206C127.235 38.1206 126.14 38.4625 125.182 39.1463C124.292 39.8301 123.676 40.7532 123.334 41.9156C123.06 43.078 123.402 44.2063 124.36 45.3003Z"/>
</mask>
<path d="M7.55278 4.27357C7.68967 3.38465 8.3399 2.76925 9.50347 2.42736C10.667 2.08547 11.9333 1.94872 13.3022 2.01709C14.7396 2.08548 16.04 2.35899 17.2036 2.83763C18.3672 3.2479 18.9832 3.8633 19.0516 4.68384C19.1201 5.50437 18.9832 6.80355 18.641 8.58138C18.2987 10.2908 17.9223 12.4789 17.5116 15.1457C17.1694 17.8124 16.8614 20.9236 16.5876 24.4792C16.3822 27.9665 16.3822 31.8641 16.5876 36.1719C18.0249 35.0095 19.6334 33.847 21.413 32.6846C23.1926 31.5222 25.0406 30.6333 26.9571 30.0179C28.8736 29.3341 30.8243 29.0606 32.8092 29.1973C34.7941 29.3341 36.7448 30.0521 38.6613 31.3512C40.7831 32.8555 42.2547 34.8385 43.076 37.3001C43.8973 39.6933 44.0685 42.2233 43.5893 44.8901C43.1787 47.5568 42.0835 50.1894 40.304 52.7877C38.5928 55.3177 36.1972 57.4032 33.1172 59.0443C31.1323 60.07 28.8736 60.7879 26.3411 61.1982C23.8086 61.5401 21.2761 61.3692 18.7436 60.6854C16.2796 59.9332 13.9867 58.5657 11.8648 56.5827C9.74303 54.5314 8.13456 51.5911 7.03944 47.7619C6.35498 45.4371 5.87586 42.8387 5.60208 39.9669C5.3283 37.0266 5.19141 34.0522 5.19141 31.0435C5.19141 28.0349 5.29407 25.0605 5.49941 22.1202C5.70475 19.18 5.94431 16.479 6.21809 14.0174C6.49187 11.5558 6.73143 9.47029 6.93677 7.76085C7.21055 6.0514 7.41589 4.88897 7.55278 4.27357ZM17.9223 47.9671C18.6067 49.95 19.7019 51.6595 21.2077 53.0954C22.7819 54.463 24.8695 55.0784 27.4704 54.9416C29.5238 54.8049 31.3718 54.0185 33.0145 52.5826C34.6572 51.1466 35.8892 49.4372 36.7106 47.4542C37.5319 45.4029 37.8399 43.3174 37.6346 41.1977C37.4977 39.0096 36.6421 37.1634 35.0679 35.659C33.9043 34.565 32.4327 34.2915 30.6531 34.8385C28.942 35.3855 27.1966 36.377 25.4171 37.8129C23.7059 39.1805 22.1317 40.8216 20.6943 42.7362C19.3254 44.6507 18.4014 46.3944 17.9223 47.9671Z" stroke="#3C475B" stroke-width="4" mask="url(#path-2-outside-1_35_1543)"/>
<path d="M49.3115 4.58127C49.7906 4.51289 51.0911 4.37614 53.2129 4.171C55.3347 3.96587 57.7645 3.76073 60.5023 3.5556C63.2402 3.35047 65.978 3.17952 68.7158 3.04277C71.5221 2.83763 73.815 2.76925 75.5946 2.83763C76.2106 2.83763 76.7239 3.17952 77.1346 3.8633C77.6137 4.4787 77.9902 5.29924 78.2639 6.32491C78.6062 7.2822 78.8115 8.34206 78.88 9.50448C78.9484 10.6669 78.8799 11.761 78.6746 12.7866C78.6062 13.1969 78.2982 14.4961 77.7506 16.6842C77.2715 18.8723 76.6897 21.5732 76.0052 24.7869C75.3208 28.0007 74.5337 31.488 73.6439 35.2488C72.8225 38.9412 72.0354 42.4968 71.2825 45.9157C70.5296 49.2663 69.8451 52.2407 69.2291 54.8391C68.6131 57.4374 68.2025 59.2152 67.9971 60.1725C67.8602 60.7879 67.2784 61.164 66.2518 61.3008C65.2935 61.4375 64.2326 61.4033 63.069 61.1982C61.9739 60.9931 60.9472 60.617 59.989 60.07C59.0992 59.5229 58.6543 58.8734 58.6543 58.1212C58.6543 57.7109 58.8254 56.7194 59.1676 55.1468C59.5099 53.5741 59.9205 51.6253 60.3997 49.3004C60.9472 46.9756 61.5632 44.4114 62.2477 41.6079C62.9322 38.736 63.6166 35.8642 64.3011 32.9923C64.9855 30.0521 65.67 27.2144 66.3544 24.4792C67.0389 21.6758 67.6207 19.2141 68.0998 17.0944C68.5789 14.9063 68.9554 13.1285 69.2291 11.761C69.5714 10.3934 69.7083 9.67543 69.6398 9.60705C69.5029 9.40192 68.5789 9.36772 66.8678 9.50448C65.1566 9.57286 63.2059 9.74381 61.0157 10.0173C58.8254 10.2224 56.6694 10.4618 54.5476 10.7353C52.4942 10.9404 51.0226 11.043 50.1328 11.043C49.3115 11.043 48.6955 10.7353 48.2848 10.1199C47.9426 9.50448 47.7372 8.78651 47.6688 7.96598C47.6004 7.14544 47.703 6.39328 47.9768 5.7095C48.319 5.02572 48.7639 4.64965 49.3115 4.58127Z" stroke="#3C475B" stroke-width="4" mask="url(#path-2-outside-1_35_1543)"/>
<path d="M90.7879 12.5815C92.2937 12.0345 93.8337 11.7951 95.4079 11.8635C97.0506 11.9319 98.5907 12.3422 100.028 13.0943C101.465 13.8465 102.697 15.0089 103.724 16.5816C104.751 18.0859 105.401 20.0005 105.675 22.3253C105.949 24.3767 105.572 26.3596 104.545 28.2742C103.519 30.1888 102.116 31.7615 100.336 32.9923C98.6249 34.2231 96.6057 34.9753 94.2786 35.2488C92.0199 35.4539 89.7612 34.8385 87.5025 33.4026C85.8598 32.3769 84.5936 30.9068 83.7038 28.9922C82.8824 27.0776 82.5402 25.0605 82.6771 22.9407C82.814 20.821 83.5326 18.8039 84.8331 16.8893C86.1336 14.9747 88.1185 13.5388 90.7879 12.5815ZM92.7386 17.7098C91.575 18.2569 90.7879 19.2483 90.3772 20.6843C90.035 22.0518 90.0692 23.4194 90.4799 24.7869C90.959 26.0861 91.7803 27.146 92.9439 27.9665C94.1075 28.7187 95.6475 28.7187 97.564 27.9665C99.2751 27.3511 100.268 26.3255 100.541 24.8895C100.884 23.4536 100.712 22.086 100.028 20.7868C99.412 19.4877 98.4195 18.4962 97.0506 17.8124C95.6817 17.0602 94.2444 17.0261 92.7386 17.7098ZM118.816 7.96598C119.638 6.94031 120.562 6.42748 121.588 6.42748C122.615 6.3591 123.539 6.56423 124.36 7.04287C125.25 7.52152 125.9 8.2053 126.311 9.09421C126.79 9.91475 126.859 10.6669 126.516 11.3507C125.284 13.6755 123.779 16.6158 121.999 20.1714C120.219 23.6587 118.303 27.5221 116.25 31.7615C114.265 35.9326 112.211 40.3087 110.09 44.8901C108.036 49.4714 106.085 53.916 104.237 58.2238C103.895 58.9759 103.313 59.4546 102.492 59.6597C101.671 59.8648 100.849 59.8648 100.028 59.6597C99.2067 59.3862 98.5222 58.9417 97.9746 58.3263C97.4955 57.6426 97.4271 56.7878 97.7693 55.7622C99.6858 50.0184 101.705 44.4798 103.827 39.1463C106.017 33.8128 108.07 29.0264 109.987 24.7869C111.903 20.4791 113.649 16.8551 115.223 13.9149C116.797 10.9746 117.995 8.99164 118.816 7.96598ZM128.159 33.1974C129.733 33.1974 131.171 33.6077 132.471 34.4282C133.772 35.1804 134.833 36.2061 135.654 37.5052C136.475 38.7361 136.989 40.1378 137.194 41.7105C137.399 43.2148 137.228 44.7191 136.681 46.2234C135.928 48.2064 134.661 49.8133 132.882 51.0441C131.171 52.2749 129.323 53.0612 127.338 53.4031C125.353 53.745 123.436 53.5741 121.588 52.8903C119.809 52.1381 118.508 50.8048 117.687 48.8902C116.866 47.1124 116.558 45.3003 116.763 43.4541C117.037 41.5395 117.653 39.8301 118.611 38.3258C119.569 36.8215 120.87 35.5907 122.512 34.6334C124.224 33.6761 126.106 33.1974 128.159 33.1974ZM124.36 45.3003C125.25 46.326 126.311 46.873 127.543 46.9414C128.844 46.9414 129.973 46.6337 130.931 46.0183C131.889 45.3345 132.505 44.4456 132.779 43.3516C133.121 42.1891 132.779 40.9925 131.753 39.7617C130.794 38.6677 129.699 38.1206 128.467 38.1206C127.235 38.1206 126.14 38.4625 125.182 39.1463C124.292 39.8301 123.676 40.7532 123.334 41.9156C123.06 43.078 123.402 44.2063 124.36 45.3003Z" stroke="#3C475B" stroke-width="4" mask="url(#path-2-outside-1_35_1543)"/>
</g>
</g>
</svg>
