<svg width="280" height="94" viewBox="0 0 280 94" fill="none" xmlns="http://www.w3.org/2000/svg">
<path d="M40.0898 44.4759V28.0199C40.0898 17.4529 34.1998 11.8049 23.1498 11.8049C18.2278 11.8049 14.1128 13.0149 11.2898 14.3049C9.59684 15.0309 8.14384 15.9189 6.85384 16.8869L10.6438 23.9869C11.6938 23.2609 12.9038 22.5349 14.1938 21.9699C16.3738 21.0019 19.1158 20.0339 22.2608 20.0339C26.5368 20.0339 29.8458 21.8889 29.8458 27.1319V28.5019H27.2658C20.6498 28.5019 4.11084 29.7939 4.11084 42.3789C4.11084 50.7669 10.6438 54.8819 17.7458 54.8819C22.5858 54.8819 25.6498 52.9449 27.8298 50.9289C29.0368 49.7189 30.0058 48.4289 30.7298 46.9769H30.8928C30.8928 47.1369 30.8928 47.2969 30.8128 47.5409C30.7308 47.9439 30.6528 48.4289 30.6528 49.0729V49.5569C30.6528 51.8969 32.1028 53.9119 35.8928 53.9119H45.5758V46.2499H41.8658C40.6538 46.2499 40.0898 45.6869 40.0898 44.4759ZM29.9238 36.0859C29.9238 41.2499 25.9718 47.2189 20.4038 47.2189C16.6138 47.2189 14.4338 44.7169 14.4338 41.5709C14.4338 35.3609 24.1168 34.7149 28.2298 34.7149H29.9228V36.0849L29.9238 36.0859ZM74.5398 11.8049C69.6958 11.8049 66.4698 13.4189 64.2898 15.2749C63.0798 16.3219 62.0328 17.4519 61.3098 18.7429H61.1458C61.2258 18.5809 61.2258 18.4199 61.2258 18.1769V16.6439C61.2258 14.4659 59.9358 12.7719 56.1458 12.7719H45.5758V20.4359H50.1758C51.3858 20.4359 51.9498 21.0009 51.9498 22.2099V62.3839H45.9798V70.0479H68.1648V62.3839H62.1948V52.6219C62.1948 51.5739 62.1948 50.6859 62.1148 50.0419L61.9508 49.0719H62.1148C62.9218 50.1219 63.8898 51.0899 65.0198 51.9769C66.9538 53.5089 69.8598 54.8809 73.9698 54.8809C84.7818 54.8809 92.7678 46.4109 92.7678 33.3429C92.7678 20.5989 85.6698 11.8059 74.5378 11.8059L74.5398 11.8049ZM72.1158 46.2499C65.3408 46.2499 61.8718 39.9599 61.8718 33.5849C61.8718 24.5499 66.7918 20.5979 72.1978 20.5979C78.3258 20.5979 82.4408 25.6799 82.4408 33.5049C82.4408 41.6529 77.7608 46.2509 72.1148 46.2509L72.1158 46.2499ZM116.973 11.8049C104.631 11.8049 96.0778 20.6789 96.0778 33.3449C96.0778 44.9609 104.548 54.8829 118.182 54.8829C123.344 54.8829 127.459 53.5109 130.364 51.9789C132.058 51.0889 133.592 50.2029 134.8 49.1539L130.848 41.8939C129.8 42.6999 128.671 43.4259 127.378 44.0719C125.202 45.2819 122.378 46.2499 118.908 46.2499C112.696 46.2499 107.213 42.2969 106.568 34.7959H135.044L135.204 33.5059C135.286 32.7789 135.286 31.8909 135.286 31.3259C135.286 20.4359 128.83 11.8049 116.973 11.8049ZM106.808 28.7449C107.778 23.2599 111.488 19.7109 116.728 19.7109C121.168 19.7109 124.473 23.0209 124.718 28.7469H106.808V28.7449Z" fill="#838386"/>
<path d="M201.272 51.9799C202.966 51.0899 204.5 50.2039 205.71 49.1549L201.758 41.8949C200.708 42.7009 199.578 43.4269 198.288 44.0729C196.108 45.2829 193.286 46.2509 189.818 46.2509C183.606 46.2509 178.12 42.2979 177.474 34.7969H205.951L206.111 33.5069C206.194 32.7799 206.194 31.8919 206.194 31.3269C206.194 20.4369 199.742 11.8069 187.882 11.8069C175.54 11.8069 166.989 20.6799 166.989 33.3449C166.989 44.9619 175.459 54.8849 189.093 54.8849C194.259 54.8849 198.371 53.5119 201.275 51.9799H201.272ZM187.642 19.7099C192.077 19.7099 195.385 23.0179 195.627 28.7449H177.717C178.687 23.2599 182.398 19.7099 187.642 19.7099Z" fill="#00CFB5"/>
<path d="M162.23 45.7671C159.325 45.7671 154 44.8791 154 37.7811V20.4381H163.357V12.7741H154V1.56006H147.982C147.348 7.56006 143.105 12.4721 137.464 14.1041V20.4371H143.756V38.8301C143.756 52.6231 155.129 54.3181 160.939 54.3181C161.904 54.3181 162.631 54.3181 163.196 54.2381L164.084 54.0761V45.6861H163.599C163.279 45.6861 162.792 45.7661 162.229 45.7661L162.23 45.7671Z" fill="#838386"/>
<path d="M255.656 28.4861H265.9V20.4361H275.256V12.7731H265.9V1.56006H259.88C259.247 7.56006 255.004 12.4721 249.363 14.1041V20.4371H255.655V28.4871L255.656 28.4861ZM275.5 45.6871C275.178 45.6871 274.692 45.7671 274.128 45.7671C271.224 45.7671 265.9 44.8791 265.9 37.7811V34.7051H255.656V38.8301C255.656 43.1951 256.8 46.3431 258.542 48.6151C254.295 68.2711 236.612 82.5301 216.459 82.5301C203.956 82.5301 192.087 77.1031 183.897 67.6401L176.781 73.8001C186.761 85.3281 201.221 91.9401 216.458 91.9401C239.953 91.9401 260.686 76.0261 266.968 53.6671C269.114 54.1701 271.198 54.3171 272.836 54.3171C273.803 54.3171 274.53 54.3171 275.096 54.2371L275.983 54.0771V45.6871H275.497H275.5Z" fill="#00CFB5"/>
<path d="M232.174 28.5029C225.559 28.5029 209.02 29.7929 209.02 42.3789C209.02 50.7669 215.553 54.8819 222.655 54.8819C227.495 54.8819 230.559 52.9449 232.739 50.9289C233.946 49.7189 234.915 48.4289 235.639 46.9769H235.802C235.802 47.1369 235.802 47.2969 235.722 47.5409C235.64 47.9439 235.562 48.4289 235.562 49.0729V49.5569C235.562 51.8969 237.012 53.9119 240.802 53.9119H250.485V46.2499H246.775C245.565 46.2499 245 45.6859 245 44.4749V28.0199C245 17.4529 239.11 11.8049 228.06 11.8049C223.14 11.8049 219.024 13.0149 216.2 14.3049C214.508 15.0309 213.055 15.9189 211.765 16.8869L215.555 23.9869C216.605 23.2609 217.815 22.5349 219.105 21.9699C221.285 21.0019 224.027 20.0339 227.172 20.0339C231.447 20.0339 234.756 21.8889 234.756 27.1319V28.5019L232.174 28.5029ZM234.834 34.7149V36.0869C234.834 41.2499 230.882 47.2189 225.314 47.2189C221.524 47.2189 219.344 44.7169 219.344 41.5709C219.344 35.3609 229.027 34.7149 233.14 34.7149H234.834Z" fill="#00CFB5"/>
</svg>
