<?xml version="1.0" encoding="utf-8"?>
<svg width="80px" height="89px" viewBox="0 0 80 89" version="1.1" xmlns:xlink="http://www.w3.org/1999/xlink" xmlns="http://www.w3.org/2000/svg">
  <defs>
    <path d="M0 0L80 0L80 89L0 89L0 0Z" id="path_1" />
    <clipPath id="mask_1">
      <use xlink:href="#path_1" />
    </clipPath>
  </defs>
  <g id="icon_bag">
    <g id="Mask-Group">
      <path d="M0 0L80 0L80 89L0 89L0 0Z" id="Rectangle" fill="none" fill-rule="evenodd" stroke="none" />
      <g clip-path="url(#mask_1)">
        <g id="Group" transform="translate(0.9433594 0.77441406)">
          <path d="M74.7328 46.5109C74.7328 46.5109 74.8868 44.9089 73.6998 44.6399C72.2278 44.3049 41.8348 44.5739 33.8318 44.6279C32.8968 44.6339 32.1268 45.3539 32.0568 46.2849C31.3048 56.4679 27.3188 82.5579 28.0198 83.2599C28.7948 84.0339 78.3168 84.5499 78.7038 84.1629C79.0908 83.7759 74.7328 46.5109 74.7328 46.5109L74.7328 46.5109Z" id="Shape" fill="#F2F3F5" fill-rule="evenodd" stroke="none" />
          <path d="M39.5669 42.2721C37.4879 43.3291 36.6859 43.4621 34.0349 42.3761C27.6399 39.7571 28.0059 34.6561 25.5879 33.7481C23.1709 32.8391 13.5878 27.8711 13.5878 27.8711" id="Shape" fill="none" stroke="#3F444C" stroke-width="1.54" stroke-linecap="round" stroke-linejoin="round" />
          <path d="M6.58643 13.886C6.58643 13.886 19.4944 19.476 22.8204 17.967C26.1474 16.457 26.9944 15.299 30.0424 8.25895C33.0894 1.21895 34.6234 2.00595 34.9334 3.14095C35.2434 4.27595 33.2794 11.665 32.7434 12.471C32.2084 13.278 41.6714 -0.719041 43.4974 0.028959C45.3244 0.776954 41.8104 8.26596 37.8484 14.234C37.8484 14.234 50.7274 2.06395 51.8584 4.20895C52.9904 6.35495 41.9934 20.24 40.9744 20.725C39.9554 21.21 46.5034 19.748 48.3884 22.859C50.2734 25.969 50.8744 31.714 47.5514 34.619C44.2284 37.525 45.4424 26.945 44.2064 26.357C42.9704 25.768 37.4394 25.349 35.1914 29.434C32.9444 33.519 35.3154 37.649 37.8914 37.268C39.4024 37.045 41.4384 36.26 43.0814 35.78" id="Shape" fill="none" stroke="#3F444C" stroke-width="1.54" stroke-linecap="round" stroke-linejoin="round" />
          <path d="M16.059 19.7512C16.059 19.7512 12.986 30.7252 11.446 31.0962C9.90604 31.4682 -3.8147e-06 27.3752 -3.8147e-06 27.3752" id="Shape" fill="none" stroke="#3F444C" stroke-width="1.54" stroke-linecap="round" stroke-linejoin="round" />
          <path d="M48.4057 33.7009C53.1277 34.1339 56.5687 38.9279 56.1087 47.2009" id="Shape" fill="none" stroke="#3F444C" stroke-width="1.54" stroke-linecap="round" stroke-linejoin="round" />
          <path d="M39.6214 47.2013C39.6214 47.2013 37.7454 36.6663 45.4894 34.7313C45.6724 34.6853 45.6744 34.6813 45.8524 34.6423" id="Shape" fill="none" stroke="#3F444C" stroke-width="1.54" stroke-linecap="round" stroke-linejoin="round" />
          <path d="M46.8003 36.5003C50.9633 36.9283 53.6813 40.2713 53.2973 47.1853" id="Shape" fill="none" stroke="#3F444C" stroke-width="1.54" stroke-linecap="round" stroke-linejoin="round" />
          <path d="M46.8001 36.5003C46.7251 36.5103 46.6211 36.5303 46.4991 36.5583C44.7701 36.9483 43.3741 38.2603 42.9071 39.9703C42.4901 41.4973 42.2081 43.7913 42.4121 47.2013" id="Shape" fill="none" stroke="#3F444C" stroke-width="1.54" stroke-linecap="round" stroke-linejoin="round" />
          <path d="M71.1732 49.216C71.1732 49.216 71.3272 47.614 70.1402 47.345C68.6682 47.01 38.2752 47.279 30.2722 47.333C29.3372 47.339 28.5672 48.059 28.4982 48.99C27.7452 59.173 23.7592 85.263 24.4602 85.965C25.2352 86.739 74.7572 87.255 75.1452 86.868C75.5312 86.481 71.1732 49.216 71.1732 49.216L71.1732 49.216Z" id="Shape" fill="none" fill-rule="evenodd" stroke="#3F444C" stroke-width="1.54" stroke-linecap="round" stroke-linejoin="round" />
          <g id="Group" transform="translate(63.595444 51.514885)">
            <path d="M2 0L0 35.485" id="Line" fill="none" fill-rule="evenodd" stroke="#3F444C" stroke-width="1.54" stroke-linecap="round" stroke-linejoin="round" />
          </g>
          <path d="M50.731 64.8782C50.69 64.8782 50.629 64.8892 50.559 64.8892C50.195 64.8892 49.528 64.7772 49.528 63.8872L49.528 63.5012L48.243 63.5012L48.243 64.0192C48.243 64.5662 48.386 64.9612 48.604 65.2452C48.072 67.7102 45.855 69.4972 43.329 69.4972C41.761 69.4972 40.273 68.8172 39.246 67.6312L38.354 68.4032C39.605 69.8492 41.418 70.6782 43.329 70.6782C46.274 70.6782 48.874 68.6832 49.662 65.8792C49.93 65.9412 50.192 65.9602 50.397 65.9602C50.518 65.9602 50.609 65.9602 50.68 65.9502L50.792 65.9302L50.792 64.8782L50.731 64.8782L50.731 64.8782Z" id="Shape" fill="#3F444C" fill-rule="evenodd" stroke="none" />
        </g>
      </g>
    </g>
  </g>
</svg>