<svg width="58" height="60" viewBox="0 0 58 60" fill="none" xmlns="http://www.w3.org/2000/svg">
<g id="icon_phone 1" clip-path="url(#clip0_35_1327)">
<g id="Home-mobile">
<g id="Contacto">
<g id="Tel&#195;&#169;fono">
<g id="Phone-icon">
<g id="Group-3">
<g id="Mask group">
<mask id="mask0_35_1327" style="mask-type:luminance" maskUnits="userSpaceOnUse" x="3" y="3" width="31" height="57">
<g id="Group">
<path id="Vector" d="M3.96729 3.27466H33.918V59.2491H3.96729V3.27466Z" fill="#F3F5F6"/>
</g>
</mask>
<g mask="url(#mask0_35_1327)">
<path id="Fill-1" fill-rule="evenodd" clip-rule="evenodd" d="M33.8484 34.7369C33.8496 34.7254 33.8547 34.7171 33.8547 34.7063C33.8719 25.2416 33.9056 11.3018 33.9152 8.79076C33.9171 8.12587 33.814 7.49986 33.6078 6.93187C33.0746 5.4663 31.7325 3.03494 28.6047 3.29376C25.2511 3.56214 12.8605 3.37408 9.14219 3.3097C9.11292 3.3097 9.08301 3.30906 9.0531 3.30906C7.87201 3.30906 6.77747 3.70685 5.96292 4.43358C5.05229 5.24637 3.96729 6.78971 3.96729 9.52578L3.96983 54.8316C3.97301 54.8711 4.38729 58.7648 9.68119 59.1072C11.3249 59.2136 14.0575 59.2493 16.9701 59.2493C22.7324 59.2493 29.1953 59.1104 29.292 59.1084C29.3251 59.1072 29.3569 59.104 29.3887 59.097C29.4358 59.0861 34.087 57.9999 33.9133 53.6516C33.8566 52.223 33.835 45.8514 33.8484 34.7369Z" fill="#F3F5F6"/>
</g>
</g>
</g>
<path id="Fill-4" fill-rule="evenodd" clip-rule="evenodd" d="M34.1094 25.7368L25.6763 29.5617L34.1094 32.9614V35.83C34.1094 35.83 34.4275 38.0612 36.6548 38.0612H54.2611C54.2611 38.0612 56.2758 37.7425 56.594 36.2552C56.9122 34.768 56.594 23.5056 56.594 23.5056C56.594 23.5056 56.2758 21.168 54.2611 21.168H35.8065C35.8065 21.168 34.1094 21.4867 34.1094 23.6121V25.7368Z" fill="white"/>
<path id="Stroke-6" d="M30.3912 27.4227C30.4084 17.9574 30.4421 9.02434 30.4517 6.51266C30.4542 5.93765 30.3708 5.36647 30.1736 4.82589C29.688 3.48717 28.4599 1.28978 25.6764 1.51226C22.2941 1.78319 9.81949 1.59322 6.16612 1.53074C5.13076 1.51289 4.09858 1.83801 3.32539 2.5284C2.4103 3.34502 1.49585 4.77935 1.49585 7.24959V52.5108C1.49585 52.5108 1.81403 56.0169 6.74585 56.3357C11.6777 56.6544 26.314 56.3357 26.314 56.3357C26.314 56.3357 30.6095 55.3794 30.4504 51.3952C30.3804 49.6561 30.3728 40.9462 30.3855 31.4605" stroke="#3F444C" stroke-width="1.558" stroke-linecap="round" stroke-linejoin="round"/>
<path id="Stroke-8" d="M1.49561 45.7112H30.3916" stroke="#3F444C" stroke-width="1.558" stroke-linecap="round" stroke-linejoin="round"/>
<path id="Stroke-10" fill-rule="evenodd" clip-rule="evenodd" d="M34.1094 25.7368L25.6763 29.5617L34.1094 32.9614V35.83C34.1094 35.83 34.4275 38.0612 36.6548 38.0612H54.2611C54.2611 38.0612 56.2758 37.7425 56.594 36.2552C56.9122 34.768 56.594 23.5056 56.594 23.5056C56.594 23.5056 56.2758 21.168 54.2611 21.168H35.8065C35.8065 21.168 34.1094 21.4867 34.1094 23.6121V25.7368Z" stroke="#3F444C" stroke-width="1.558" stroke-linecap="round" stroke-linejoin="round"/>
<path id="Stroke-12" d="M13.6394 50.5986H18.9429" stroke="#3F444C" stroke-width="1.558" stroke-linecap="round" stroke-linejoin="round"/>
<path id="Stroke-14" d="M37.8608 29.9757C37.8608 29.9757 41.7681 31.461 45.2369 29.7086C45.2369 29.7086 47.2746 28.3099 48.0668 28.753C48.8585 29.196 51.0227 31.067 53.1737 30.1376" stroke="#3F444C" stroke-width="1.558" stroke-linecap="round" stroke-linejoin="round"/>
</g>
</g>
</g>
</g>
</g>
<defs>
<clipPath id="clip0_35_1327">
<rect width="58" height="60" fill="white"/>
</clipPath>
</defs>
</svg>
