<svg width="60" height="66" viewBox="0 0 60 66" fill="none" xmlns="http://www.w3.org/2000/svg">
<g clip-path="url(#clip0_35_1343)">
<mask id="mask0_35_1343" style="mask-type:luminance" maskUnits="userSpaceOnUse" x="5" y="24" width="55" height="42">
<path d="M5.44165 24.6692H59.2284V65.9597H5.44165V24.6692Z" fill="#F3F5F6"/>
</mask>
<g mask="url(#mask0_35_1343)">
<path fill-rule="evenodd" clip-rule="evenodd" d="M46.6585 24.6749C49.4177 24.7441 51.1635 25.1008 53.3093 28.7073C55.4551 32.3122 58.2362 44.1091 58.9854 49.1406C59.7452 54.2412 58.6282 54.7492 56.9705 55.9946C54.6194 58.4306 56.9293 63.52 55.4988 62.5845C54.7762 62.112 53.3804 60.6283 51.6751 60.3836C50.0417 60.1493 48.3784 60.2395 46.7845 60.6702C38.3152 62.9597 25.1655 65.0278 21.8001 65.4343C17.3759 65.9681 13.4867 67.17 10.2692 62.2279C7.05088 57.2874 5.46838 43.4047 5.44171 37.9217C5.41989 33.2919 11.1098 32.3179 11.1098 32.3179C11.1098 32.3179 36.7125 24.427 46.6585 24.6749Z" fill="#F3F5F6"/>
</g>
<path fill-rule="evenodd" clip-rule="evenodd" d="M42.6694 18.3636C43.4089 17.8283 44.0498 16.9548 44.0571 15.6217C44.0668 13.4441 40.9325 12.6825 40.5785 12.6044L32.9295 10.8454C34.8191 8.77812 38.166 4.65315 36.7968 2.70578C36.0129 1.58921 35.1085 1.01522 34.1079 1.00073C32.8697 1.02086 31.5555 1.86372 30.2357 3.62432C28.3938 6.08127 25.9392 7.99402 25.5036 8.32408L22.008 9.62903L12.9245 8.05601C12.5971 8.00127 12.2763 8.21057 12.2019 8.53742L8.08081 26.9009C8.07839 26.9122 8.07677 26.9235 8.07434 26.9339L7.91108 27.9024C7.85532 28.2341 8.07192 28.5504 8.40329 28.6197L17.242 30.5228C17.2872 30.5316 17.3317 30.5364 17.3761 30.5364C17.6614 30.5364 17.9193 30.3424 17.988 30.0542L18.0955 29.605C21.629 30.5308 32.4818 33.2904 36.2788 33.2904C36.7273 33.2904 37.0781 33.2518 37.306 33.1673C38.2452 32.8163 39.4033 31.8245 39.7234 30.4728C39.8382 29.9914 39.8721 29.3466 39.5763 28.6478C40.5405 28.5319 41.7924 28.1117 42.2418 26.7681C42.6184 25.6451 42.1182 24.6815 41.5047 23.9859C41.9484 23.9046 42.414 23.7468 42.8245 23.4618C43.4792 23.0086 43.8776 22.3332 44.0102 21.4541C44.1524 20.509 43.969 19.7048 43.4655 19.0632C43.2327 18.7669 42.9547 18.5383 42.6694 18.3636Z" fill="white"/>
<path d="M13.1292 42.9106C13.1292 42.9106 15.1497 41.7811 17.7255 42.5338C20.3021 43.2873 21.8175 44.4595 24.5452 42.5926C27.273 40.7257 28.2299 39.4449 29.7469 39.8974C31.2632 40.349 35.1531 42.0444 37.4768 41.6298C40.5536 41.0816 42.0117 40.1051 43.1852 38.8806" stroke="#3F444C" stroke-width="1.558" stroke-linecap="round" stroke-linejoin="round"/>
<path d="M15.0769 51.6608C15.0769 51.6608 17.4005 52.717 20.7344 50.9065C24.0683 49.0943 26.3904 47.4851 30.3813 48.3907" stroke="#3F444C" stroke-width="1.558" stroke-linecap="round" stroke-linejoin="round"/>
<path d="M17.5742 28.8344C17.5742 28.8344 34.8152 33.4054 37.0272 32.5794C38.4594 32.0457 40.1114 29.9091 38.3689 28.0391C38.3689 28.0391 40.9867 28.3619 41.5864 26.5699C42.1893 24.7666 39.7089 23.3643 39.7089 23.3643C39.7089 23.3643 42.9272 24.0324 43.3289 21.3613C43.7314 18.6903 40.9156 18.423 40.9156 18.423C40.9156 18.423 43.3572 18.0285 43.3685 15.6183C43.3766 13.8826 40.3797 13.2153 40.3797 13.2153L31.6647 11.2107C31.6647 11.2107 37.6302 5.06836 36.2231 3.06464C34.6794 0.869328 32.7841 1.19456 30.6827 3.99928C28.5797 6.804 25.7518 8.88017 25.7518 8.88017" stroke="#3F444C" stroke-width="1.558" stroke-linecap="round" stroke-linejoin="round"/>
<path d="M9.27271 24.2103L12.7586 8.67407L22.0102 10.2761L17.3177 29.9091L9.27271 28.1727" stroke="#3F444C" stroke-width="1.558" stroke-linecap="round" stroke-linejoin="round"/>
<path d="M7.29718 30.1813C7.29718 30.1813 1.60732 31.1554 1.62995 35.7851C1.65662 41.2673 3.23911 55.1509 6.45663 60.0913C9.67416 65.0334 13.5633 63.8315 17.9883 63.297C21.3537 62.8912 34.5026 60.8231 42.9728 58.5336C44.5658 58.1029 46.2291 58.0127 47.8625 58.247C49.5687 58.4917 50.9637 59.9754 51.687 60.448C53.1167 61.3834 50.8077 56.294 53.158 53.858C54.8156 52.6126 55.9334 52.1038 55.1729 47.0032C54.4244 41.9717 51.6426 30.1756 49.4975 26.5707C47.3525 22.9642 45.5801 22.9143 42.8459 22.5383" stroke="#3F444C" stroke-width="1.558" stroke-linecap="round" stroke-linejoin="round"/>
</g>
<defs>
<clipPath id="clip0_35_1343">
<rect width="60" height="66" fill="white"/>
</clipPath>
</defs>
</svg>
