<svg width="66" height="53" viewBox="0 0 66 53" fill="none" xmlns="http://www.w3.org/2000/svg">
<g clip-path="url(#clip0_35_1313)">
<mask id="mask0_35_1313" style="mask-type:luminance" maskUnits="userSpaceOnUse" x="5" y="3" width="61" height="50">
<path d="M5.33984 3.37012H65.5003V52.32H5.33984V3.37012Z" fill="#F3F5F6"/>
</mask>
<g mask="url(#mask0_35_1313)">
<path fill-rule="evenodd" clip-rule="evenodd" d="M64.1039 45.1986C65.8439 42.5343 65.6379 40.5223 65.1799 36.1291L65.0779 35.1316C64.7579 32.003 64.4709 26.5663 64.2179 21.7689C63.9739 17.1386 63.7629 13.1387 63.5689 12.0621C63.5299 11.845 63.4939 11.6139 63.4559 11.3708C63.1199 9.22372 62.6119 5.97911 58.9179 4.00813C54.6669 1.739 15.5129 6.05815 9.89988 8.5934C9.23788 8.80551 4.76888 10.5544 5.40088 18.7625C5.41888 19.0106 7.34988 43.6388 8.87388 46.3481L9.07188 46.7053C10.1789 48.7073 11.8529 51.7318 16.8479 52.2451C17.3589 52.2971 18.0029 52.3201 18.7519 52.3201C23.0949 52.3201 30.9369 51.5287 36.3969 50.9774C38.9459 50.7203 41.1459 50.4982 41.6769 50.4982C41.8339 50.4982 42.0869 50.5022 42.4199 50.5082C53.8699 50.7173 60.4799 49.5968 62.6409 47.1015C63.2369 46.4132 63.7159 45.7919 64.1019 45.2006C64.1029 45.1996 64.1039 45.1986 64.1039 45.1986Z" fill="#F3F5F6"/>
</g>
<path fill-rule="evenodd" clip-rule="evenodd" d="M4.83738 5.94768C4.83738 5.94768 0.212381 7.1983 0.837381 15.3273C1.46238 23.4564 3.08738 40.5899 4.21238 42.5909C5.33738 44.5919 6.71238 47.5934 11.5874 48.0936C16.4624 48.5939 34.4624 46.3427 36.3374 46.3427C38.2124 46.3427 53.4624 46.968 56.7124 43.2162C59.9624 39.4643 59.5874 37.9636 58.9624 31.8355C58.3374 25.7075 57.8434 10.9412 57.4624 8.82411C57.0874 6.74007 56.9624 3.32137 53.2124 1.32038C49.4624 -0.680612 10.4624 3.32138 4.83738 5.94768Z" stroke="#3F444C" stroke-width="1.558" stroke-linecap="round" stroke-linejoin="round"/>
<path d="M58.0072 40.9387L40.1592 26.7856" stroke="#3F444C" stroke-width="1.558" stroke-linecap="round" stroke-linejoin="round"/>
<path d="M4.30322 10.0717C4.30322 10.0717 20.1982 29.9596 27.3232 32.2107C34.4482 34.4619 41.0732 25.7075 41.0732 25.7075L55.6782 3.69458" stroke="#3F444C" stroke-width="1.558" stroke-linecap="round" stroke-linejoin="round"/>
<path d="M5.83057 44.6964L19.7506 26.9346" stroke="#3F444C" stroke-width="1.558" stroke-linecap="round" stroke-linejoin="round"/>
</g>
<defs>
<clipPath id="clip0_35_1313">
<rect width="66" height="53" fill="white"/>
</clipPath>
</defs>
</svg>
