<svg width="77" height="62" viewBox="0 0 77 62" fill="none" xmlns="http://www.w3.org/2000/svg">
<g id="icon_chat 1" clip-path="url(#clip0_35_1298)">
<g id="Home-mobile">
<g id="Contacto">
<g id="Chat-">
<g id="Icon">
<g id="Group-3">
<g id="Mask group">
<mask id="mask0_35_1298" style="mask-type:luminance" maskUnits="userSpaceOnUse" x="28" y="21" width="49" height="41">
<g id="Group">
<path id="Vector" d="M28.9417 21.793H76.33V61.6627H28.9417V21.793Z" fill="#F3F5F6"/>
</g>
</mask>
<g mask="url(#mask0_35_1298)">
<path id="Fill-1" fill-rule="evenodd" clip-rule="evenodd" d="M52.8462 60.4547C52.8462 60.4547 55.3665 57.5405 55.4343 56.8622C55.5021 56.1847 54.6171 56.1847 53.7999 55.6422C52.9827 55.1005 36.9107 48.9322 32.7569 45.6788C28.603 42.4255 28.5344 41.8155 29.3516 37.7488C30.1688 33.6822 33.5062 25.6172 36.9794 22.6347C36.9794 22.6347 39.0902 19.8555 49.2374 24.3972C59.3838 28.938 65.3086 31.378 74.0935 36.8005C74.0935 36.8005 76.9537 38.0205 76.2052 41.4088C75.4558 44.798 72.4591 52.9988 70.3483 55.3038C68.2374 57.608 67.1473 59.1672 64.2871 58.6247C61.4268 58.0822 60.8826 58.0822 60.8826 58.0822C60.8826 58.0822 59.3454 61.3851 55.9107 61.5388C55.0257 61.5787 52.7105 62.1488 52.8462 60.4547Z" fill="#F3F5F6"/>
</g>
</g>
</g>
<path id="Stroke-4" fill-rule="evenodd" clip-rule="evenodd" d="M52.0291 57.2015C52.0291 57.2015 54.5493 54.2873 54.6171 53.609C54.685 52.9315 53.7999 52.9315 52.9827 52.389C52.1655 51.8473 36.0936 45.679 31.9397 42.4257C27.7859 39.1723 27.7172 38.5623 28.5344 34.4957C29.3516 30.429 32.6891 22.364 36.1622 19.3815C36.1622 19.3815 38.2731 16.6023 48.4203 21.144C58.5667 25.6848 64.4914 28.1248 73.2764 33.5473C73.2764 33.5473 76.1366 34.7673 75.388 38.1557C74.6387 41.5448 71.642 49.7457 69.5311 52.0507C67.4203 54.3548 66.3301 55.914 63.4699 55.3715C60.6097 54.829 60.0654 54.829 60.0654 54.829C60.0654 54.829 58.5283 58.132 55.0936 58.2857C54.2085 58.3255 51.8934 58.8957 52.0291 57.2015Z" stroke="#3F444C" stroke-width="1.558" stroke-linecap="round" stroke-linejoin="round"/>
<path id="Stroke-6" d="M39.5667 32.1716C39.5667 32.1716 44.4184 37.6104 51.2118 37.7121C51.2118 37.7121 55.5021 37.2037 56.37 38.5254C57.2387 39.8479 59.0774 44.4733 63.1634 44.7783" stroke="#3F444C" stroke-width="1.558" stroke-linecap="round" stroke-linejoin="round"/>
<path id="Stroke-8" d="M23.7844 32.869C23.7844 32.869 18.7283 33.4277 17.6553 33.3261C17.6553 33.3261 17.5025 35.7669 17.6553 36.5794C17.809 37.3927 18.1154 40.189 17.2467 39.7823C16.378 39.3756 12.8542 37.3927 11.5263 33.5294C11.5263 33.5294 6.01016 34.1906 3.81352 26.4135C2.26655 20.9317 1.37825 16.8138 1.7035 13.1871C1.97072 10.2217 3.78655 7.62066 6.51928 6.40798C8.36535 5.58814 11.0319 4.73251 14.7951 4.14773C24.2951 2.67397 33.2844 1.09773 41.2006 1.80939C41.2006 1.80939 47.4833 2.11439 48.6576 5.72397C49.8327 9.33354 51.0586 13.7654 51.365 20.0216" stroke="#3F444C" stroke-width="1.558" stroke-linecap="round" stroke-linejoin="round"/>
<path id="Stroke-10" d="M10.6804 15.4554C10.6804 15.4554 12.7234 14.3135 15.3287 15.074C17.9331 15.8361 19.4654 17.0203 22.2234 15.1333C24.9815 13.248 25.9499 11.954 27.483 12.4111C29.0169 12.8674 32.9492 14.5803 35.2987 14.1614C38.4098 13.6075 39.8849 12.6209 41.0706 11.3831" stroke="#3F444C" stroke-width="1.558" stroke-linecap="round" stroke-linejoin="round"/>
<path id="Stroke-12" d="M12.6499 24.2948C12.6499 24.2948 14.9994 25.3619 18.3703 23.5327C21.7413 21.7019 24.0891 20.0761 28.1245 20.9911" stroke="#3F444C" stroke-width="1.558" stroke-linecap="round" stroke-linejoin="round"/>
</g>
</g>
</g>
</g>
</g>
<defs>
<clipPath id="clip0_35_1298">
<rect width="77" height="62" fill="white"/>
</clipPath>
</defs>
</svg>
