<svg width="80" height="89" viewBox="0 0 80 89" fill="none" xmlns="http://www.w3.org/2000/svg">
<g id="icon_bag" clip-path="url(#clip0_6_3542)">
<g id="Home">
<g id="Como-funciona">
<g id="Group">
<g id="Icon-delivery">
<g id="Group-23">
<path id="Fill-1" fill-rule="evenodd" clip-rule="evenodd" d="M75.6762 47.2853C75.6762 47.2853 75.8302 45.6833 74.6432 45.4143C73.1712 45.0793 42.7782 45.3483 34.7752 45.4023C33.8402 45.4083 33.0702 46.1283 33.0002 47.0593C32.2482 57.2423 28.2622 83.3323 28.9632 84.0343C29.7382 84.8083 79.2602 85.3243 79.6472 84.9373C80.0342 84.5503 75.6762 47.2853 75.6762 47.2853Z" fill="#F2F3F5"/>
<path id="Stroke-3" d="M40.5103 43.0465C38.4313 44.1035 37.6293 44.2365 34.9783 43.1505C28.5833 40.5315 28.9493 35.4305 26.5313 34.5225C24.1143 33.6135 14.5312 28.6455 14.5312 28.6455" stroke="#3F444C" stroke-width="1.54" stroke-linecap="round" stroke-linejoin="round"/>
<path id="Stroke-5" d="M7.52979 14.6604C7.52979 14.6604 20.4378 20.2504 23.7638 18.7414C27.0908 17.2314 27.9378 16.0734 30.9858 9.03337C34.0328 1.99337 35.5668 2.78037 35.8768 3.91537C36.1868 5.05037 34.2228 12.4394 33.6868 13.2454C33.1518 14.0524 42.6148 0.0553746 44.4408 0.803375C46.2678 1.55137 42.7538 9.04038 38.7918 15.0084C38.7918 15.0084 51.6708 2.83837 52.8018 4.98337C53.9338 7.12937 42.9368 21.0144 41.9178 21.4994C40.8988 21.9844 47.4468 20.5224 49.3318 23.6334C51.2168 26.7434 51.8178 32.4884 48.4948 35.3934C45.1718 38.2994 46.3858 27.7194 45.1498 27.1314C43.9138 26.5424 38.3828 26.1234 36.1348 30.2084C33.8878 34.2934 36.2588 38.4234 38.8348 38.0424C40.3458 37.8194 42.3818 37.0344 44.0248 36.5544" stroke="#3F444C" stroke-width="1.54" stroke-linecap="round" stroke-linejoin="round"/>
<path id="Stroke-7" d="M17.0024 20.5256C17.0024 20.5256 13.9294 31.4996 12.3894 31.8706C10.8494 32.2426 0.943359 28.1496 0.943359 28.1496" stroke="#3F444C" stroke-width="1.54" stroke-linecap="round" stroke-linejoin="round"/>
<path id="Stroke-9" d="M49.3491 34.4753C54.0711 34.9083 57.5121 39.7023 57.0521 47.9753" stroke="#3F444C" stroke-width="1.54" stroke-linecap="round" stroke-linejoin="round"/>
<path id="Stroke-11" d="M40.5648 47.9757C40.5648 47.9757 38.6888 37.4407 46.4328 35.5057C46.6158 35.4597 46.6178 35.4557 46.7958 35.4167" stroke="#3F444C" stroke-width="1.54" stroke-linecap="round" stroke-linejoin="round"/>
<path id="Stroke-13" d="M47.7437 37.2747C51.9067 37.7027 54.6247 41.0457 54.2407 47.9597" stroke="#3F444C" stroke-width="1.54" stroke-linecap="round" stroke-linejoin="round"/>
<path id="Stroke-15" d="M47.7435 37.2747C47.6685 37.2847 47.5645 37.3047 47.4425 37.3327C45.7135 37.7227 44.3175 39.0347 43.8505 40.7447C43.4335 42.2717 43.1515 44.5657 43.3555 47.9757" stroke="#3F444C" stroke-width="1.54" stroke-linecap="round" stroke-linejoin="round"/>
<path id="Stroke-17" fill-rule="evenodd" clip-rule="evenodd" d="M72.1166 49.9904C72.1166 49.9904 72.2706 48.3884 71.0836 48.1194C69.6116 47.7844 39.2186 48.0534 31.2156 48.1074C30.2806 48.1134 29.5106 48.8334 29.4416 49.7644C28.6886 59.9474 24.7026 86.0374 25.4036 86.7394C26.1786 87.5134 75.7006 88.0294 76.0886 87.6424C76.4746 87.2554 72.1166 49.9904 72.1166 49.9904Z" stroke="#3F444C" stroke-width="1.54" stroke-linecap="round" stroke-linejoin="round"/>
<path id="Stroke-19" d="M65.7298 52.2893L64.5388 87.7743" stroke="#3F444C" stroke-width="1.54" stroke-linecap="round" stroke-linejoin="round"/>
<path id="Fill-21" fill-rule="evenodd" clip-rule="evenodd" d="M51.6744 65.6526C51.6334 65.6526 51.5724 65.6636 51.5024 65.6636C51.1384 65.6636 50.4714 65.5516 50.4714 64.6616V64.2756H49.1864V64.7936C49.1864 65.3406 49.3294 65.7356 49.5474 66.0196C49.0154 68.4846 46.7984 70.2716 44.2724 70.2716C42.7044 70.2716 41.2164 69.5916 40.1894 68.4056L39.2974 69.1776C40.5484 70.6236 42.3614 71.4526 44.2724 71.4526C47.2174 71.4526 49.8174 69.4576 50.6054 66.6536C50.8734 66.7156 51.1354 66.7346 51.3404 66.7346C51.4614 66.7346 51.5524 66.7346 51.6234 66.7246L51.7354 66.7046V65.6526H51.6744Z" fill="#3F444C"/>
</g>
<g id="Group-27">
<g id="Mask group">
<mask id="mask0_6_3542" style="mask-type:luminance" maskUnits="userSpaceOnUse" x="39" y="64" width="13" height="8">
<g id="Group_2">
<path id="Vector" d="M49.1859 64.2759V64.7929C49.1859 65.3399 49.3299 65.7359 49.5479 66.0199C49.0149 68.4839 46.7979 70.2719 44.2719 70.2719C42.7049 70.2719 41.2169 69.5919 40.1889 68.4049L39.2979 69.1779C40.5489 70.6239 42.3609 71.4519 44.2719 71.4519C47.2179 71.4519 49.8169 69.4569 50.6049 66.6539C50.8739 66.7159 51.1349 66.7349 51.3409 66.7349C51.4609 66.7349 51.5519 66.7349 51.6239 66.7249L51.7349 66.7039V65.6529H51.6739C51.6329 65.6529 51.5729 65.6639 51.5029 65.6639C51.1379 65.6639 50.4709 65.5519 50.4709 64.6609V64.2759H49.1859Z" fill="#3F444C"/>
</g>
</mask>
<g mask="url(#mask0_6_3542)">
<path id="Fill-24" fill-rule="evenodd" clip-rule="evenodd" d="M-8.00024 2004.9H345.148V52.969H-8.00024V2004.9Z" fill="#3F444C"/>
</g>
</g>
<g id="Mask group_2">
<mask id="mask1_6_3542" style="mask-type:luminance" maskUnits="userSpaceOnUse" x="39" y="64" width="13" height="8">
<g id="Group_3">
<path id="Vector_2" d="M49.1859 64.2759V64.7929C49.1859 65.3399 49.3299 65.7359 49.5479 66.0199C49.0149 68.4839 46.7979 70.2719 44.2719 70.2719C42.7049 70.2719 41.2169 69.5919 40.1889 68.4049L39.2979 69.1779C40.5489 70.6239 42.3609 71.4519 44.2719 71.4519C47.2179 71.4519 49.8169 69.4569 50.6049 66.6539C50.8739 66.7159 51.1349 66.7349 51.3409 66.7349C51.4609 66.7349 51.5519 66.7349 51.6239 66.7249L51.7349 66.7039V65.6529H51.6739C51.6329 65.6529 51.5729 65.6639 51.5029 65.6639C51.1379 65.6639 50.4709 65.5519 50.4709 64.6609V64.2759H49.1859Z" fill="#3F444C"/>
</g>
</mask>
<g mask="url(#mask1_6_3542)">
<path id="Fill-26" fill-rule="evenodd" clip-rule="evenodd" d="M38.064 72.685H52.968V63.043H38.064V72.685Z" fill="#3F444C"/>
</g>
</g>
</g>
</g>
</g>
</g>
</g>
</g>
<defs>
<clipPath id="clip0_6_3542">
<rect width="80" height="89" fill="white"/>
</clipPath>
</defs>
</svg>
